<svg width="73" height="39" viewBox="0 0 73 39" fill="none" xmlns="http://www.w3.org/2000/svg">
<path d="M73 19.4959C73 8.72849 64.2715 -3.81535e-07 53.5041 -8.52195e-07C52.8623 -8.80246e-07 52.2206 -9.08297e-07 51.587 0.0893555C62.2935 1.22987 70.0488 10.8341 68.9083 21.5406C67.9351 30.6736 60.72 37.8887 51.587 38.8619C52.2206 38.9188 52.8623 38.9513 53.5041 38.9513C64.2553 38.9513 72.9773 30.2471 73 19.4959Z" fill="white"/>
<path d="M28.9061 6.83998C29.7981 5.7807 30.7997 4.81971 31.8955 3.97245C31.2773 3.50698 30.6315 3.07807 29.9622 2.68896C28.8996 3.31933 27.8988 4.04799 26.9728 4.86601C27.6641 5.47688 28.3099 6.1365 28.9061 6.83998Z" fill="white"/>
<path d="M41.7582 38.9024C40.759 38.7887 39.7704 38.5962 38.8013 38.3257C38.1563 38.4971 37.5032 38.6352 36.8436 38.74C37.8411 38.8903 38.8484 38.9658 39.8573 38.9674C40.5072 38.9674 41.1408 38.9674 41.7744 38.8781L41.7582 38.9024Z" fill="white"/>
<path d="M31.8963 37.2777C32.8581 37.705 33.8524 38.0559 34.8694 38.3256C35.5331 38.1583 36.187 37.952 36.8271 37.7083C35.7914 37.3192 34.7906 36.8407 33.8378 36.2786C33.2082 36.6457 32.5608 36.9788 31.8963 37.2777Z" fill="white"/>
<path d="M41.7578 0.11377C41.1242 0.0569073 40.4906 0.024414 39.8407 0.024414C38.8318 0.0260386 37.8245 0.101585 36.827 0.251866C37.4915 0.353408 38.1503 0.489067 38.8009 0.658032C39.7709 0.398898 40.7595 0.216936 41.7578 0.11377Z" fill="white"/>
<path d="M26.9736 9.51241C26.4034 8.57011 25.7568 7.67654 25.0403 6.83984C23.8194 8.27036 22.8104 9.8674 22.0428 11.5839C24.2848 16.6179 24.2848 22.3659 22.0428 27.3999C22.8104 29.1164 23.8202 30.7134 25.0403 32.1439C25.7584 31.3064 26.405 30.4096 26.9736 29.4633C23.2921 23.3228 23.2921 15.6528 26.9736 9.51241Z" fill="white"/>
<path d="M33.8378 2.70503C34.7906 2.1429 35.7914 1.66444 36.8271 1.27533C36.187 1.03163 35.5331 0.825299 34.8694 0.657959C33.8524 0.927653 32.8581 1.27858 31.8963 1.70587C32.5608 2.0048 33.2082 2.33786 33.8378 2.70503Z" fill="white"/>
<path d="M28.9061 32.144C28.3099 32.8418 27.6633 33.4966 26.9728 34.1018C27.8988 34.9198 28.8996 35.6484 29.9622 36.2788C30.6315 35.8897 31.2773 35.4608 31.8955 34.9953C30.8005 34.1538 29.7989 33.1976 28.9061 32.144Z" fill="white"/>
<path d="M63.1709 19.4959C63.1709 8.72849 54.4424 -3.81535e-07 43.675 -8.52194e-07C43.0332 -8.80246e-07 42.3915 -9.08297e-07 41.766 0.0893555C52.4684 1.2713 60.1864 10.9047 59.0045 21.6072C58.002 30.6801 50.8389 37.8441 41.766 38.8457C42.3915 38.9025 43.0332 38.935 43.675 38.935C54.4205 38.935 63.1392 30.2406 63.1709 19.4959Z" fill="white"/>
<path d="M31.8955 38.9024C30.8939 38.8001 29.9029 38.6181 28.9305 38.3582C28.2855 38.5296 27.6324 38.6677 26.9728 38.7724C27.9703 38.9227 28.9776 38.9983 29.9865 38.9999C30.6364 38.9999 31.27 38.9999 31.8955 38.9105L31.8955 38.9024Z" fill="white"/>
<path d="M19.0455 6.83984C19.9423 5.78219 20.9463 4.8212 22.043 3.97231C21.4256 3.51416 20.783 3.09094 20.1177 2.70508C19.0528 3.33139 18.0512 4.06005 17.1284 4.88212C17.8132 5.48812 18.4541 6.14205 19.0455 6.83984Z" fill="white"/>
<path d="M22.0427 37.2777C22.9956 37.7066 23.9818 38.0568 24.9915 38.3256C25.6552 38.1567 26.3091 37.9503 26.9492 37.7083C25.9135 37.3175 24.9135 36.8391 23.9598 36.2786C23.3384 36.6449 22.6983 36.978 22.0427 37.2777Z" fill="white"/>
<path d="M23.9843 2.70503C24.9363 2.14046 25.9371 1.66281 26.9736 1.27533C26.3254 1.03244 25.6633 0.826111 24.9915 0.657959C23.9737 0.925216 22.9794 1.27614 22.0184 1.70587C22.691 2.00399 23.3474 2.33786 23.9843 2.70503Z" fill="white"/>
<path d="M17.1201 9.51241C16.5499 8.57011 15.9032 7.67654 15.1868 6.83984C13.9634 8.26792 12.9537 9.86578 12.1893 11.5839C14.424 16.6195 14.424 22.3643 12.1893 27.3999C12.9537 29.118 13.9634 30.7159 15.1868 32.1439C15.9049 31.3064 16.5515 30.4096 17.1201 29.4633C13.4378 23.3228 13.4378 15.6528 17.1201 9.51241Z" fill="white"/>
<path d="M19.0452 32.144C18.4513 32.8418 17.808 33.4966 17.1199 34.1018C18.0452 34.9238 19.0492 35.6533 20.1174 36.2788C20.786 35.8881 21.431 35.4592 22.0508 34.9953C20.9525 34.1521 19.9452 33.1968 19.0452 32.144Z" fill="white"/>
<path d="M31.8955 0.11377C31.27 0.0569073 30.6364 0.024414 29.9865 0.024414C28.9776 0.0260386 27.9703 0.101585 26.9728 0.251866C27.6324 0.356657 28.2855 0.494753 28.9305 0.666155C29.9029 0.40296 30.8939 0.218561 31.8955 0.11377Z" fill="white"/>
<path d="M53.293 19.4959C53.2905 10.6578 47.3435 2.9268 38.801 0.657958C38.1373 0.826923 37.4834 1.03326 36.8433 1.27533C46.904 5.11197 51.9502 16.3774 48.1135 26.4381C46.1339 31.6289 42.0341 35.7287 36.8433 37.7084C37.4834 37.9504 38.1373 38.1568 38.801 38.3257C47.3402 36.0577 53.2873 28.3308 53.293 19.4959Z" fill="white"/>
<path d="M31.8963 38.9025C32.5299 38.9593 33.1635 38.9918 33.8134 38.9918C34.8223 38.9902 35.8296 38.9147 36.8271 38.7644C36.1675 38.6596 35.5144 38.5215 34.8694 38.3501C33.8946 38.6133 32.9003 38.7985 31.8963 38.9025Z" fill="white"/>
<path d="M31.8963 0.113837C32.9003 0.215378 33.8946 0.39734 34.8694 0.658099C35.5144 0.486697 36.1675 0.348601 36.8271 0.24381C35.8296 0.0935288 34.8223 0.017982 33.8134 0.0163573C33.1635 0.0163573 32.5299 0.0163572 31.8963 0.105714L31.8963 0.113837Z" fill="white"/>
<path d="M36.8268 37.7083C36.1867 37.952 35.5328 38.1583 34.8691 38.3256C35.5141 38.497 36.1672 38.6351 36.8268 38.7399C37.4913 38.6359 38.1501 38.4978 38.8008 38.3256C38.1314 38.1575 37.4726 37.9511 36.8268 37.7083Z" fill="white"/>
<path d="M36.8268 1.27531C37.4726 1.03243 38.1314 0.826093 38.8008 0.657941C38.1558 0.486539 37.5027 0.348443 36.8431 0.243652C36.1835 0.348443 35.5303 0.486539 34.8853 0.657941C35.5441 0.826093 36.1924 1.03243 36.8268 1.27531Z" fill="white"/>
<path d="M12.1893 37.2777C13.1478 37.7066 14.1389 38.0568 15.1543 38.3256C15.8204 38.1567 16.4768 37.9503 17.1201 37.7083C16.0803 37.3208 15.0779 36.8423 14.1226 36.2786C13.4963 36.6449 12.8505 36.9788 12.1893 37.2777Z" fill="white"/>
<path d="M14.1226 2.70503C15.0779 2.14127 16.0803 1.66281 17.1201 1.27533C16.4768 1.03326 15.8204 0.826924 15.1543 0.657959C14.1389 0.92684 13.1478 1.27695 12.1893 1.70587C12.8505 2.0048 13.4963 2.33867 14.1226 2.70503Z" fill="white"/>
<path d="M22.043 0.11377C21.4175 0.0569073 20.7757 0.024414 20.134 0.024414C19.1251 0.0260386 18.1178 0.101585 17.1202 0.251866C17.779 0.357469 18.433 0.495566 19.078 0.666155C20.0495 0.402148 21.0414 0.217749 22.043 0.11377Z" fill="white"/>
<path d="M7.25781 9.51241C6.68999 8.57011 6.04662 7.67654 5.33259 6.83984C4.10678 8.26548 3.09624 9.86415 2.33509 11.5839C4.56981 16.6195 4.56981 22.3643 2.33509 27.3999C3.09705 29.1172 4.10353 30.7159 5.32447 32.1439C6.04582 31.3081 6.69243 30.4112 7.25781 29.4633C3.57552 23.3228 3.57552 15.6528 7.25781 9.51241Z" fill="white"/>
<path d="M9.19195 6.83998C10.0863 5.77988 11.0912 4.8189 12.1895 3.97245C11.568 3.50617 10.9198 3.07807 10.248 2.68896C9.18545 3.31933 8.18466 4.04799 7.25861 4.86601C7.9499 5.47688 8.5957 6.1365 9.19195 6.83998Z" fill="white"/>
<path d="M9.19195 32.144C8.5957 32.8418 7.94909 33.4966 7.25861 34.1018C8.18466 34.9198 9.18545 35.6484 10.248 36.2788C10.9198 35.8897 11.568 35.4616 12.1895 34.9953C11.092 34.1538 10.0871 33.1984 9.19195 32.144Z" fill="white"/>
<path d="M22.043 38.9024C21.0414 38.8009 20.0503 38.6189 19.078 38.3582C18.433 38.5287 17.779 38.6668 17.1202 38.7724C18.1129 38.9105 19.1153 38.9755 20.1177 38.9674C20.7595 38.9674 21.4012 38.9674 22.0267 38.878L22.043 38.9024Z" fill="white"/>
<path d="M31.8955 1.70587C30.937 1.27695 29.9459 0.92684 28.9305 0.657959C28.2668 0.825299 27.6129 1.03163 26.9728 1.27533C28.0085 1.66444 29.0093 2.1429 29.9622 2.70503C30.5885 2.33867 31.2343 2.0048 31.8955 1.70587Z" fill="white"/>
<path d="M22.0428 38.9024C22.6764 38.9593 23.31 38.9918 23.9518 38.9918C24.9631 38.991 25.9737 38.9146 26.9736 38.7643C26.3059 38.6522 25.6438 38.506 24.9915 38.3257C24.0257 38.5954 23.0395 38.7887 22.0428 38.9024Z" fill="white"/>
<path d="M29.9622 36.2786C29.0093 36.8407 28.0085 37.3192 26.9728 37.7083C27.6129 37.952 28.2668 38.1583 28.9305 38.3256C29.9459 38.0568 30.937 37.7066 31.8955 37.2777C31.2343 36.9788 30.5885 36.6449 29.9622 36.2786Z" fill="white"/>
<path d="M22.0427 0.113837C23.0387 0.217003 24.0248 0.398965 24.9915 0.658099C25.6365 0.486697 26.2896 0.348601 26.9492 0.24381C25.9492 0.0935288 24.9387 0.0171697 23.9273 0.0163573C23.2856 0.0163573 22.652 0.0163572 22.0184 0.105714L22.0427 0.113837Z" fill="white"/>
<path d="M39.6128 19.496C39.6112 25.586 36.755 31.3235 31.8957 34.9952C32.5179 35.4591 33.1662 35.888 33.8371 36.2787C43.1083 30.8028 46.1854 18.8485 40.7095 9.5774C39.0353 6.74317 36.6714 4.37848 33.8371 2.70508C33.167 3.09093 32.5187 3.51335 31.8957 3.97231C36.7615 7.64892 39.6193 13.397 39.6128 19.496Z" fill="white"/>
<path d="M29.9631 36.2788C30.5894 36.6452 31.2352 36.9791 31.8964 37.278C32.5609 36.9791 33.2083 36.646 33.8379 36.2788C33.1669 35.8881 32.5187 35.4592 31.8964 34.9954C31.2782 35.4608 30.6324 35.8897 29.9631 36.2788Z" fill="white"/>
<path d="M29.9631 2.70522C30.6316 3.08864 31.2774 3.51187 31.8964 3.97246C32.5187 3.50862 33.1669 3.07971 33.8379 2.68898C33.2083 2.32749 32.5601 1.99931 31.8964 1.70605C31.2352 2.00499 30.5894 2.33886 29.9631 2.70522Z" fill="white"/>
<path d="M26.9729 1.27531C27.6131 1.03161 28.267 0.825281 28.9307 0.657941C28.2857 0.486539 27.6326 0.348443 26.9729 0.243652C26.3052 0.347631 25.644 0.485727 24.9909 0.657941C25.6627 0.826093 26.3247 1.03243 26.9729 1.27531Z" fill="white"/>
<path d="M26.9739 37.7083C26.3256 37.9511 25.6636 38.1575 24.9918 38.3256C25.6368 38.497 26.2899 38.6351 26.9495 38.7399C27.6091 38.6351 28.2622 38.497 28.9072 38.3256C28.2517 38.1567 27.6059 37.9511 26.9739 37.7083Z" fill="white"/>
<path d="M22.043 1.70587C21.0844 1.27695 20.0934 0.92684 19.078 0.657959C18.4143 0.825299 17.7604 1.03163 17.1202 1.27533C18.1592 1.66362 19.1624 2.14209 20.1177 2.70503C20.7416 2.33867 21.3842 2.0048 22.043 1.70587Z" fill="white"/>
<path d="M25.0403 6.83984C25.6365 6.14205 26.2832 5.48731 26.9736 4.88212C26.0476 4.06411 25.0468 3.33545 23.9843 2.70508C23.3125 3.0885 22.6642 3.51172 22.0428 3.97231C23.1411 4.81876 24.1459 5.77975 25.0403 6.83984Z" fill="white"/>
<path d="M25.0403 32.144C24.1451 33.1984 23.1402 34.1538 22.0428 34.9953C22.6642 35.4616 23.3125 35.8897 23.9843 36.2788C25.0468 35.6484 26.0476 34.9198 26.9736 34.1018C26.2832 33.4966 25.6365 32.8418 25.0403 32.144Z" fill="white"/>
<path d="M28.9071 6.83984C28.1882 7.67411 27.5416 8.56848 26.9738 9.51241C30.6561 15.6528 30.6561 23.3228 26.9738 29.4633C27.5392 30.4112 28.1858 31.3081 28.9071 32.1439C35.1247 24.8549 35.1247 14.1289 28.9071 6.83984Z" fill="white"/>
<path d="M20.1177 36.2786C19.1633 36.8374 18.1633 37.3159 17.1284 37.7083C17.7685 37.952 18.4224 38.1583 19.0861 38.3256C20.0982 38.0568 21.0869 37.7058 22.043 37.2777C21.3842 36.9788 20.7416 36.6449 20.1177 36.2786Z" fill="white"/>
<path d="M28.9072 32.1438C28.1859 31.3079 27.5393 30.4111 26.9739 29.4631C26.4052 30.4095 25.7586 31.3063 25.0405 32.1438C25.6368 32.8416 26.2834 33.4964 26.9739 34.1015C27.6644 33.4964 28.311 32.8416 28.9072 32.1438Z" fill="white"/>
<path d="M25.0405 6.8398C25.757 7.6765 26.4036 8.57006 26.9739 9.51237C27.5417 8.56844 28.1883 7.67406 28.9072 6.8398C28.311 6.142 27.6644 5.48727 26.9739 4.88208C26.2834 5.48727 25.6368 6.142 25.0405 6.8398Z" fill="white"/>
<path d="M23.9844 2.70522C23.3548 2.33805 22.7074 2.00499 22.0429 1.70605C21.3841 2.00499 20.7416 2.33886 20.1177 2.70522C20.783 3.09108 21.4255 3.5143 22.0429 3.97246C22.6643 3.51187 23.3126 3.08864 23.9844 2.70522Z" fill="white"/>
<path d="M20.1177 36.2788C20.7416 36.6452 21.3841 36.9791 22.0429 37.278C22.7074 36.9791 23.3548 36.646 23.9844 36.2788C23.3126 35.8897 22.6643 35.4616 22.0429 34.9954C21.4255 35.4592 20.783 35.8873 20.1177 36.2788Z" fill="white"/>
<path d="M17.1194 1.27531C17.7595 1.03161 18.4135 0.825281 19.0771 0.657941C18.4322 0.487352 17.7782 0.349255 17.1194 0.243652C16.4574 0.348443 15.801 0.486539 15.1536 0.657941C15.8197 0.826906 16.4761 1.03324 17.1194 1.27531Z" fill="white"/>
<path d="M17.1194 37.7083C16.4761 37.9503 15.8197 38.1567 15.1536 38.3256C15.801 38.497 16.4574 38.6351 17.1194 38.7399C17.7782 38.6343 18.4322 38.4962 19.0771 38.3256C18.4135 38.1583 17.7595 37.952 17.1194 37.7083Z" fill="white"/>
<path d="M20.3696 19.496C20.3679 16.7706 20.9382 14.0753 22.043 11.5839C21.2786 9.86578 20.2688 8.26792 19.0455 6.83984C18.329 7.67411 17.6848 8.56848 17.1202 9.51241C20.7912 15.6561 20.7912 23.3196 17.1202 29.4633C17.6832 30.4112 18.3274 31.3081 19.0455 32.1439C20.2688 30.7159 21.2786 29.118 22.043 27.3999C20.939 24.911 20.3696 22.2189 20.3696 19.496Z" fill="white"/>
<path d="M15.1868 32.144C14.2891 33.196 13.2851 34.1513 12.1893 34.9953C12.8091 35.4592 13.4541 35.8881 14.1226 36.2788C15.1892 35.6509 16.1932 34.9214 17.1201 34.1018C16.4272 33.4982 15.7814 32.8443 15.1868 32.144Z" fill="white"/>
<path d="M15.1868 6.83984C15.7814 6.13961 16.4272 5.48569 17.1201 4.88212C16.1932 4.06248 15.1892 3.33301 14.1226 2.70508C13.4549 3.09094 12.8091 3.51416 12.1893 3.97231C13.2859 4.8212 14.29 5.78219 15.1868 6.83984Z" fill="white"/>
<path d="M22.0421 27.3998C24.2841 22.3658 24.2841 16.6178 22.0421 11.5837C19.8074 16.6194 19.8074 22.3642 22.0421 27.3998Z" fill="white"/>
<path d="M15.1864 6.8398C15.9028 7.6765 16.5494 8.57006 17.1197 9.51237C17.6843 8.56844 18.3284 7.67406 19.0449 6.8398C18.4511 6.142 17.8077 5.48727 17.1197 4.88208C16.4268 5.48564 15.781 6.13957 15.1864 6.8398Z" fill="white"/>
<path d="M19.0449 32.1438C18.3268 31.3079 17.6826 30.4111 17.1197 29.4631C16.5511 30.4095 15.9045 31.3063 15.1864 32.1438C15.781 32.8441 16.4268 33.498 17.1197 34.1015C17.8077 33.4964 18.4511 32.8416 19.0449 32.1438Z" fill="white"/>
<path d="M10.2473 36.2788C10.8768 36.646 11.5242 36.9791 12.1887 37.278C12.85 36.9791 13.4958 36.6452 14.1221 36.2788C13.4535 35.8881 12.8085 35.4592 12.1887 34.9954C11.5673 35.4616 10.9191 35.8897 10.2473 36.2788Z" fill="white"/>
<path d="M14.1221 2.70522C13.4958 2.33886 12.85 2.00499 12.1887 1.70605C11.5242 2.00499 10.8768 2.33805 10.2473 2.70522C10.9191 3.08864 11.5673 3.51187 12.1887 3.97246C12.8085 3.5143 13.4543 3.09108 14.1221 2.70522Z" fill="white"/>
<path d="M10.5079 19.496C10.5047 16.7698 11.0782 14.0736 12.1895 11.5839C11.4218 9.8674 10.4121 8.27036 9.19195 6.83984C8.47547 7.67654 7.82886 8.57011 7.25861 9.51241C10.9409 15.6528 10.9409 23.3228 7.2586 29.4633C7.82724 30.4096 8.47385 31.3064 9.19195 32.1439C10.4129 30.7134 11.4218 29.1164 12.1895 27.3999C11.079 24.9134 10.5055 22.2197 10.5079 19.496Z" fill="white"/>
<path d="M10.5071 19.496C10.5071 23.8613 11.2599 27.4 12.1886 27.4C13.1173 27.4 13.8701 23.8613 13.8701 19.496C13.8701 15.1308 13.1173 11.592 12.1886 11.592C11.2599 11.592 10.5071 15.1308 10.5071 19.496Z" fill="white"/>
<path d="M5.33283 6.8398C6.04687 7.6765 6.69024 8.57006 7.25806 9.51237C7.82832 8.57006 8.47493 7.6765 9.19141 6.8398C8.59516 6.142 7.94854 5.48727 7.25806 4.88208C6.56839 5.48564 5.92421 6.13957 5.33283 6.8398Z" fill="white"/>
<path d="M9.19141 32.1438C8.47331 31.3063 7.82669 30.4095 7.25806 29.4631C6.69268 30.4111 6.04607 31.3079 5.32472 32.1438C5.92097 32.8416 6.56758 33.4964 7.25806 34.1015C7.94854 33.4964 8.59516 32.8416 9.19141 32.1438Z" fill="white"/>
<path d="M0.653552 19.496C0.653552 23.8613 1.4064 27.4 2.33508 27.4C3.26376 27.4 4.0166 23.8613 4.0166 19.496C4.0166 15.1308 3.26376 11.592 2.33508 11.592C1.4064 11.592 0.653552 15.1308 0.653552 19.496Z" fill="white"/>
</svg>
