<svg width="62" height="42" viewBox="0 0 62 42" fill="none" xmlns="http://www.w3.org/2000/svg">
<path d="M61.9668 9.82119L61.9668 0.107167L51.3712 0.107167C56.9475 -0.0493776 61.6397 4.25231 61.9668 9.82119Z" fill="white"/>
<path d="M51.5605 9.21949L51.371 0.106934L42.6704 0.106933C47.4014 0.689445 51.095 4.47536 51.5605 9.21949Z" fill="white"/>
<path d="M0.057456 21.356C5.69802 21.2036 10.3944 25.6519 10.5468 31.2925C10.6712 35.8916 7.70591 40.0071 3.3037 41.3443L19.4196 41.3443C14.4299 40.6926 10.6671 36.489 10.5707 31.4573L20.779 31.2431L30.9792 31.0536C31.0665 36.1981 27.288 40.5937 22.188 41.2784L30.9462 41.2784C30.9462 40.9736 30.9462 40.6687 31.0039 40.3721C31.0418 40.012 31.0995 39.6545 31.1769 39.301C32.131 34.5478 36.2819 31.1112 41.1299 31.0618L31.0039 31.0618C31.0072 30.429 31.0649 29.7979 31.1769 29.175C31.9053 24.716 35.5313 21.2992 40.0258 20.8369C35.9721 20.4546 32.5323 17.7036 31.2676 13.8336C31.1596 13.5073 31.0715 13.1737 31.0039 12.8367C30.6908 11.3841 30.6908 9.88127 31.0039 8.4287C31.0723 8.08925 31.1604 7.75309 31.2676 7.42352C32.5306 3.48271 35.9614 0.629475 40.067 0.10711L31.2676 0.107109C31.2181 0.107109 31.1687 0.107109 31.1275 0.107109L31.0039 0.107109C28.2108 0.355109 25.5907 1.56298 23.5886 3.52638C19.2548 7.78605 19.3125 14.3197 23.704 18.1015C25.2842 19.4437 27.218 20.3022 29.2737 20.5733L11.1474 20.5733C16.3686 19.9702 20.3226 15.5713 20.3671 10.3155C20.3152 4.68481 15.7968 0.115348 10.167 -1.35343e-06L-0.000217438 -1.79785e-06L-0.000218371 21.356" fill="white"/>
<path d="M61.967 20.8535L61.967 10.6946C61.6325 16.0764 57.1759 20.2735 51.7834 20.285L51.5939 10.9253C51.2347 16.1893 47.0739 20.3954 41.814 20.8123C46.9593 21.441 50.7939 25.863 50.6876 31.0454L41.1383 31.0454C46.7402 31.1476 51.2412 35.6923 51.289 41.295L62 41.295L62 21.5209" fill="white"/>
</svg>