<svg width="46" height="46" viewBox="0 0 46 46" fill="none" xmlns="http://www.w3.org/2000/svg">
<g clip-path="url(#clip0_320_2946)">
<path d="M3.81713 0H1.97755V1.97755H0V3.81713H1.97755V5.80388H3.81713V3.81713H5.79469V1.97755H3.81713V0Z" fill="white"/>
<path d="M15.3418 5.80388H17.1814V3.81713H19.1589V1.97755H17.1814V0H15.3418V1.97755H13.3643V3.81713H15.3418V5.80388Z" fill="white"/>
<path d="M30.5461 0H28.7065V1.97755H26.7197V3.81713H28.7065V5.80388H30.5461V3.81713H32.5236V1.97755H30.5461V0Z" fill="white"/>
<path d="M43.9113 0H42.0717V1.97755H40.085V3.81713H42.0717V5.80388H43.9113V3.81713H45.8888V1.97755H43.9113V0Z" fill="white"/>
<path d="M3.81713 13.3555H1.97755V15.333H0V17.1726H1.97755V19.1594H3.81713V17.1726H5.79469V15.333H3.81713V13.3555Z" fill="white"/>
<path d="M15.3418 19.1594H17.1814V17.1726H19.1589V15.333H17.1814V13.3555H15.3418V15.333H13.3643V17.1726H15.3418V19.1594Z" fill="white"/>
<path d="M30.5461 13.3555H28.7065V15.333H26.7197V17.1726H28.7065V19.1594H30.5461V17.1726H32.5236V15.333H30.5461V13.3555Z" fill="white"/>
<path d="M43.9113 13.3555H42.0717V15.333H40.085V17.1726H42.0717V19.1594H43.9113V17.1726H45.8888V15.333H43.9113V13.3555Z" fill="white"/>
<path d="M3.81713 26.7107H1.97755V28.6882H0V30.5278H1.97755V32.5146H3.81713V30.5278H5.79469V28.6882H3.81713V26.7107Z" fill="white"/>
<path d="M15.3418 32.5146H17.1814V30.5278H19.1589V28.6882H17.1814V26.7107H15.3418V28.6882H13.3643V30.5278H15.3418V32.5146Z" fill="white"/>
<path d="M30.5461 26.7107H28.7065V28.6882H26.7197V30.5278H28.7065V32.5146H30.5461V30.5278H32.5236V28.6882H30.5461V26.7107Z" fill="white"/>
<path d="M43.9113 26.7107H42.0717V28.6882H40.085V30.5278H42.0717V32.5146H43.9113V30.5278H45.8888V28.6882H43.9113V26.7107Z" fill="white"/>
<path d="M3.81713 40.0662H1.97755V42.0437H0V43.8833H1.97755V45.87H3.81713V43.8833H5.79469V42.0437H3.81713V40.0662Z" fill="white"/>
<path d="M15.3418 45.87H17.1814V43.8833H19.1589V42.0437H17.1814V40.0662H15.3418V42.0437H13.3643V43.8833H15.3418V45.87Z" fill="white"/>
<path d="M30.5461 40.0662H28.7065V42.0437H26.7197V43.8833H28.7065V45.87H30.5461V43.8833H32.5236V42.0437H30.5461V40.0662Z" fill="white"/>
<path d="M43.9113 40.0662H42.0717V42.0437H40.085V43.8833H42.0717V45.87H43.9113V43.8833H45.8888V42.0437H43.9113V40.0662Z" fill="white"/>
</g>
<defs>
<clipPath id="clip0_320_2946">
<rect width="45.8884" height="45.87" fill="white"/>
</clipPath>
</defs>
</svg>