<svg width="46" height="53" viewBox="0 0 46 53" fill="none" xmlns="http://www.w3.org/2000/svg">
<path d="M31.3702 3.32C29.2942 5.86 28.1602 9.04 28.1602 12.32V23.7C32.5592 21.165 35.2732 16.477 35.2802 11.4V0C33.7882 0.864 32.4642 1.988 31.3702 3.32Z" fill="white"/>
<path d="M25.4305 23.69C25.4275 18.62 22.7215 13.935 18.3305 11.4L8.48047 5.70996C8.47647 10.788 11.1835 15.481 15.5805 18.02L25.4305 23.69Z" fill="white"/>
<path d="M18.3203 40.7299V52.1099C22.7143 49.5679 25.4203 44.8769 25.4203 39.7999V28.3999C21.0193 30.9449 18.3133 35.6459 18.3203 40.7299Z" fill="white"/>
<path d="M24.07 26.05C19.667 23.51 14.243 23.51 9.84 26.05L0 31.74C4.403 34.28 9.827 34.28 14.23 31.74L24.07 26.05Z" fill="white"/>
<path d="M28.1602 35.0501L38.0202 29.4001C41.8762 27.1681 44.4662 23.2611 45.0202 18.8401V17.1401L35.2802 22.7701C30.8862 25.3001 28.1722 29.9801 28.1602 35.0501Z" fill="white"/>
<path d="M28.1602 46.4L38.0102 40.72C41.8682 38.49 44.4592 34.582 45.0102 30.16V28.46L35.2702 34.09C30.8692 36.626 28.1582 41.32 28.1602 46.4Z" fill="white"/>
</svg>
