<svg width="86" height="37" viewBox="0 0 86 37" fill="none" xmlns="http://www.w3.org/2000/svg">
<path d="M22.1238 19.3965C22.6348 19.3965 23.0492 18.9821 23.0492 18.4711C23.0492 17.9602 22.6348 17.5458 22.1238 17.5458L10.2759 17.5458C9.765 17.5458 9.35059 17.9602 9.35059 18.4711C9.35059 18.9821 9.765 19.3965 10.2759 19.3965L22.1238 19.3965Z" fill="white"/>
<path d="M6.8493 18.4756C6.87409 17.9868 6.49776 17.5715 6.00896 17.5467C5.99391 17.5458 5.97886 17.5458 5.9638 17.5458L0.925341 17.5458C0.414411 17.5458 -6.27814e-08 17.9602 -4.0448e-08 18.4711C-1.81145e-08 18.9821 0.414411 19.3965 0.925341 19.3965L5.92838 19.3965C6.41718 19.3965 6.81388 18.9998 6.81388 18.511" fill="white"/>
<path d="M14.9961 14.2871C14.9961 14.7759 15.3928 15.1726 15.8816 15.1726L27.7295 15.1726C28.2378 15.1726 28.6504 14.76 28.6504 14.2517C28.6504 13.7434 28.2378 13.3308 27.7295 13.3308L15.9259 13.3308C15.4371 13.3308 15.0404 13.7275 15.0404 14.2163" fill="white"/>
<path d="M5.64551 14.2871C5.64551 14.7759 6.04221 15.1726 6.531 15.1726L11.5252 15.1726C12.0335 15.1726 12.4461 14.76 12.4461 14.2517C12.4461 13.7434 12.0335 13.3308 11.5252 13.3308L6.57528 13.3308C6.08648 13.3308 5.68978 13.7275 5.68978 14.2163" fill="white"/>
<path d="M20.6455 10.0632C20.6455 10.552 21.0422 10.9487 21.531 10.9487L33.3878 10.9487C33.896 10.9487 34.3087 10.5361 34.3087 10.0278C34.3087 9.51954 33.896 9.1069 33.3878 9.1069L21.5664 9.1069C21.0776 9.1069 20.6809 9.5036 20.6809 9.9924" fill="white"/>
<path d="M11.2939 10.0632C11.2939 10.552 11.6906 10.9487 12.1794 10.9487L17.1825 10.9487C17.6908 10.9487 18.1034 10.5361 18.1034 10.0278C18.1034 9.51954 17.6908 9.1069 17.1825 9.1069L12.2149 9.1069C11.7261 9.1069 11.3294 9.5036 11.3294 9.9924" fill="white"/>
<path d="M26.2949 5.91016C26.2949 6.39895 26.6916 6.79565 27.1804 6.79565L57.8716 6.79565C58.3826 6.79565 58.797 6.38124 58.797 5.87031C58.797 5.35938 58.3826 4.94497 57.8716 4.94497L27.2158 4.94497C26.727 4.94497 26.3303 5.34167 26.3303 5.83047" fill="white"/>
<path d="M16.9434 5.91016C16.9434 6.39895 17.3401 6.79565 17.8289 6.79565L22.8319 6.79565C23.3428 6.79565 23.7572 6.38124 23.7572 5.87031C23.7572 5.35938 23.3428 4.94497 22.8319 4.94497L17.8908 4.94497C17.402 4.94497 17.0053 5.34167 17.0053 5.83047" fill="white"/>
<path d="M28.6503 22.6725C28.6503 22.1837 28.2536 21.787 27.7648 21.787L15.8726 21.787C15.3617 21.787 14.9473 22.2014 14.9473 22.7124C14.9473 23.2233 15.3617 23.6377 15.8726 23.6377L27.7294 23.6377C28.2182 23.6377 28.6149 23.241 28.6149 22.7522" fill="white"/>
<path d="M12.445 22.6725C12.445 22.1837 12.0483 21.787 11.5595 21.787L6.52104 21.787C6.01011 21.787 5.5957 22.2014 5.5957 22.7124C5.5957 23.2233 6.01011 23.6377 6.52104 23.6377L11.5241 23.6377C12.0129 23.6377 12.4096 23.241 12.4096 22.7522" fill="white"/>
<path d="M34.2908 26.8876C34.2908 26.3988 33.8941 26.0021 33.4054 26.0021L21.522 26.0021C21.0111 26.0021 20.5967 26.4165 20.5967 26.9274C20.5967 27.4384 21.0111 27.8528 21.522 27.8528L33.3699 27.8528C33.8587 27.8528 34.2554 27.4561 34.2554 26.9673" fill="white"/>
<path d="M18.0954 26.8876C18.0954 26.3988 17.6987 26.0021 17.2099 26.0021L12.1714 26.0021C11.6605 26.0021 11.2461 26.4165 11.2461 26.9274C11.2461 27.4384 11.6605 27.8528 12.1714 27.8528L17.1745 27.8528C17.6633 27.8528 18.06 27.4561 18.06 26.9673" fill="white"/>
<path d="M23.7439 31.0407C23.7439 30.5519 23.3472 30.1552 22.8584 30.1552L17.8111 30.1552C17.3002 30.1552 16.8857 30.5696 16.8857 31.0805C16.8857 31.5914 17.3002 32.0059 17.8111 32.0059L22.8141 32.0059C23.3029 32.0067 23.7005 31.6109 23.7005 31.1212C23.7005 31.1062 23.7005 31.0911 23.6996 31.0761" fill="white"/>
<path d="M36.0879 36.1145C36.0879 36.6033 36.4846 37 36.9734 37L48.8833 37C49.3942 37 49.8086 36.5856 49.8086 36.0747C49.8086 35.5637 49.3942 35.1493 48.8833 35.1493L37.0088 35.1493C36.52 35.1493 36.1233 35.546 36.1233 36.0348" fill="white"/>
<path d="M36.0881 1.53605C36.0633 2.02484 36.4396 2.44014 36.9284 2.46494C36.9435 2.46582 36.9585 2.46582 36.9736 2.46582L48.8835 2.46582C49.3944 2.46582 49.8088 2.05141 49.8088 1.54048C49.8088 1.02955 49.3944 0.615137 48.8835 0.615137L37.009 0.615137C36.5202 0.615137 36.1235 1.01184 36.1235 1.50063" fill="white"/>
<path d="M74.7932 19.405C75.3015 19.405 75.7142 18.9924 75.7142 18.4841C75.7142 17.9758 75.3015 17.5632 74.7932 17.5632L62.9453 17.5632C62.4371 17.5632 62.0244 17.9758 62.0244 18.4841C62.0244 18.9924 62.4371 19.405 62.9453 19.405L74.7932 19.405Z" fill="white"/>
<path d="M84.1437 19.405C84.652 19.405 85.0646 18.9924 85.0646 18.4841C85.0646 17.9758 84.652 17.5632 84.1437 17.5632L79.1406 17.5632C78.6324 17.5632 78.2197 17.9758 78.2197 18.4841C78.2197 18.9924 78.6324 19.405 79.1406 19.405L84.1437 19.405Z" fill="white"/>
<path d="M70.0741 22.6728C70.075 22.184 69.6792 21.7864 69.1895 21.7864C69.1745 21.7864 69.1594 21.7864 69.1443 21.7873L57.2964 21.7873C56.7855 21.7873 56.3711 22.2017 56.3711 22.7127C56.3711 23.2236 56.7855 23.638 57.2964 23.638L69.1443 23.638C69.6331 23.6628 70.0484 23.2865 70.0732 22.7977C70.0741 22.7826 70.0741 22.7676 70.0741 22.7525" fill="white"/>
<path d="M79.4245 22.6728C79.4254 22.184 79.0296 21.7864 78.5399 21.7864C78.5248 21.7864 78.5098 21.7864 78.4947 21.7873L73.5005 21.7873C72.9896 21.7873 72.5752 22.2017 72.5752 22.7127C72.5752 23.2236 72.9896 23.638 73.5005 23.638L78.4947 23.638C78.9835 23.6628 79.3988 23.2865 79.4236 22.7977C79.4245 22.7826 79.4245 22.7676 79.4245 22.7525" fill="white"/>
<path d="M64.4237 26.8876C64.4237 26.3988 64.027 26.0021 63.5382 26.0021L51.646 26.0021C51.1351 26.0021 50.7207 26.4165 50.7207 26.9274C50.7207 27.4384 51.1351 27.8528 51.646 27.8528L63.5028 27.8528C63.9916 27.8528 64.3883 27.4561 64.3883 26.9673" fill="white"/>
<path d="M73.7748 26.8876C73.7748 26.3988 73.3781 26.0021 72.8893 26.0021L67.8863 26.0021C67.3753 26.0021 66.9609 26.4165 66.9609 26.9274C66.9609 27.4384 67.3753 27.8528 67.8863 27.8528L72.8893 27.8528C73.3781 27.8528 73.7748 27.4561 73.7748 26.9673" fill="white"/>
<path d="M58.7748 31.0407C58.7748 30.5519 58.3781 30.1552 57.8893 30.1552L27.1626 30.1552C26.6517 30.1552 26.2373 30.5696 26.2373 31.0805C26.2373 31.5914 26.6517 32.0059 27.1626 32.0059L57.8539 32.0059C58.3427 32.0067 58.7403 31.6109 58.7403 31.1212C58.7403 31.1062 58.7403 31.0911 58.7394 31.0761" fill="white"/>
<path d="M68.1348 31.0407C68.1357 30.5519 67.7398 30.1544 67.2502 30.1544C67.2351 30.1544 67.2201 30.1544 67.205 30.1552L62.1666 30.1552C61.6556 30.1552 61.2412 30.5696 61.2412 31.0806C61.2412 31.5915 61.6556 32.0059 62.1666 32.0059L67.1696 32.0059C67.6584 32.0307 68.0746 31.6553 68.0994 31.1674C68.1011 31.1372 68.1011 31.1071 68.0994 31.0762" fill="white"/>
<path d="M56.4189 14.2871C56.4189 14.7759 56.8156 15.1726 57.3044 15.1726L69.1612 15.1726C69.6695 15.1726 70.0821 14.76 70.0821 14.2517C70.0821 13.7434 69.6695 13.3308 69.1612 13.3308L57.3399 13.3308C56.8511 13.3308 56.4544 13.7275 56.4544 14.2163" fill="white"/>
<path d="M72.624 14.2871C72.624 14.7759 73.0207 15.1726 73.5095 15.1726L78.5126 15.1726C79.0208 15.1726 79.4335 14.76 79.4335 14.2517C79.4335 13.7434 79.0208 13.3308 78.5126 13.3308L73.5095 13.3308C73.0207 13.3308 72.624 13.7275 72.624 14.2163" fill="white"/>
<path d="M50.7793 10.0632C50.7793 10.552 51.176 10.9487 51.6648 10.9487L63.5127 10.9487C64.021 10.9487 64.4336 10.5361 64.4336 10.0278C64.4336 9.51954 64.021 9.1069 63.5127 9.1069L51.7002 9.1069C51.2114 9.1069 50.8147 9.5036 50.8147 9.9924" fill="white"/>
<path d="M66.9746 10.0632C66.9746 10.552 67.3713 10.9487 67.8601 10.9487L72.8631 10.9487C73.3714 10.9487 73.7841 10.5361 73.7841 10.0278C73.7841 9.51954 73.3714 9.1069 72.8631 9.1069L67.8601 9.1069C67.3713 9.1069 66.9746 9.5036 66.9746 9.9924" fill="white"/>
<path d="M61.3252 5.91016C61.3252 6.39895 61.7219 6.79565 62.2107 6.79565L67.2137 6.79565C67.7247 6.79565 68.1391 6.38124 68.1391 5.87031C68.1391 5.35938 67.7247 4.94497 67.2137 4.94497L62.255 4.94497C61.7662 4.94497 61.3695 5.34167 61.3695 5.83047" fill="white"/>
<path d="M42.1895 26.8877C42.1895 27.303 42.5268 27.6404 42.9421 27.6404C43.3574 27.6404 43.6948 27.303 43.6948 26.8877C43.6948 26.4724 43.3574 26.135 42.9421 26.135C42.5268 26.135 42.1895 26.4724 42.1895 26.8877Z" fill="white"/>
<path d="M43.686 10.0632C43.686 9.64795 43.3486 9.31058 42.9333 9.31058C42.518 9.31058 42.1807 9.64795 42.1807 10.0632C42.1807 10.4785 42.518 10.8159 42.9333 10.8159C42.936 10.8159 42.9395 10.8159 42.9422 10.8159C43.3548 10.8115 43.686 10.4759 43.686 10.0632Z" fill="white"/>
</svg>
