<svg xmlns="http://www.w3.org/2000/svg" viewBox="0 0 850.1 155.63">
  <path fill="white" d="M508.12,12.41c11.94,3.59,25.75,2.35,36-3.21A21.94,21.94,0,0,0,553.2.53H494.56C496.76,5.39,501.05,9.83,508.12,12.41Z"/>
  <path fill="white" d="M98.54,55.24c-15.71,19.86,6.35,44.05-6,64.57-2.28,3.79-5.71,7.36-8.38,11.06a11.42,11.42,0,0,0-3.56,7.75C81.71,144,96,148.71,104.11,150.29c10,2.28,20.94,1,29.26-3.48,10.28-7,3.3-17.31-1.58-25.94-10.47-20.54-8.21-43.19,6.28-62.5C152,38.53,175.13,21.19,201.59,6.17c3.23-2,6.56-3.84,10-5.64H177c-21.34,13-41.4,26.78-61.27,40.48A77.53,77.53,0,0,0,98.54,55.24Z"/>
  <path fill="white" d="M453,40.53C462.28,51.87,478,60,496.39,62.77a116.36,116.36,0,0,0,58.26-4.89,110.8,110.8,0,0,0,26.83-15.64C598.05,29.71,612.75,15.53,617.94.53H581.52a38.31,38.31,0,0,1-2.39,4.8C572.37,19,557.62,34.1,532.57,35.59c-18.6.46-36.31-5.55-47.2-16A45,45,0,0,1,475,5.91,46.36,46.36,0,0,1,472.89.53H435.6C446.22,12.42,443.57,28,453,40.53Z"/>
  <path fill="white" d="M54.81,154.13c5.36-7.38,13.53-14.12,18.64-21.64,20.43-30.09-20.2-66.34,5-95.23C93.71,19.74,127.68,11.19,157.11.53H16.6V59.38c9.61,3.15,16.27,9.86,16.3,17.7S26.28,91.53,16.6,94.65v59.48Z"/>
  <path fill="white" d="M357.78,85.53c.44-1.46,1-2.91,1.47-4.35a4,4,0,0,1-2.4-5.33,4.26,4.26,0,0,1,4-2.58h1.69c4.56-10.14,10.17-20.16,12.86-30.51a55.7,55.7,0,0,0-1.47-32.33A16.66,16.66,0,0,0,366.83.88c-.2-.13-.42-.23-.63-.35H267.77a164.7,164.7,0,0,0-25,5.81,166,166,0,0,0-41.95,21.49,419,419,0,0,0-45.44,34.8c-12.11,10.7-23.54,23-19,35.5,3.69,10.71,18.29,19.07,25.39,29.16,5.9,8.65,6.37,18.24,2.19,26.84h33.09c1-1.34,2-2.7,2.92-4.07,14-22,13.45-46.07,21.64-69S250.73,34.15,289.51,26a46.84,46.84,0,0,1,20.77-.54C325.52,29.46,321,42.19,314.54,51c-24.15,32.57-43.37,69.14-32.47,103.17h87.42a104.5,104.5,0,0,1-4.9-9.75A85.35,85.35,0,0,1,357.78,85.53Z"/>
  <path fill="white" d="M270.31,106.25A97.53,97.53,0,0,1,286,73.83a11.32,11.32,0,0,0,3.56-9.25C288,61,282.45,59,277.31,60.16h0a11.25,11.25,0,0,0-4.73,2.91c-26.43,24.59-19.64,55.86-33.08,83.7-1.46,2.43-2.81,4.88-4,7.36h34.35A118.43,118.43,0,0,1,270.31,106.25Z"/>
  <path fill="white" d="M457.13,153.06a63.54,63.54,0,0,0-3-19.91c-2.67-8.11-7-16.48-3.23-24.49,3.5-6.51,10.26-11.91,19-15.24,6.32-2.89,15.62-5.33,15.45-10.84s-13.2-6.92-21.13-8.37c-17-3-42.32-8.54-57.1,0h6.7a4.22,4.22,0,0,1,4.29,4.1,4.16,4.16,0,0,1-4.19,4.1h-14A29.85,29.85,0,0,0,398.34,93c-.38,19.08-.5,38.72,11.8,56.52a26.44,26.44,0,0,0,4.55,5.64h42.4A9.57,9.57,0,0,0,457.13,153.06Z"/>
  <path fill="white" d="M681.3,68.88C709.08,50.4,717,24.77,710.88.53h-53a61.34,61.34,0,0,1-1.3,10.87c-5.78,27-30.9,52.37-68.47,69.2C553,96.41,504.24,107.47,492.88,132c-3.22,7.07-2.94,14.63-2.62,22.09h42.25A33.41,33.41,0,0,1,536,143C553.56,106.67,638.21,97.53,681.3,68.88Z"/>
</svg>