<svg version="1.1" id="Layer_1" xmlns="http://www.w3.org/2000/svg" viewBox="0 0 43.2 42.5">

<g id="Artwork">
	<g>
		<path class="st0" d="M32.7,34.9L32.7,34.9"/>
		<path class="st0" d="M39.5,40.7L39.5,40.7L39.5,40.7L39.5,40.7"/>
		<polygon class="st0" points="36.1,38 36.1,38 36.1,38 36.1,38 		"/>
		<path class="st0" d="M27.6,7.9L27.6,7.9L27.6,7.9"/>
		<polyline class="st0" points="25.6,4.1 25.6,4.1 25.6,4.1 25.6,4.1 25.6,4.1 		"/>
		<polyline class="st0" points="26.1,5 26.1,5 26.1,5 26.1,5 26.1,5 		"/>
		<polyline class="st0" points="24.6,1.5 24.6,1.5 24.6,1.5 24.6,1.5 24.6,1.5 		"/>
		<polyline class="st0" points="36.1,32.5 36.1,32.5 36.2,32.5 36.2,32.5 36.1,32.5 		"/>
		<path class="st0" d="M40.6,39.6L40.6,39.6L40.6,39.6L40.6,39.6 M36.5,32.2L36.5,32.2C36.5,32.3,36.5,32.3,36.5,32.2L36.5,32.2
			l-0.1,0.1c-0.1,0-0.2,0.2-0.3,0.2s-0.1,0.2-0.2,0.1c0-0.1,0.1-0.1,0.2-0.1C36.2,32.3,36.3,32.3,36.5,32.2L36.5,32.2
			C36.5,32.2,36.5,32.2,36.5,32.2L36.5,32.2c0-0.1,0.1-0.1,0.1-0.1h0.1C36.7,32.2,36.7,32.2,36.5,32.2 M33.7,34.1L33.7,34.1
			L33.7,34.1C33.7,34.1,33.7,34.1,33.7,34.1L33.7,34.1C33.7,34.1,33.7,34.1,33.7,34.1L33.7,34.1C33.7,34.1,33.7,34.1,33.7,34.1
			 M33.1,34.9C33.1,34.9,33,35,33.1,34.9c-0.2-0.2-0.4,0-0.5,0c0,0.1-0.1,0.1-0.2,0.2c-0.1,0-0.5,0.1-0.6,0.4
			c-0.1,0.3-0.3,0.2-0.5,0.3c0-0.1,0-0.2,0.1-0.2c0.1,0,0.2-0.1,0.3-0.2c0.3-0.2,0.5-0.4,0.9-0.5c0.1-0.1,0.2-0.1,0.4-0.2l0.1-0.1
			c0,0,0-0.1,0.1-0.1c0.1-0.1,0.2-0.1,0.2,0.1L33.1,34.9 M29.6,36.3C29.5,36.3,29.5,36.3,29.6,36.3l0.5-0.3l0.9-0.4
			c0.1,0,0.1-0.1,0.1,0C30.6,35.9,30.1,36.2,29.6,36.3 M27.5,36c-0.1,0-0.2,0-0.3-0.1s-0.1-0.3-0.1-0.5c0-0.1,0-0.1,0-0.1
			c-0.3-0.3-0.1-0.6,0-0.9c0,0.2,0,0.4,0,0.7c0.1,0,0.2-0.2,0.3-0.1C27.4,35.3,27.6,35.7,27.5,36 M17.6,12.8c0,0.6,0.1,1.1,0.1,1.7
			l0,0l0,0l0,0l0,0h0l0,0c-0.1-0.6-0.1-1.2-0.2-1.8C17.5,12.7,17.6,12.7,17.6,12.8 M18.6,27c-0.1-0.3-0.1-0.6-0.1-0.8
			C18.7,26.4,18.7,26.7,18.6,27 M18.7,27.6c0,0.1-0.1,0-0.1,0c-0.1-0.2-0.1-0.3-0.1-0.5c0,0,0.1,0,0.1,0
			C18.7,27.3,18.7,27.4,18.7,27.6 M18.7,28.7c-0.1,0-0.1,0.1-0.1,0.1h-0.1c0-0.3,0-0.7,0-1C18.7,28.1,18.7,28.4,18.7,28.7 M15.1,4.3
			c-0.1,0-0.1-0.1-0.1-0.1c-0.1-0.2-0.2-0.3-0.3-0.4h-0.1l0,0V3.6c0-0.1-0.1-0.2-0.2-0.3c0-0.1,0-0.2-0.2-0.1l0,0c0,0,0-0.1,0-0.1
			c-0.1-0.2-0.3-0.3-0.5-0.4V2.5c0.1-0.2,0.2-0.1,0.3,0c0.2,0.1,0.3,0.2,0.5,0.3c0,0,0.1,0,0.1,0c0-0.2-0.3-0.2-0.3-0.4
			c0.3-0.2,0.3-0.1,0.7,0.3c0.1-0.1,0-0.2,0.1-0.3c0.1,0.3,0.3,0.5,0.5,0.5C15.4,3.4,15.2,3.9,15.1,4.3 M8.8,12.6c0,0.1,0,0.1,0,0.2
			c-0.2-0.4-0.3-0.8-0.3-1.2C8.7,11.9,8.6,12.2,8.8,12.6C8.8,12.5,8.8,12.6,8.8,12.6 M6.5,2.7C6.5,2.7,6.6,2.7,6.5,2.7
			c0,0.1,0.1,0.1,0,0.1C6.4,2.8,6.5,2.7,6.5,2.7C6.5,2.7,6.5,2.7,6.5,2.7 M27.5,28.5c0-0.1,0-0.2,0.1-0.2c0,0.3,0,0.6-0.1,1h-0.1
			c0,0,0-0.1,0-0.1c0-0.3,0-0.3-0.2-0.4C27.5,28.8,27.6,28.7,27.5,28.5 M27.6,8.4c0.1,0,0.1,0.1,0,0.2C27.6,8.5,27.6,8.4,27.6,8.4
			 M28.7,24.5c0.2,0,0.1,0.2,0.1,0.2C28.6,24.8,28.8,24.6,28.7,24.5 M28.9,23.6c0,0,0,0.1,0,0.1c0,0,0,0.1,0,0.1
			c-0.1,0-0.1,0-0.1-0.1C28.8,23.7,28.8,23.6,28.9,23.6 M29,23.8c0.1,0.2,0.1,0.3,0,0.4s-0.1,0.1-0.2,0.1c-0.1-0.1-0.1-0.1,0-0.1
			S28.8,23.9,29,23.8 M29,23.5c0,0,0-0.1,0-0.1C29.1,23.3,29.1,23.4,29,23.5C29.1,23.4,29.1,23.4,29,23.5c0.1,0,0.2,0.1,0.1,0.1
			c0,0,0,0-0.1,0C29,23.5,29,23.5,29,23.5 M27.2,31.9c0-0.1,0-0.1,0-0.2l0,0l0,0l0,0c0.1,0.1,0,0.4-0.1,0.6l0,0c0.1,0.1,0,0.3,0,0.4
			c0,0,0,0.1,0,0.1c0,0,0-0.1,0-0.1c0-0.1-0.1-0.3,0-0.4l0,0c-0.1,0-0.2-0.1-0.3-0.2C26.9,32,26.9,31.8,27.2,31.9 M27.3,31.5
			C27.3,31.5,27.4,31.5,27.3,31.5c0.1,0.1,0.1,0.1,0,0.1C27.3,31.6,27.2,31.6,27.3,31.5C27.2,31.5,27.3,31.5,27.3,31.5
			C27.3,31.5,27.3,31.5,27.3,31.5 M42.8,29.6c-0.2,0,0-0.2-0.1-0.2c-0.1,0-0.2,0.2-0.3,0.1s0-0.2-0.1-0.3c-0.1-0.1-0.2,0.2-0.4,0.1
			c0,0.2-0.2,0.2-0.2,0.3c0,0.1-0.1,0-0.1-0.1c0-0.1,0.2-0.2,0.3-0.2l0.1-0.2c-0.5,0.2-0.9,0.6-1.4,0.7c0.1-0.3,0.4-0.5,0.6-0.7
			c-0.5,0.1-0.9,0.3-1.3,0.5c-0.1,0.1-0.3,0.1-0.4,0.1c0-0.1,0.2-0.2,0.1-0.4c-0.1,0-0.2,0.1-0.3,0.2c-0.3,0.1-0.6,0-0.8-0.1
			c-0.2-0.1-0.4-0.2-0.7-0.2c-0.2-0.1-0.4-0.2-0.6-0.2c-0.1,0-0.2-0.1-0.3-0.1c-0.5-0.2-1-0.3-1.4-0.5c-0.8-0.3-1.6-0.4-2.4-0.4
			c-0.4,0-0.8,0-1,0.4c0,0-0.1,0-0.1,0c-0.2,0-0.3,0.1-0.2,0.4c0,0.1,0,0.2-0.1,0.2c-0.1,0.1-0.2,0.2-0.2,0.3c0,0.2,0.2,0.4,0.4,0.4
			c0.2,0,0.4,0.1,0.4,0.4c0,0.1,0.1,0.2,0.2,0.2c0.1,0,0.2,0.1,0.4,0.2c0.1,0,0.2,0.1,0.1,0.2c-0.1,0.1,0.1,0.1,0.1,0.1
			c0.3,0.1,0.5,0.2,0.6,0.5c0,0,0.1,0.1,0.2,0.1c0.3,0.1,0.6,0.2,0.9,0.2c0,0,0.1,0,0.1,0c0.5,0.1,1,0.1,1.5,0.1
			c0.1,0,0.2,0,0.3,0.1c-0.3,0.2-0.7,0.5-1,0.7c-0.3,0.3-0.7,0.4-1,0.7c0.1,0,0.3-0.1,0.4-0.1c0.2-0.2,0.5-0.3,0.8-0.4
			c-0.1,0.1-0.1,0.2-0.2,0.2c-0.3,0.2-0.6,0.4-0.9,0.6c-0.2,0.1-0.4,0.2-0.6,0.3c-0.1,0-0.1,0.1-0.2,0c0-0.1-0.2-0.1-0.3,0
			c-0.1,0.1-0.3,0.2-0.3,0.4c0,0-0.1,0.1-0.1,0.1l-0.1,0.1c-0.1,0-0.1,0-0.2,0.1c-0.3,0,0.1-0.2-0.1-0.2c-0.1,0-0.2,0.1-0.3,0.2
			c-0.2,0.2-0.5,0.3-0.8,0.4c-0.4,0.1-0.7,0.3-1,0.5c-0.1,0-0.2,0-0.2,0.1c-0.2,0.1-0.4,0.1-0.6,0.2c-0.4,0.1-0.9,0.2-1.3,0.3
			c0-0.1-0.2-0.2-0.1-0.4c0.1-0.2,0-0.5,0-0.7c-0.1,0.1-0.1,0.2-0.1,0.3c0,0.3-0.1,0.6-0.2,0.8c-0.1,0-0.2,0-0.3-0.1
			c0-0.3,0-0.6,0-0.9c0.1-0.1,0.1,0.1,0.2,0.1c-0.3-0.5,0-0.9,0-1.4l0.1,0.2c0.1-0.4,0.1-0.9,0.2-1.3c-0.3,0.3,0,0.7-0.2,1
			c-0.2-0.2,0-0.4-0.1-0.5c0,0.3-0.1,0.5,0,0.7c0,0.1,0,0.2,0,0.2s-0.1,0.4-0.2,0.6c-0.1,0.2,0,0.1-0.2,0.2c0-0.3,0-0.7,0-1
			c-0.2,0-0.1,0.1-0.1,0.2c0,0.1,0.1,0.3-0.1,0.5c0.1-0.2,0.1-0.5,0-0.8c0,0.3-0.1,0.5-0.1,0.7C27,34.8,27,35.1,27,35.4
			c-0.1,0.1-0.2,0.1-0.2,0c0-0.2,0-0.4,0-0.6c0-0.1,0-0.1,0-0.2c0.1-0.2,0.2-0.5,0.2-0.7c0-0.3,0.1-0.5,0.1-0.8c0.1,0.3,0,0.5,0,0.8
			c0.1-0.2,0.1-0.3,0.1-0.4s0.2-0.1,0.2-0.1c0.1,0.2,0.1,0,0.2-0.1c-0.1-0.2,0.1-0.5,0-0.7c0-0.1,0.1-0.1,0-0.2
			c-0.2-0.2-0.2-0.5-0.1-0.7c0,0,0-0.1,0-0.1c0-0.2,0-0.5,0.1-0.7c0,0,0-0.1-0.1-0.1c-0.1,0,0.1,0.3-0.1,0.3c-0.1,0-0.2,0.2-0.3,0.4
			c-0.2-0.1,0-0.3-0.2-0.3c-0.1,0.2-0.1,0.4,0,0.6c-0.1-0.1-0.2-0.3-0.1-0.5c0.1-0.4,0.1-0.9,0.2-1.3c0-0.3,0.1-0.6,0.1-0.8
			c0.2,0.2,0,0.4,0.1,0.5l0.2-0.1c0,0.2,0,0.4,0,0.6c-0.1,0.5-0.1,0.5,0,0.7c0-0.2,0-0.3,0.2-0.4c0-0.1,0-0.1,0-0.2v-0.1
			c0.1-0.2,0.1-0.3,0.2-0.5c0-0.2,0.1-0.3,0.3-0.4c0.1,0.1,0,0.2,0.1,0.3c0-0.2,0-0.3,0.2-0.4c-0.3-0.1-0.3-0.1-0.3-0.3
			c0,0,0,0.2-0.1,0.1v-0.4c0.1-0.3,0.2-0.6,0.2-0.9c0.1-0.1,0-0.2,0-0.3c0-0.1-0.1-0.1-0.1-0.2c0.1-0.1,0-0.3,0.1-0.4
			c0,0,0,0.1,0.1,0.1c0.1-0.3,0.1-0.6,0.2-0.8c0-0.2,0-0.4,0.1-0.4s0.2-0.2,0.1-0.3c0,0,0-0.3,0-0.5c0.1,0,0.1,0,0.1,0.1
			c0,0.1,0,0.2,0.1,0.3c0-0.2,0-0.4,0.1-0.6l-0.2-0.1v-0.1c0-0.1,0.1-0.3,0.1-0.4c0-0.1,0.1,0.1,0.2,0.1c0.1-0.6,0.2-1.2,0.3-1.9
			c-0.2,0.2,0,0.4-0.2,0.5c0-0.1,0-0.2,0-0.3c0-0.1-0.1-0.1-0.2-0.1c0-0.3,0.1-0.6,0.2-0.9c0-0.3,0-0.5,0.1-0.7
			c0.1-0.2,0.1-0.5,0.1-0.7c0-0.1,0-0.2,0-0.3c0.1-0.5,0-0.9,0.1-1.4c0.1-0.1,0.2,0,0.2,0.1c0,0.1,0,0.2,0,0.3
			c0.1-0.3,0.1-0.6,0-0.9c-0.1,0.1,0,0.2-0.2,0.3c-0.2,0-0.1,0-0.1,0s0-0.1,0-0.1c0-0.2-0.1-0.4,0-0.6c0-0.1,0-0.3-0.1-0.4
			c0-0.2,0-0.5-0.1-0.7c0.1-0.1,0.2-0.1,0.1-0.2c-0.1-0.1,0-0.2,0-0.4c0-0.1,0-0.1,0-0.1v-0.1c0-0.2,0-0.5,0-0.8
			c0-0.1,0.1-0.2,0.1-0.3l0,0l0,0c0,0-0.1,0,0,0s0,0,0,0l0,0l0,0c0.2,0.3,0.2,0.7,0.1,1.1c0,0.2,0,0.2,0.2,0.2c0,0,0-0.1,0-0.1
			c-0.1-0.5,0-0.9-0.1-1.4c-0.1-0.5-0.1-0.9-0.1-1.3c0-0.3-0.1-0.5-0.1-0.8s-0.1-0.2-0.2-0.2c0.1,0.4,0.1,0.7,0,1.1
			c0-0.2-0.1-0.3-0.1-0.5c0-0.4-0.1-0.7-0.2-1.1c0-0.1-0.2,0-0.2-0.1s0.1,0,0.2,0c0-0.1,0-0.1,0-0.2c0,0,0,0,0,0c0,0,0-0.1,0-0.1
			c0-0.3-0.2-0.6-0.2-1l0,0c-0.1-0.2-0.2-0.4-0.2-0.6c-0.1,0,0-0.3-0.2-0.2c-0.2,0,0-0.1,0-0.1c0.1-0.2,0-0.3-0.1-0.4
			c-0.1-0.1,0-0.2,0-0.3s-0.1-0.1-0.1-0.2c0-0.1-0.1-0.3-0.2-0.4c0,0.1,0.1,0.2,0,0.3c-0.1-0.2-0.2-0.3-0.2-0.5c0.1,0,0.1,0,0.2,0
			c-0.1-0.2-0.1-0.5-0.4-0.7C27,7,27,6.9,26.9,6.8c-0.2-0.4-0.3-0.8-0.6-1.2c-0.1-0.2-0.2-0.4-0.2-0.6C26,5,26,4.8,26,4.7
			c-0.1,0-0.1-0.1-0.1-0.1c-0.2-0.1-0.3-0.3-0.3-0.5l0,0l0,0c0,0,0,0,0,0.1h0.1c0,0,0,0.1,0.1,0.1s0-0.1,0-0.1c0,0,0-0.1-0.1-0.1
			c-0.4-0.5-0.8-1-1.3-1.5c-0.1-0.1-0.2-0.2-0.2-0.4c0-0.2-0.2-0.1-0.2-0.2c-0.2,0.1-0.3-0.1-0.4-0.2c-0.1,0-0.1-0.2-0.1-0.3
			s0.2,0.1,0.3,0.1c0.1,0,0-0.2,0.1-0.3l0.5,0.2c0.1,0.1,0.2,0.2,0.3,0.2C24.8,2,25,2.2,25.2,2.3c0-0.2-0.1-0.2-0.2-0.3
			C25,1.9,24.9,1.9,25,1.8c0-0.1-0.2-0.1-0.3-0.1l-0.1-0.2l-0.3-0.1V1.3c0.1,0.1,0.2,0.2,0.3,0.3c0.2,0,0.3,0,0.4,0.2
			c0.2,0,0.3,0.1,0.4,0.2c0.1,0.1,0.2,0.2,0.3,0.2c-0.2-0.2-0.4-0.4-0.6-0.6c-0.6-0.4-1.3-0.8-2-1.1c-0.3-0.1-0.7-0.3-1-0.4
			c-0.3-0.1-0.7-0.1-1,0.1c-0.2,0.1-0.4,0.1-0.5,0.1c-0.1,0-0.2,0-0.3,0c-0.1,0.1-0.3,0.1-0.4,0c-0.3-0.1-0.5-0.1-0.8,0.1l0,0
			c0,0,0-0.2,0-0.3c-0.2,0-0.5,0-0.7,0.1c-0.2,0.1-0.4,0.2-0.5,0.3c-0.2,0.1-0.3,0.3-0.3,0.5c-0.1,0-0.1,0.1-0.2,0.1
			c-0.1,0-0.3,0.1-0.3,0.3c0,0,0,0.1-0.1,0.1c-0.3,0.2-0.4,0.6-0.7,0.7c-0.1,0-0.1,0.2-0.2,0.2c-0.2,0.2-0.4,0.3-0.6,0.4
			c0,0,0-0.1,0-0.1c-0.2-0.2-0.4-0.5-0.6-0.7c-0.3-0.2-0.4-0.5-0.8-0.6S13.5,1,13.1,0.9c0.1-0.1,0.2,0,0.3-0.1
			c-0.1-0.1-0.3-0.1-0.5-0.2c-0.4-0.1-0.9-0.2-1.3-0.1c-0.3,0-0.5,0.1-0.7,0.3c-0.2,0.1-0.3,0.2-0.4,0.3v0.1c0,0-0.1,0-0.1,0l0,0
			h-0.1c-0.1,0-0.1,0.1-0.2,0.1c-0.1,0-0.1,0.1-0.1,0.1l0,0C9.7,1.6,9.5,1.8,9.4,2C8.8,3.1,8.4,4.2,8.1,5.4C7.9,6,7.7,6.5,7.6,7.1
			C7.5,7.1,7.5,7,7.4,7c0.1,0.2,0.1,0.4,0.1,0.7c0,0.1,0,0.2-0.1,0.3L6.9,6.8c0-0.1,0-0.2,0-0.3l0,0l0,0l0,0l0,0l0,0
			C7,6.5,7,6.7,7.1,6.7c0.1,0,0,0.1,0.1,0.1c0.1,0,0,0.1,0.1,0.1c0.1,0,0-0.1,0-0.1l0,0c0-0.1,0-0.1-0.1-0.2L6.4,5L6.4,5.2
			C6.2,4.9,6.1,4.7,6,4.4C5.8,4,5.5,3.6,5.2,3.3c0,0,0-0.1-0.1-0.1c0-0.1-0.1-0.2,0-0.3c0.2,0.1,0.4,0.3,0.6,0.5
			c0,0.1,0.1,0.2,0.2,0.2c0,0.1,0,0.3,0.1,0.3c0-0.1,0-0.3-0.1-0.3s0-0.1,0.1-0.2c0.1,0,0,0.1,0.1,0.1c0,0.2,0.1,0.3,0.2,0.4
			c0-0.2,0-0.4-0.3-0.5c0-0.1,0-0.1-0.1-0.1C5.8,3.1,5.5,2.8,5.1,2.6C5,2.6,4.9,2.5,4.9,2.4c0-0.1,0.1-0.1,0.1-0.1h0.2
			c0,0.1,0.1,0.1,0.2,0.1l0.1,0.1c0.3,0.3,0.6,0.5,0.9,0.7c0.1,0,0.2-0.1,0.3-0.2c0.3,0.3,0.6,0.6,0.8,1c0,0,0,0,0-0.1
			c-0.3-0.5-0.6-1-1-1.4C6.5,2.3,6.3,2.1,6,2C6,1.9,6,1.9,5.9,1.9C5.8,1.8,5.7,1.7,5.5,1.6C5.1,1.3,4.6,1.1,4,1.2
			c-0.4,0-0.7,0.1-1.1,0.2C2.6,1.4,2.3,1.5,2,1.8C1.7,2.1,1.4,2.5,1.2,3C0.9,3.4,0.7,3.8,0.6,4.3C0.5,4.9,0.3,5.4,0.3,6
			c0,0.3,0,0.6,0.1,0.9C0.5,7,0.5,7.2,0.6,7.4c0,0.3,0.3,0.5,0.7,0.5c0,0,0.1,0,0.1,0C1.6,7.8,2,7.6,2.2,7.3
			c0.1-0.1,0.1-0.1,0.1-0.2c0-0.4,0.2-0.7,0.4-1C2.7,6,2.7,6,2.8,6c0.6,0.4,1.1,0.8,1.4,1.4c0.5,0.7,0.9,1.5,1.2,2.3
			c0.3,0.7,0.5,1.5,0.6,2.3c0.1,0.2,0.1,0.4,0.1,0.6c0,0.2,0,0.5,0,0.7c0.1,1.5,0,3-0.3,4.5c-0.3,1.5-0.5,3.1-0.7,4.6
			c-0.2,1.3-0.3,2.7-0.4,4c-0.1,0.7-0.2,1.5-0.3,2.2c-0.1,0.4-0.1,0.9,0.1,1.4c0.1,0.2,0.2,0.3,0.3,0.5c0.2,0.2,0.5,0.3,0.8,0.4
			C6,31,6.5,31.1,6.7,30.6c0,0,0,0,0.1,0c0.1,0,0.2,0.2,0.3,0.2c0.2-0.1,0.3-0.2,0.3-0.4c0.2-0.1,0.1-0.4,0.4-0.5
			C7.9,30,8.1,30.1,8.3,30c0.2-0.1,0.4-0.2,0.6-0.4c0.1-0.3,0.2-0.5,0.3-0.8c0.2-0.3,0.2-0.7,0.2-1.1c0-0.1,0-0.2,0-0.3
			c0-0.1,0-0.1,0-0.1c0.2-0.2,0.2-0.5,0-0.7c0,0,0,0,0,0c-0.1-0.1-0.1-0.3-0.1-0.4c0-0.1,0-0.2,0.1-0.3c0.2-0.1,0.2-0.2,0.1-0.4
			c0.2-0.1,0.1-0.3,0.1-0.4c0-0.1,0-0.2,0-0.2c0-0.2,0-0.4,0-0.7l-0.1,0.4c0-0.4,0-0.9,0-1.3c0,0,0,0,0,0.1c0,0,0,0.1,0.1,0.1
			c0.1-0.3,0.1-0.3,0-0.5c0,0,0-0.1,0-0.1c0,0,0.1-0.2,0.1-0.4c0-0.4,0-0.7,0-1.1c0-0.4,0-0.7,0-1.1c0-0.7,0-1.4-0.1-2
			c0,0,0.1-0.1,0.1,0c0,0.2,0.1,0.3,0.2,0.5c0,0.1,0,0.2,0,0.3c-0.2,0.2-0.1,0.4,0,0.6c0.1,0.2,0,0.1,0,0.2s0,0,0,0.1
			c0.1,0.3,0.1,0.3,0.1,0.5c0,0.1,0,0.2,0.1,0.3c0-0.2,0-0.3,0-0.4c0-0.4-0.1-0.7-0.1-1.1c0-1.3-0.1-2.7-0.3-4
			C9.4,14,9.2,12.9,9,11.8c0-0.1,0-0.3-0.2-0.3c0.1-0.2,0.3-0.4,0.5-0.6c0.1,0.1,0.2,0.1,0.4,0c-0.1-0.5-0.2-1-0.1-1.4
			c0.1,0.1,0,0.2,0.1,0.3c-0.1-0.3,0-0.7-0.1-1c0-0.2,0-0.3,0-0.5C9.8,7.6,10,7,10.2,6.4c0.1-0.4,0.3-0.7,0.5-1
			c0.3-0.5,1-0.6,1.5-0.3c0,0,0,0,0,0c0.7,0.5,1.2,1.1,1.5,1.8c0.4,0.9,0.7,1.8,0.9,2.7c0.1,0.5,0.2,1.1,0.3,1.7
			c0.1,1.1,0.1,2.1,0,3.2c0,0.8-0.1,1.6-0.1,2.4c-0.1,0.6-0.1,1.2-0.1,1.8c-0.1,0.9-0.1,1.9-0.2,2.8c0,0.6-0.1,1.1-0.2,1.7
			c-0.1,0.7-0.2,1.4-0.3,2.1c-0.2,1.5-0.3,2.9-0.7,4.4c-0.1,0.4-0.1,0.9,0,1.3c0.1,0.2,0.1,0.4,0.1,0.6c0,0.4,0.2,0.8,0.5,1
			c0.6,0.4,1.4,0.4,2-0.1c0.1,0,0.2,0,0.3-0.1c0.2,0,0.3-0.1,0.3-0.2c0.1-0.2,0.2-0.4,0.3-0.5c0.1-0.1,0.3-0.2,0.5-0.2
			c0.2,0,0.3,0,0.4-0.1c0.2-0.4,0.6-0.7,0.6-1.1c0-0.2,0.3-0.4,0.1-0.7c0,0,0,0,0-0.1c0.2-0.2,0.2-0.5,0.3-0.7
			c-0.2-0.3-0.2-0.6-0.1-0.9c0-0.1,0-0.2,0-0.3c-0.1-0.7-0.2-1.5-0.2-2.3c0-0.2,0-0.4-0.1-0.5c0,0.2,0,0.4,0,0.5
			c0,0.2,0.1,0.4-0.1,0.6c0-1-0.1-2-0.1-3h0c-0.1,0.2,0,0.5,0,0.8c0,0.3,0.1,0.5-0.2,0.8c0-0.2,0-0.4,0-0.7c0-0.1,0-0.2,0-0.4
			c-0.1-0.3-0.1-0.7-0.1-1c0-0.6,0-1.1,0-1.7c0-0.4-0.1-0.8-0.1-1.3c0-0.9,0-1.8-0.1-2.7c0,0,0.1,0,0.1,0c0,0.2,0.2,0.1,0.2,0.2
			c0.1,0.1,0.1,0.2-0.1,0.3c-0.2,0-0.1,0.1-0.1,0.2v0.9c0.3-0.1,0.4-0.2,0.4-0.5s0-0.8-0.1-1.2c-0.2-0.1-0.3,0-0.4,0
			c0-0.3,0-0.7-0.1-1c0.2,0.1,0.3,0.2,0.3,0.4l0,0c0,0,0.1,0,0.1,0s0,0,0,0.1c0,0,0-0.1,0-0.1l0,0c-0.1,0-0.1,0.1-0.1,0.2
			c0,0.2,0,0.2,0.3,0.2c0-0.2-0.1-0.5-0.1-0.7c0-0.5-0.1-1-0.1-1.5c0-0.1,0-0.2-0.1-0.3c0-0.3,0-0.7-0.1-1s-0.2-0.6-0.1-0.9
			c0-0.1,0-0.1,0-0.2s-0.1-0.4-0.1-0.7l0.8-0.4c0.2-0.1,0.2-0.2,0.2-0.3s0-0.2,0.1-0.2c-0.2-0.3-0.4-0.5-0.6-0.8
			C18,9.3,17.9,9,17.7,8.8l0,0c0,0,0,0,0,0c0,0,0-0.1,0-0.1c-0.2-0.4-0.2-0.9-0.1-1.4C17.7,6.8,17.8,6.4,18,6
			c0.2-0.6,0.6-1.1,1.1-1.4c0.6-0.4,1.2-0.7,1.8-1c0.2-0.1,0.4-0.1,0.6,0c0.3,0.1,0.7,0.3,1,0.5c0.8,0.5,1.4,1.1,1.9,1.8
			c0.3,0.4,0.6,0.8,0.8,1.3c0.3,0.6,0.5,1.3,0.6,2c0.2,0.5,0.2,1,0.3,1.6c0,0.8,0,1.6,0,2.5c0,0.1,0,0.2,0,0.3c0,0,0,0,0,0.1v0.2
			c0,0.2,0,0.4-0.1,0.7v0.2c0,0.2,0,0.4-0.1,0.6c-0.2,1.1-0.3,2.1-0.5,3.2c-0.2,0.9-0.4,1.7-0.6,2.6c-0.3,1.4-0.6,2.8-0.9,4.1
			s-0.5,2.6-0.6,3.8c-0.1,1-0.3,2.1-0.4,3.1c-0.1,0.7-0.2,1.4-0.3,2.1c0,0.6-0.1,1.2-0.2,1.8c-0.1,0.3-0.1,0.7-0.1,1
			c-0.2,1.1-0.3,2.2-0.3,3.4c-0.1,0.6,0.2,1.3,0.6,1.7c0.1,0.1,0.2,0.3,0.3,0.3c0.4,0,0.7,0.1,1.1,0.1c0.9,0.1,1.7,0,2.6-0.1
			c0.7-0.1,1.4-0.2,2.1-0.4c0.7-0.1,1.3-0.3,1.9-0.6c0.1-0.1,0.3-0.1,0.4-0.1c0.3-0.1,0.6-0.2,0.8-0.5c0.1-0.1,0.2-0.1,0.3-0.2
			c0.2-0.1,0.4-0.2,0.7-0.3c0.2-0.1,0.4-0.2,0.5-0.4c0.2-0.2,0.4-0.3,0.7-0.4c0.6-0.3,1.2-0.7,1.8-1.1c0.2-0.1,0.3-0.3,0.6-0.3
			c0-0.2,0.1-0.2,0.2-0.1c0-0.2,0.1-0.2,0.2-0.1c0.1,0,0.1-0.2,0.2-0.2c0.1,0,0.2-0.2,0.4-0.3c0.1-0.1,0.4-0.3,0.7-0.5v0.7
			c0,0.3,0,0.7,0,1c0,0.1,0,0.2,0,0.3c-0.1,0.6-0.1,1.3-0.2,2c0.2-0.1,0.2-0.2,0.3-0.3c0.1-0.1,0.1,0.2,0.1,0.4
			c0.1,0,0.1-0.1,0.2-0.1c0.1,0,0,0.2,0.1,0.2c0.2,0,0.3-0.1,0.4-0.3c0-0.1,0.1-0.3,0.3-0.2c0.2,0,0,0.2,0,0.2
			c0,0.1,0.1,0.2,0.3,0.2c0,0,0.1,0,0.1,0c0-0.1,0-0.1,0.1-0.1c0.1,0,0,0.1,0,0.1c0,0-0.1,0-0.1,0c0.1,0.1,0,0.2,0,0.2
			s0.3-0.1,0.2-0.3c0,0,0.1-0.1,0.1-0.1l0.2-0.1c0.1,0,0,0.2,0.2,0.1c0.1-0.3,0.3-0.6,0.5-0.8c0.1-0.1,0.1-0.1,0.1-0.2v-0.1
			c-0.2,0-0.1-0.2-0.2-0.3c0-0.1,0-0.2,0-0.2c0.2-0.3,0.3-0.7,0.2-1.1c0-0.6,0-1.3,0-1.9c-0.1-1.1,0-2.1,0.3-3.2
			c0-0.1,0.1-0.2,0.1-0.3c0.2-0.2,0.3-0.5,0.3-0.7h-0.1c0-0.1,0-0.1,0.1-0.2c0.1,0,0.2-0.2,0.2-0.3c0,0,0.1,0,0.1-0.1
			c0.2-0.2,0.4-0.4,0.5-0.6c0,0,0-0.1,0-0.1c0-0.1,0-0.3,0.1-0.5C42.6,29.9,42.7,29.8,42.8,29.6"/>
		<polyline class="st0" points="42,29.3 42,29.3 42,29.3 42,29.3 42,29.3 		"/>
		<path class="st0" d="M29.7,12.9C29.7,12.9,29.7,12.9,29.7,12.9c0.1,0,0.1-0.1,0.2,0c0,0,0,0.1,0,0.1c0,0,0,0,0,0
			c0,0.2,0.3,0.3,0.1,0.5v0.1c0.1,0.2,0.1,0.2,0,0.5s0,0.4,0,0.4c0,0,0.2,0.1,0.1,0.2C30,14.8,30,15,30,15.2h0.2
			c-0.1-1.1-0.3-2.2-0.5-3.3c-0.1,0.1-0.1,0.3,0,0.4C29.8,12.4,29.8,12.7,29.7,12.9"/>
		<path class="st0" d="M19.3,27c0-0.2,0-0.4,0-0.6s-0.1-0.2-0.2-0.2c0,0.3,0.1,0.6,0.1,0.9c0.1,0.3,0,0.5,0,0.8c0,0.3-0.1,0.6,0,0.9
			c0,0,0.1,0,0.1,0s0.1-0.3,0.2-0.4c0-0.1,0-0.2,0-0.3C19.4,27.7,19.3,27.3,19.3,27"/>
		<path class="st0" d="M18.3,21.9c-0.1,0-0.1,0-0.1-0.1c0-0.1,0-0.2,0.1-0.1C18.5,21.8,18.4,21.9,18.3,21.9 M18.5,20.7
			C18.5,20.7,18.5,20.7,18.5,20.7c-0.1,0.2-0.1,0.5-0.1,0.7L18.3,21c0-0.2,0-0.3,0-0.5c-0.2,0.2-0.2,0.2-0.1,0.5c0,0.3,0,0.7,0,1
			c0,0.3,0,0.6,0,0.8c0,0.1,0,0.3,0.2,0.3c0.1-0.1,0-0.2,0-0.3c-0.1-0.3-0.1-0.5,0-0.8c0.1,0.1,0.1,0.2,0.1,0.3c0,0.3,0,0.6,0,0.9
			c0.2-0.4,0-0.8,0.1-1.1c-0.1-0.4,0-0.9-0.1-1.4"/>
		<path class="st0" d="M29.3,10.8C29.3,10.8,29.3,10.8,29.3,10.8c0.2,0.2,0.1,0.4,0.2,0.6c0.1,0.2,0,0.1,0.1,0.2
			c-0.1-0.9-0.3-1.7-0.8-2.5c-0.1,0.1,0,0.2,0,0.3C29.1,9.8,29.3,10.3,29.3,10.8"/>
		<path class="st0" d="M18.8,17.6c0-0.1,0.1-0.1,0.1-0.1c0-0.6-0.1-1.1-0.1-1.7c0-0.2-0.1-0.3-0.3-0.3c0.2,0.1,0.2,0.1,0.2,0.3
			c0,0.2,0,0.2,0.1,0.4c0.1,0.2,0.1,0.5,0,0.7c0,0-0.1,0,0,0s0.1,0.1,0.1,0.2S18.8,17.4,18.8,17.6"/>
		<path class="st0" d="M19,21.9c0,0.1,0.1,0.2,0.1,0.3c0-0.6,0-1.2-0.1-1.7c0,0.4,0,0.9,0,1.3c-0.1-0.2-0.2-0.6-0.1-0.6
			c0.1,0,0,0,0,0s0,0.2,0,0.4S19,21.8,19,21.9"/>
		<path class="st0" d="M41.4,34.1C41.4,34.1,41.4,34.1,41.4,34.1c-0.1,0.6-0.1,1.2,0,1.8L41.4,34.1L41.4,34.1"/>
		<path class="st0" d="M9.6,27.5c0.3-0.3,0.3-0.7,0.1-1C9.5,26.9,9.6,27.2,9.6,27.5"/>
		<path class="st0" d="M26.6,3l-0.7-0.7c0,0-0.1,0-0.1,0l0.9,0.9C26.6,3.1,26.6,3,26.6,3"/>
		<path class="st0" d="M28.3,9.6c0.3,0.1,0.3,0.3,0.2,0.6c0.1,0,0.1,0,0.2-0.1c-0.1-0.4-0.2-0.8-0.4-1.1C28.3,9.2,28.3,9.4,28.3,9.6
			"/>
		<path class="st0" d="M28.3,9L28.3,9L28.3,9L28.3,9L28.3,9"/>
		<polyline class="st0" points="28.3,9.6 28.3,9.6 28.3,9.6 28.3,9.6 28.3,9.6 		"/>
		<path class="st0" d="M9.7,26.1c0.2-0.3,0.3-0.7,0.1-1.1C9.7,25.3,9.7,25.7,9.7,26.1"/>
		<path class="st0" d="M14.4,1.3c-0.6-0.4-0.8-0.4-1-0.3C13.8,1,14,1.3,14.4,1.3"/>
		<path class="st0" d="M6.3,4.2c0.1,0.4,0.3,0.7,0.5,1.1C6.7,4.9,6.5,4.5,6.3,4.2L6.3,4.2"/>
		<path class="st0" d="M28.1,8.6c0.1,0.1,0,0.3,0.2,0.4c-0.1-0.3-0.2-0.7-0.3-1c0,0.2,0.1,0.4,0,0.5C28.1,8.5,28.1,8.5,28.1,8.6"/>
		<path class="st0" d="M27.9,8.5L27.9,8.5L27.9,8.5"/>
		<path class="st0" d="M29.6,20.2c-0.1,0.4-0.2,0.9-0.1,1.3C29.4,21.1,29.6,20.7,29.6,20.2"/>
		<path class="st0" d="M26,4.7c0.1,0,0.1,0.1,0.2,0.2c0,0.1,0.1,0.1,0.2,0.1c-0.1-0.2-0.2-0.4-0.2-0.7c-0.1,0.1-0.2,0.1-0.2,0.2
			C25.9,4.7,26,4.7,26,4.7"/>
		<polyline class="st0" points="25.9,4.6 25.9,4.6 25.9,4.6 25.9,4.6 25.9,4.6 		"/>
		<polyline class="st0" points="26,4.7 26,4.7 26,4.7 26,4.7 26,4.7 		"/>
		<path class="st0" d="M18.2,18.5c-0.2,0.3-0.2,0.7,0,1C18.2,19.2,18.2,18.9,18.2,18.5"/>
		<path class="st0" d="M25,1.8L25,1.8"/>
		<path class="st0" d="M28.6,33.4c0-0.3,0.2-0.5,0.1-0.8C28.5,32.8,28.5,33.1,28.6,33.4"/>
		<path class="st0" d="M28.8,10.5c0,0.3,0,0.6,0.1,0.9C29,11.1,28.9,10.8,28.8,10.5"/>
		<path class="st0" d="M29.4,22.2c0.2-0.4,0.2-0.4,0.1-0.6c-0.1,0.1,0,0.2-0.1,0.3C29.2,22.1,29.3,22.1,29.4,22.2"/>
		<path class="st0" d="M27.1,31c0-0.2,0.2-0.4,0-0.7C27,30.5,27,30.7,27.1,31"/>
		<path class="st0" d="M29.6,19.6c0.1-0.1,0.1-0.3,0.1-0.5C29.5,19.3,29.6,19.5,29.6,19.6"/>
		<polyline class="st0" points="27,3.5 27,3.5 26.9,3.5 26.9,3.5 27,3.5 		"/>
		<path class="st0" d="M27.2,3.8c0-0.1-0.1-0.3-0.2-0.3C27,3.7,27.1,3.8,27.2,3.8"/>
		<path class="st0" d="M6.9,5.7c0-0.1,0-0.3-0.1-0.3C6.8,5.5,6.9,5.6,6.9,5.7"/>
		<path class="st0" d="M26.6,3.1L26.6,3.1"/>
		<path class="st0" d="M26.9,3.3c0-0.1-0.1-0.2-0.2-0.2C26.6,3.2,26.7,3.3,26.9,3.3"/>
		<path class="st0" d="M40.8,39.5c0-0.2,0-0.3,0-0.5C40.8,39.2,40.8,39.3,40.8,39.5"/>
		<polygon class="st0" points="36.5,37.7 36.5,37.7 36.5,37.7 36.5,37.7 		"/>
		<path class="st0" d="M29.2,21.5c0,0.1,0,0.1,0,0.2C29.2,21.6,29.2,21.6,29.2,21.5c0,0,0-0.1,0-0.1C29.2,21.5,29.2,21.5,29.2,21.5"
			/>
		<polyline class="st0" points="36.2,38 36.2,38 36.2,38 36.2,38 36.2,38 		"/>
		<polyline class="st0" points="36.3,37.8 36.3,37.8 36.3,37.8 36.3,37.8 36.3,37.8 		"/>
		<path class="st0" d="M27.6,7.9c0,0,0-0.1-0.1-0.1C27.5,7.8,27.6,7.9,27.6,7.9"/>
		<path class="st0" d="M27.6,7.8L27.6,7.8"/>
		<path class="st0" d="M27.9,7.9L27.9,7.9L27.9,7.9L27.9,7.9L27.9,7.9"/>
		<path class="st0" d="M29.8,13.8L29.8,13.8L29.8,13.8L29.8,13.8"/>
		<path class="st0" d="M28.3,27.6C28.3,27.6,28.3,27.7,28.3,27.6C28.3,27.7,28.4,27.7,28.3,27.6C28.4,27.6,28.4,27.6,28.3,27.6
			L28.3,27.6"/>
		<path class="st0" d="M26.9,3.5L26.9,3.5L26.9,3.5C26.9,3.4,26.9,3.4,26.9,3.5"/>
		<path class="st0" d="M26.4,5.1L26.4,5.1C26.4,5.1,26.4,5.1,26.4,5.1"/>
		<polyline class="st0" points="26.3,5 26.3,5 26.3,5 26.3,5 26.3,5 		"/>
		<polyline class="st0" points="41.6,31.7 41.6,31.7 41.6,31.7 41.6,31.7 41.6,31.7 		"/>
		<path class="st0" d="M14.8,3.1c0,0.2,0.2,0.3,0.4,0.3C15.1,3.3,15.1,3,14.8,3.1"/>
		<polyline class="st0" points="14.8,3.1 14.8,3.1 14.8,3.1 14.8,3.1 14.8,3.1 		"/>
		<path class="st0" d="M14.7,2.9L14.7,2.9c-0.1,0-0.1,0.1,0,0.1S14.8,2.9,14.7,2.9"/>
	</g>
</g>
</svg>
