<svg version="1.1" id="Layer_1" xmlns="http://www.w3.org/2000/svg" viewBox="0 0 37.4 38.2" >

<g id="Artwork">
	<g>
		<path class="st0" d="M19,15.4c-0.3,0-0.6-0.2-0.8-0.4c-0.1-0.1-0.3-0.2-0.5-0.2c-0.3,0-0.5,0.2-0.7,0.4c-0.3,0.5-0.6,0.6-0.9,0.6
			c-0.1,0-0.3,0-0.4,0c-0.3-0.1-0.5,0-0.7,0.2c-0.1,0.2-0.2,0.4-0.2,0.6c0.1,0.5-0.2,1-0.7,1.1c0,0,0,0-0.1,0
			c-0.2,0.1-0.4,0.2-0.5,0.4c-0.1,0.2-0.1,0.5,0.1,0.7c0.3,0.4,0.3,1-0.1,1.4c0,0,0,0,0,0c-0.2,0.2-0.2,0.4-0.2,0.6
			c0,0.2,0.2,0.4,0.4,0.6c0.5,0.2,0.8,0.8,0.6,1.3c0,0,0,0,0,0c-0.1,0.2,0,0.5,0.1,0.7c0.1,0.2,0.4,0.3,0.6,0.3l0,0
			c0.5-0.1,1,0.2,1.1,0.7c0,0,0,0,0,0.1c0.1,0.3,0.4,0.6,0.7,0.6c0.2,0,0.3,0,0.4-0.1c0.2-0.1,0.4-0.2,0.6-0.2
			c0.3,0,0.6,0.2,0.8,0.4c0.1,0.1,0.3,0.2,0.5,0.2c0.3,0,0.5-0.2,0.7-0.4c0.3-0.5,0.6-0.6,0.9-0.6c0.1,0,0.3,0,0.4,0
			c0.4,0.1,0.8-0.1,0.9-0.5c0-0.1,0-0.2,0-0.3c-0.1-0.5,0.2-1,0.7-1.1c0,0,0,0,0.1,0c0.4-0.1,0.6-0.5,0.5-0.8c0-0.1-0.1-0.2-0.1-0.3
			c-0.3-0.4-0.3-1,0.1-1.4c0,0,0,0,0,0c0.2-0.2,0.2-0.4,0.2-0.6c0-0.2-0.2-0.4-0.4-0.6c-0.5-0.2-0.8-0.8-0.6-1.3c0,0,0,0,0,0
			c0.1-0.4-0.1-0.8-0.5-0.9c-0.1,0-0.2,0-0.3,0l0,0c-0.5,0.1-1-0.2-1.1-0.7c0,0,0-0.1,0-0.1c-0.1-0.3-0.4-0.6-0.7-0.6
			c-0.2,0-0.3,0-0.4,0.1C19.5,15.3,19.3,15.4,19,15.4"/>
		<path class="st0" d="M19.8,9.9c0,0.2,0.1,0.5,0.4,0.5c1.3,0.2,2.6,0.7,3.7,1.5c-0.1,0.3-0.2,0.6-0.2,0.9c0,1.1,0.9,2,2,2
			c1.1,0,2-0.9,2-2c0-1.1-0.9-2-2-2c-0.4,0-0.9,0.1-1.2,0.4c-1.2-0.8-2.7-1.4-4.2-1.7C20.1,9.5,19.9,9.7,19.8,9.9
			C19.8,9.9,19.8,9.9,19.8,9.9"/>
		<path class="st0" d="M10.5,14.6c0.1,0,0.3-0.1,0.4-0.2c1.2-1.7,2.9-3,4.8-3.7c0.2-0.1,0.4-0.3,0.3-0.6c-0.1-0.2-0.3-0.4-0.5-0.3
			c0,0,0,0,0,0c-2.1,0.7-4,2.1-5.3,4c-0.1,0.2-0.1,0.5,0.1,0.6C10.4,14.6,10.5,14.6,10.5,14.6"/>
		<path class="st0" d="M9.3,16.9c-0.2-0.1-0.5,0.1-0.5,0.3c-0.2,0.8-0.3,1.7-0.3,2.6c0,0.8,0.1,1.6,0.3,2.3c0,0.2,0.2,0.3,0.4,0.3
			h0.1c0.2,0,0.4-0.3,0.4-0.5c0,0,0-0.1,0-0.1c-0.2-0.7-0.2-1.4-0.2-2.1c0-0.8,0.1-1.6,0.3-2.3C9.6,17.1,9.5,16.9,9.3,16.9"/>
		<path class="st0" d="M26.7,24.8c-1.1,1.7-2.7,3-4.6,3.7c-0.2,0.1-0.3,0.3-0.3,0.6c0.1,0.2,0.2,0.3,0.4,0.3c0.1,0,0.1,0,0.2,0
			c2.1-0.8,3.8-2.2,5-4.1c0.1-0.2,0.1-0.5-0.1-0.6C27.1,24.5,26.8,24.6,26.7,24.8C26.7,24.8,26.7,24.8,26.7,24.8"/>
		<path class="st0" d="M28,23.1h0.1c0.2,0,0.4-0.1,0.4-0.3c0.3-1,0.4-2,0.4-3.1c0-1.5-0.3-3.1-1-4.5C28,15,27.7,14.9,27.5,15
			c-0.2,0.1-0.4,0.3-0.3,0.6c0,0,0,0.1,0,0.1c0.6,1.3,0.9,2.7,0.9,4.1c0,1-0.1,1.9-0.4,2.8C27.7,22.8,27.8,23,28,23.1"/>
		<path class="st0" d="M29.6,29.4c0.3,0.1,0.6,0.2,1,0.2c1.3,0,2.4-1.1,2.4-2.4c0-1.3-1.1-2.4-2.4-2.4c-1.3,0-2.4,1.1-2.4,2.4
			c0,0,0,0,0,0c0,0.6,0.2,1.2,0.6,1.6c-5,5.6-13.6,6.1-19.3,1.1C6.7,27.3,5,23.6,5,19.7c0-0.3,0-0.6,0-1c0-0.2-0.2-0.5-0.4-0.5
			c-0.2,0-0.5,0.2-0.5,0.4c0,0,0,0,0,0c0,0.3,0,0.7,0,1c0,8,6.5,14.5,14.6,14.5C22.8,34.2,26.8,32.4,29.6,29.4"/>
		<path class="st0" d="M32.2,23.7h0.1c0.2,0,0.4-0.1,0.4-0.3c0.7-2.8,0.6-5.7-0.3-8.4c-0.1-0.2-0.3-0.4-0.6-0.3
			c-0.2,0.1-0.4,0.3-0.3,0.6c0.5,1.4,0.7,2.9,0.7,4.4c0,1.2-0.1,2.3-0.4,3.4C31.9,23.4,32,23.6,32.2,23.7"/>
		<path class="st0" d="M31,13.2c0.1,0,0.1,0,0.2,0c0.2-0.1,0.3-0.4,0.2-0.6c-2-3.6-5.4-6.1-9.4-7c-0.2-0.1-0.5,0.1-0.5,0.3
			c0,0,0,0,0,0c-0.1,0.2,0.1,0.5,0.3,0.5c0,0,0,0,0,0c3.8,0.9,7,3.2,8.9,6.6C30.7,13.1,30.9,13.2,31,13.2"/>
		<path class="st0" d="M17.6,5.2c-4.3,0.3-8.3,2.6-10.8,6.2c-1.4-0.5-3,0.2-3.6,1.6s0.2,3,1.6,3.6c1.4,0.5,3-0.2,3.6-1.6
			c0.4-1.1,0.1-2.4-0.9-3.1c2.3-3.3,6-5.4,10.1-5.7c0.2,0,0.4-0.2,0.4-0.4c0,0,0,0,0,0C18.1,5.4,17.9,5.2,17.6,5.2"/>
		<path class="st0" d="M3.2,9.6c-0.1,0.2-0.1,0.5,0.1,0.6c0.1,0,0.2,0.1,0.2,0.1c0.2,0,0.3-0.1,0.4-0.2c2.7-4.2,7.1-7,12.1-7.8
			c0.2,0,0.4-0.3,0.4-0.5c0-0.2-0.3-0.4-0.5-0.4C10.7,2.2,6.1,5.2,3.2,9.6"/>
		<path class="st0" d="M1.2,19.7c0-1.8,0.3-3.6,0.8-5.3c0.1-0.2,0-0.5-0.3-0.5c0,0,0,0,0,0c-0.2-0.1-0.5,0-0.5,0.3c0,0,0,0,0,0
			c-0.6,1.8-0.9,3.7-0.9,5.6c0,5.1,2.1,10,5.8,13.4c0.1,0.1,0.2,0.1,0.3,0.1c0.1,0,0.2,0,0.3-0.1c0.2-0.2,0.2-0.5,0-0.6
			C3.1,29.2,1.1,24.6,1.2,19.7"/>
		<path class="st0" d="M33.2,30.4c-0.2-0.1-0.5-0.1-0.6,0.1c-5.1,6.6-14.2,8.7-21.7,5c-0.2-0.1-0.5,0-0.6,0.2c0,0,0,0,0,0
			c-0.1,0.2,0,0.5,0.2,0.6c7.9,3.9,17.4,1.7,22.8-5.2C33.5,30.8,33.5,30.5,33.2,30.4"/>
		<path class="st0" d="M21,1.4c-0.2-0.9-1.1-1.5-2-1.4s-1.5,1.1-1.4,2c0.2,0.9,1.1,1.5,2,1.4c0.6-0.1,1.1-0.5,1.3-1.1
			c9.6,1.2,16.5,10,15.3,19.7c-0.1,0.7-0.2,1.4-0.4,2c-0.1,0.2,0.1,0.5,0.3,0.5h0.1c0.2,0,0.4-0.1,0.4-0.3
			c2.5-9.9-3.6-19.9-13.5-22.4C22.5,1.6,21.8,1.5,21,1.4"/>
		<path class="st0" d="M10.8,27.7c0.3,0,0.7-0.1,1-0.3c1.9,1.7,4.4,2.7,6.9,2.6h0.5c0.2,0,0.4-0.2,0.4-0.4c0,0,0,0,0,0
			c0-0.2-0.2-0.4-0.5-0.4h-0.5c-2.3,0-4.5-0.8-6.3-2.3c0.2-0.3,0.4-0.7,0.4-1.2c0-1.1-0.9-2-2-2s-2,0.9-2,2
			C8.9,26.7,9.8,27.6,10.8,27.7"/>
	</g>
</g>
</svg>
