<svg version="1.1" id="Layer_1" xmlns="http://www.w3.org/2000/svg" viewBox="0 0 27.4 86.4">

<g id="Artwork">
	<g>
		<g>
			<path class="st0" d="M6.1,59.5c0,0.1-0.3,0.2-0.4,0.2c-0.1,0.1-0.2-0.1-0.3-0.2c-0.2-0.5-0.3-0.9,0.5-1.2H6
				C6.1,58.8,6.1,59.1,6.1,59.5 M5.9,58.2L6,58.4H5.6L5.9,58.2 M7.9,58.7l-0.7,0.2C7.1,58.9,7,58.8,7,58.7c0-0.1,0.2-0.2,0.3-0.3
				L7.9,58.7 M6,60.4c0,0.1-0.2,0.2-0.3,0.3l-0.3-0.3l0.5-0.2C5.9,60.3,6.1,60.4,6,60.4 M5.8,61c-0.1,0.1-0.1,0.2-0.2,0.3
				c-0.1-0.1-0.2-0.2-0.2-0.2C5.4,61,5.5,61,5.6,61C5.7,61,5.7,61,5.8,61 M5.9,63.2L5,63l0,0h0.9C5.9,63.1,5.9,63.1,5.9,63.2
				 M6.8,57.4L7,57.4c0-0.1-0.1-0.1-0.1-0.2C7,57,7.1,56.9,7.2,56.8c0.1,0.1,0.3,0.2,0.4,0.3c0.1,0.1,0,0.2,0,0.2S7.4,57.8,7.3,58
				C7.1,57.8,7,57.6,6.8,57.4 M5.6,57.5c0-0.1,0.2-0.2,0.2-0.3C5.9,57.3,6,57.3,6,57.4c0,0.1,0,0.3,0,0.4
				C5.8,57.6,5.6,57.6,5.6,57.5 M5.4,56.7c0,0,0.1-0.1,0.1-0.1c0.1,0,0.1,0,0.2,0l-0.1,0.1L5.4,56.7 M5.4,56.1l0.4-0.2
				C6,56,6.1,56.2,6.2,56.3c0,0-0.1,0.1-0.1,0.2L5.4,56.1 M6.7,55c0.1,0.2,0.2,0.5,0.3,0.7c0.1,0.1,0.1,0.2,0.1,0.4
				c0,0,0,0.1-0.2,0.3c-0.1-0.2-0.2-0.4-0.3-0.6C6.7,55.5,6.7,55.2,6.7,55 M5.3,55.3c0.1,0,0.1,0,0.2,0c0,0.1,0.1,0.1,0.1,0.2
				l-0.2,0.1C5.3,55.4,5.3,55.4,5.3,55.3 M5.7,54.9c0.1-0.2,0.2-0.4,0.3-0.6c0,0.1,0.2,0.2,0.2,0.3c0,0.2,0,0.4-0.1,0.5L5.7,54.9
				 M7.3,54.1c0-0.1,0-0.2,0.1-0.3l0.2,0.3l-0.2,0.3C7.3,54.2,7.3,54.2,7.3,54.1 M6.1,53.2C6,53,6,52.8,6,52.6H6
				c0-0.1,0.2-0.3,0.1-0.4c-0.5-0.4,0.1-0.3,0.4-0.3c0.1,0.4,0.1,0.8,0.2,1.2c0,0.1-0.2,0.2-0.3,0.3C6.3,53.4,6.1,53.3,6.1,53.2
				 M5.1,52.5L5.1,52.5L5.1,52.5C5.2,52.5,5.2,52.5,5.1,52.5L5.1,52.5 M6.6,51.6h0.2c-0.1,0.1-0.2,0.2-0.3,0.3L6.6,51.6 M7.5,53.2
				c-0.1-0.1-0.1-0.1-0.1-0.1c0,0,0-0.1,0-0.1c0,0,0.1,0,0.1,0C7.5,53,7.5,53.1,7.5,53.2 M10.2,51.2c0.3,0,0.6,0,0.8,0.2
				c0,0.2,0,0.5-0.1,0.7c0,0.1-0.2,0.3-0.1,0.3c1,0.5-0.6,0.9-0.2,1.3c0,0,0,0-0.2,0.2c0-0.3-0.2-0.5-0.1-0.6
				c0.6-0.5,0.2-0.8-0.5-1.1c-0.1-0.1-0.3-0.2-0.2-0.3C9.8,51.6,10,51.4,10.2,51.2 M6.5,49.7L6.5,49.7L6.5,49.7L6.5,49.7L6,49.5
				c0.9-0.3,0.4-0.8,0.4-1.1c0-1.2,0-2.4-0.2-3.5c-0.1-0.4-0.3-0.7-0.5-1c-0.2-0.6-0.4-1.2-0.6-1.8c-0.1-0.3,0.6-0.6,0.1-0.9L5.6,41
				c0.3,0.3,1.2,0.2,1,0.7c-0.1,0.6-0.1,1.2-0.1,1.7c0.1,1.1,0.3,2.1,0.4,3.2c0.1,1.5,0.2,3,0.3,4.5C6.3,50.8,6.2,50.3,6.5,49.7
				 M5.7,50.5L5.7,50.5L5.7,50.5L5.7,50.5z M5,46.9h0.1L5,47V46.9 M7.3,40.2c0-0.1,0-0.1,0.1-0.1s0.1,0.1,0.1,0.1
				C7.7,40.5,7.8,41,8,41.4l-0.4,0.1v-0.1l0,0L7.3,40.2 M10.8,40.8c-0.1-0.2-0.2-0.3-0.1-0.4c0-0.1,0.2-0.1,0.3-0.1
				c0.1-0.1,0.2,0.1,0.1,0.2C11.1,40.5,10.9,40.6,10.8,40.8 M10.7,39.8c0-0.5,0-1,0-1.5l0.2,0.1l-0.2-0.1l0,0
				c0.2-0.1,0.4-0.2,0.5-0.2c1.2,0.2,0.9-0.3,0.9-0.6c0-0.2,0-0.4,0.1-0.7c0.1-0.3,0.2-0.6,0.3-0.9c0.1,0.3,0.2,0.6,0.3,0.9
				c0,0.9-0.1,1.9-0.2,2.8c0,0.3,0.7,0.8-0.7,0.8c-0.1,0.1-0.1,0.3-0.1,0.5c0,0.3,0.2,0.6,0.2,0.9c0,0.1-0.1,0.1-0.1,0.2
				s-0.2-0.1-0.2-0.2c0-0.6-0.3-1.2,0.2-1.7c0.2-0.2,0.1-0.6,0.1-0.9c0-0.1-0.3-0.2-0.5-0.2c-0.1,0-0.3,0.1-0.4,0.2
				c0,0.2,0,0.3,0,0.5s-0.1,0.1-0.2,0.2C10.8,40,10.7,39.8,10.7,39.8 M8.9,39.3c0-0.1,0-0.2,0.1-0.3c0.1,0.1,0.1,0.2,0.2,0.3
				C9.1,39.4,9,39.5,9,39.6C8.9,39.5,8.9,39.4,8.9,39.3 M7.1,39.1c-0.5-0.7,1,0.1,0.8-0.4l0.2,0.1l-0.7,0.5L7.1,39.1 M8,37.9L8,37.9
				C8,37.9,8,37.9,8,37.9L8,37.9L8,37.9 M6.9,38l0.2-0.2c0.1,0.1,0.2,0.3,0.4,0.4c0,0-0.1,0.1-0.1,0.2L6.9,38 M11,37.7L11,37.7
				L11,37.7L11,37.7z M10.4,37.5L10.4,37.5L10.4,37.5C10.5,37.5,10.5,37.5,10.4,37.5L10.4,37.5 M7.8,36.9l0.1-0.1
				c0,0,0.1,0.1,0.1,0.1S7.9,37,7.8,37C7.8,37,7.8,36.9,7.8,36.9 M10.4,36.1c0.3,0.2,0.5,0.5,0.8,0.7c0,0-0.2,0.1-0.6,0.4
				c-0.1-0.4-0.2-0.6-0.3-0.9C10.3,36.3,10.4,36.2,10.4,36.1 M7.9,36L7.9,36l0.1,0.1h0L7.9,36 M14.4,35.9L14.4,35.9L14.4,35.9
				L14.4,35.9z M11.4,35.4c0-0.3,0-0.6,0.2-0.9c0.2-0.3,0.4-0.5-0.3-0.5c-0.5,0-0.5,0-0.3-0.4l0,0c0.2-0.1,0.5-0.3,0.4-0.4
				c-0.2-0.5-0.4-0.9-0.6-1.4c-0.1-0.1-0.1-0.3-0.1-0.4l0.4,0.2l0.2-0.3c0.1-0.1,0.2-0.2,0.2-0.3c0.1,0.1,0.1,0.1,0.2,0.2
				c0.2,0.3,0.4,0.6,0.5,1c0,0.1,0,0.3-0.1,0.3c-0.7,0-0.4,0.3-0.4,0.5c0.1,0.4,0.3,0.8,0.5,1.2v0.2c0,0.2,0,0.5,0,0.7
				c0,0.1-0.2,0.2-0.3,0.4C11.7,35.5,11.4,35.5,11.4,35.4 M7.6,30.6L7.6,30.6C7.7,30.5,7.7,30.5,7.6,30.6c0.1,0,0.1,0.1,0.1,0.1
				C7.7,30.6,7.7,30.6,7.6,30.6 M11,30.2c0-0.1,0.1-0.2,0.2-0.2c0.1,0,0.3,0.1,0.4,0.2c0,0-0.1,0.2-0.3,0.4
				C11.2,30.3,11.1,30.3,11,30.2 M15.3,33.9l-0.2,0.3c0-0.1,0-0.2,0-0.2L15.3,33.9 M15,36.1c0,0.1,0,0.1-0.1,0.2
				C14.9,36.3,14.8,36.3,15,36.1l0.1-1.6C15.1,35.1,15.1,35.6,15,36.1 M12.6,41.2h-0.1H12.6L12.6,41.2 M14.9,40
				c0,1.8-0.2,3.5-0.3,5.3c0,0.1,0,0.2,0,0.2c0,0.1-0.1-0.2-0.1-0.2c0-0.6,0-1.2-0.1-1.8c-0.1-1.8-0.1-3.5-0.2-5.3
				C14.6,38.7,14.8,39.3,14.9,40 M12.7,45.5c-0.1,0.2-0.2,0.4-0.4,0.7c-0.1-0.2-0.2-0.3-0.1-0.4c0.1-0.2,0.2-0.3,0.3-0.5
				C12.6,45.4,12.7,45.5,12.7,45.5 M14.5,46.3c0,0.1,0,0.1,0,0.2c0,0.1,0,0.3-0.1,0.4c0,0-0.1,0.1-0.1,0.1c0-0.2,0-0.4-0.1-0.6
				c0-0.1,0-0.2,0.1-0.4C14.4,46.2,14.4,46.3,14.5,46.3 M11.8,44l1.2,0.5c-0.3,0.1-0.5,0.1-0.7,0.2c-0.9,0.1-0.2-0.4-0.5-0.4
				C11.8,44.3,11.8,44.1,11.8,44 M12.5,43.7c0.1,0,0.2,0,0.3,0.1c0,0.1-0.1,0.1-0.1,0.2c-0.1,0-0.2-0.1-0.2-0.2
				C12.4,43.8,12.5,43.7,12.5,43.7 M11.8,43.4c0.1,0,0.1,0,0.2,0l-0.1,0.1C11.8,43.6,11.8,43.5,11.8,43.4
				C11.8,43.5,11.8,43.5,11.8,43.4 M11.8,42.7c0,0,0.1,0.1,0.1,0.1c0,0.1-0.1,0.1-0.1,0.2l-0.1-0.1L11.8,42.7 M12.8,42.3
				c0,0.1,0.1,0.1,0.1,0.2c0,0.1-0.1,0.1-0.2,0.2l-0.2-0.2L12.8,42.3 M8,42.4l-0.3-0.2L7.4,42c0.1,0,0.3,0,0.5,0
				C8.5,42,8.2,42.2,8,42.4L8,42.4 M8,43.2L8,43.2L8,43.2L8,43.2 M7.8,45.1L7.8,45.1c0.1-0.4,0.2-0.9,0.3-1.3
				c0.6,0.5,0.9,1.1,0.4,1.7c-0.1,0.2,0,0.4,0,0.6c-0.1-0.2-0.3-0.4-0.4-0.7L7.8,45.1 M7.7,46.7L7.7,46.7c-0.1,0-0.1-0.1-0.1-0.1
				h0.1C7.7,46.6,7.7,46.6,7.7,46.7 M11.2,47.5c-0.1,0.1-0.1,0.2-0.2,0.3c0-0.1-0.1-0.2-0.1-0.3c-0.1-0.4-0.2-0.7-0.3-1.1h-0.3
				c0,0,0-0.1,0-0.1s-0.1-0.3-0.1-0.4h-0.2l0.2,0.5l-0.3,0.3c0,0.3,0,0.6-0.1,0.8c0,0.1-0.1,0.2-0.2,0.3c-0.1,0-0.2,0-0.3,0
				c-0.1,0-0.3-0.2-0.2-0.2c0.2-0.3,0.4-0.7,0.6-1c0-0.6-0.1-1.3-0.1-1.9c0-0.2,0-0.4,0.1-0.6c0.1,0.2,0.2,0.4,0.2,0.6
				c0.1,0.2,0,0.2,0.2,0.3c0.2,0.1,0.3,0.1,0.5,0.2c0-0.1,0.2-0.2,0.1-0.3c0-0.1-0.4-0.5-0.3-0.5c0.7-0.4,0.5-0.8,0.2-1.1
				c-0.3-0.4-0.3-0.9,0-1.3c0-0.1,0.1-0.2,0.2-0.3c0.1,0.1,0.2,0.2,0.2,0.3c0.1,1.3,0.2,2.5,0.4,3.8c0,0.3,0,0.5,0,0.8l0,0
				c0,0,0,0.1,0,0.1c0,0,0.5,0.2,0.5,0.3c0.3,0.1,0.5,0.1,0.7,0.2c-0.2,0.1-0.4,0.3-0.5,0.2C11.9,46.9,11.4,47,11.2,47.5 M12.2,47.5
				c0,0-0.1,0.1-0.1,0.1c0,0-0.1-0.1-0.2-0.1s0.1-0.1,0.1-0.1C12.1,47.4,12.2,47.5,12.2,47.5 M11.2,48.4L11.2,48.4
				C11.2,48.4,11.2,48.4,11.2,48.4L11.2,48.4 M9.9,48.9C9.9,49,9.8,49,9.7,49c0,0,0-0.1,0-0.1c0.1-0.2,0.1-0.3,0.2-0.5
				c0.1,0,0.1,0,0.2,0C10.1,48.6,10,48.8,9.9,48.9 M10.1,49.4H9.8c0-0.1,0-0.3,0-0.4L10.1,49.4 M11,49.9c0.1,0.2,0.2,0.5,0.3,0.7
				L11,50.8l-0.2-0.3c-0.1-0.2-0.3-0.3-0.4-0.5c0-0.1,0-0.2,0-0.3C10.6,49.8,11,49.8,11,49.9 M10.9,54.3
				C10.9,54.3,10.8,54.3,10.9,54.3l-0.2-0.1l0.1-0.1L10.9,54.3 M7.6,55.2H7.4l0,0H7.6z M4,37.1C4,37.1,4,37.1,4,37.1l0.1-0.1l0,0
				L4,37.1 M10.9,28.6c0-0.1,0.1-0.3-0.1-0.4c-0.6-0.3-0.3-0.6,0.1-0.9h0.1l0,0l0,0c-0.1-0.5,0.2-1-0.6-1.4c-0.1,0,0.1-0.2,0.2-0.3
				c0.1,0.1,0.4,0.1,0.4,0.2c0.2,0.9,0.4,1.9,0.6,2.8c0,0.1-0.3,0.3-0.4,0.4C11.1,28.9,11,28.8,10.9,28.6 M7.7,27.7l0.1-0.1
				c0,0,0.1,0.1,0,0.1H7.7L7.7,27.7 M7.5,26.3C7.5,26.3,7.5,26.3,7.5,26.3c0.1,0.1,0.1,0.1,0.1,0.1C7.5,26.3,7.5,26.3,7.5,26.3
				 M5.8,25.4c0-0.1,0.1-0.1,0.2-0.2c0.1,0,0.2,0.1,0.3,0.1l-0.3,0.2C5.9,25.5,5.8,25.4,5.8,25.4 M10.5,24.6c0,0,0-0.1-0.1-0.1
				l-0.1-0.7c0.1,0,0.2,0,0.2,0c0.1,0.3,0.2,0.5,0.3,0.8c0,0,0,0,0-0.1l-0.2,0.7L10.5,24.6 M5.6,24.7l0.2-0.1c0,0,0.1,0.1,0.1,0.1
				c0,0-0.1,0.1-0.2,0.1L5.6,24.7 M21.9,23.7C21.9,23.7,21.9,23.7,21.9,23.7l0.1-0.1v0.1H21.9 M15.9,23.5l0.2,0.1H16
				C16,23.6,15.9,23.5,15.9,23.5 M23.3,23.1c0.1,0.1,0.3,0.3,0.4,0.5c0,0.1-0.2,0.1-0.3,0.2c-0.2-0.2-0.4-0.3-0.5-0.5
				C22.9,23.2,23.2,23.1,23.3,23.1 M10.3,23.1L10.3,23.1l0.2,0.1h-0.1L10.3,23.1 M21.9,22.9C21.9,22.9,21.9,22.9,21.9,22.9
				C22,22.9,21.9,22.9,21.9,22.9C21.9,23,21.9,23,21.9,22.9L21.9,22.9 M24.6,23.6l0.1,0.1C24.7,23.7,24.6,23.6,24.6,23.6L24.6,23.6
				L24.6,23.6z M22.3,24.9l-0.4-0.2l0.2-0.2C22.1,24.7,22.2,24.8,22.3,24.9 M6.9,22.6c0,0,0-0.1,0.1-0.1l0.2,0.1
				c0,0.1,0,0.1-0.1,0.2C7.1,22.8,7,22.7,6.9,22.6 M9.9,22.1c0,0,0-0.1,0-0.2l0,0c0.1-0.2,0.1-0.5,0.2-0.7c0.1,0.2,0.2,0.5,0.3,0.7
				c0,0,0,0.1,0,0.2c-0.1,0.2-0.1,0.4-0.2,0.5L9.9,22.1 M5,21.7L5,21.7C5.1,21.7,5.1,21.7,5,21.7L5,21.7 M4.9,21.2L5,21.3l-0.2,0.1
				L4.9,21.2 M4.5,23.3c0,0.1,0,0.2,0,0.3c-0.1-0.1-0.2-0.2-0.2-0.2C4.1,22.8,4,22.2,4,21.6c0-0.2,0.1-0.3,0.1-0.5l0.6,0.2
				C4.7,22,4.6,22.7,4.5,23.3 M16.2,21.3c0,0.1,0,0.2-0.1,0.3H16c-0.1-0.1-0.1-0.1-0.1-0.2c0-0.1,0-0.1,0-0.2
				C15.8,21.1,16.1,21.2,16.2,21.3 M4.5,20.8h0.2v0.1L4.5,20.8 M15.9,20.4c0-0.2,0.1-0.5,0.2-0.7c0-0.1,0.2-0.1,0.2-0.2
				c0.1-0.1,0.3,0.2,0.3,0.2c-0.1,0.2-0.3,0.4-0.4,0.6c-0.1,0.1-0.1,0.2-0.1,0.3L15.9,20.4 M6.8,20.4c0,0,0-0.1,0-0.1L7,20.3
				L6.8,20.4C6.9,20.4,6.8,20.4,6.8,20.4 M9.9,19.8c0,0,0-0.1,0-0.1l0.1,0.1L9.9,19.8L9.9,19.8 M9.7,18.6
				C9.7,18.6,9.7,18.6,9.7,18.6c0-0.1,0.1,0,0.1,0s-0.1,0.1-0.1,0.1C9.7,18.7,9.7,18.7,9.7,18.6 M16.1,17.9c0-0.1,0.2-0.2,0.2-0.3
				c0.1,0.1,0.1,0.3,0.2,0.4l-0.2,0.3C16.3,18.2,16.2,18,16.1,17.9 M3.5,16.3L3.5,16.3L3.5,16.3L3.5,16.3z M16.4,16.2
				C16.4,16.1,16.4,16.1,16.4,16.2l0.2,0L16.4,16.2C16.4,16.2,16.4,16.2,16.4,16.2 M4.2,15.6c0-0.1,0.1-0.1,0.2-0.2
				c0.1,0,0.2,0,0.3,0.1l-0.3,0.3C4.3,15.7,4.2,15.7,4.2,15.6 M3,13.9h0.4c0,0,0,0,0,0.1L3,13.9 M16.3,13.8L16.3,13.8l0.2,0.1
				L16.3,13.8L16.3,13.8 M16,9.4L16.3,9c0.1,0.1,0.2,0.1,0.2,0.2c0,0.1-0.1,0.2-0.1,0.2L16,9.4 M16.2,8c0-0.1,0.2-0.1,0.2-0.1
				c0.1,0,0.1,0.1,0.1,0.2c0,0.1-0.1,0.1-0.2,0.2C16.2,8.2,16.2,8.1,16.2,8 M14.4,47.9L14.4,47.9C14.4,47.9,14.4,47.9,14.4,47.9
				C14.4,47.8,14.4,47.8,14.4,47.9L14.4,47.9 M21.4,49.6c0,0-0.1,0.1-0.1,0.1l-0.1-0.1h0.1C21.2,49.6,21.4,49.6,21.4,49.6
				 M21.3,50.2c-0.1,0.2-0.2,0.4-0.3,0.5c-0.2-0.2-0.4-0.2-0.4-0.3c0.1-0.2,0.2-0.3,0.4-0.4C21.1,50.1,21.3,50.1,21.3,50.2
				 M20.9,51.7c0,0-0.1,0-0.1,0.1l-0.2-0.1l0.2-0.1C20.8,51.7,20.9,51.7,20.9,51.7 M20.9,52.7c0,0,0,0.1-0.1,0.1l-0.1-0.1l0.1-0.2
				C20.9,52.6,20.9,52.6,20.9,52.7 M20.8,53.5c0,0-0.1,0.1-0.2,0.2c-0.1,0-0.2-0.1-0.3-0.2c-0.3-0.2-0.5-0.4-0.7-0.6
				c0,0,0-0.1-0.1-0.1c-0.1-0.1,0.2,0,0.2,0L20.8,53.5 M22.9,53.7C22.9,53.7,22.8,53.7,22.9,53.7H23H22.9 M22.4,56.6
				C22.4,56.6,22.4,56.6,22.4,56.6l-0.2,0.1l0,0L22.4,56.6 M15.9,54.7h-0.1H15.9L15.9,54.7 M17.2,55.1
				C17.2,55.1,17.2,55.1,17.2,55.1l-0.1,0.1l0,0L17.2,55.1 M15.6,55.9h-0.2l0.2-0.2C15.7,55.7,15.7,55.8,15.6,55.9 M17.2,55.9h-0.1
				l-0.1-0.2h0.2c0,0,0,0.1,0.1,0.1 M15.5,56.9c0,0.1-0.1,0.1-0.2,0.2c0-0.1,0-0.1-0.1-0.2c0-0.1,0.1-0.1,0.1-0.2
				C15.3,56.8,15.5,56.8,15.5,56.9 M17.3,57c-0.1,1.2-0.2,2.3-0.4,3.5c0,0.1-0.1,0.3-0.2,0.4c0-0.1-0.1-0.3-0.2-0.4
				c-0.1-0.1-0.2-0.2-0.3-0.3c-0.1,0.1-0.4,0.2-0.3,0.3c0.1,0.3,0.2,0.5,0.4,0.7c0.7,0.4,0.2,0.8,0.3,1.2c-1,0.2-0.3,0.5-0.1,0.8
				c0.2,0.2,0.2,0.6,0,0.8c-0.3,0.4-0.4,0.9-0.2,1.4c0,0.2-0.3,0.7-0.4,0.7c-0.7,0-0.4-0.4-0.5-0.6L15,65.7
				c-0.1-0.1-0.2-0.3-0.2-0.4c0.1-0.8,0.2-1.6,0.3-2.5c0.1-0.4,0.2-0.8,0.4-1.2c0.1-0.4,0.2-0.8,0.3-1.3c0.1-0.4-0.1-1,0.2-1.2
				c1.1-0.4,0.3-0.7,0.2-1c0,0,0,0,0-0.1c1.1-0.2,0.6-0.8,0.8-1.2c0-0.1,0.1-0.2,0.2-0.2C17.3,56.8,17.3,56.9,17.3,57 M18.2,56.9
				L18.2,56.9L18.2,56.9z M17.8,60.5c0,0-0.1,0-0.1,0.1c-0.1,0.1,0-0.2-0.1-0.2s0.1,0,0.1-0.1C17.8,60.3,17.8,60.4,17.8,60.5
				 M18,61.2l-0.2,0.2c-0.1-0.1-0.2-0.1-0.3-0.2c0-0.1,0.1-0.2,0.1-0.2L18,61.2 M17.7,65.4c0,0-0.1,0.1-0.1,0.1l-0.3-0.3
				c0.1-0.1,0.1-0.1,0.1-0.2C17.5,65.2,17.6,65.3,17.7,65.4 M14.3,61.1c0-0.1,0.2-0.1,0.2-0.2c0.1-0.1,0.2,0.2,0.2,0.2
				c-0.2,0.4-0.4,0.8-0.6,1.2c0,0-0.2,0-0.3,0C13.9,61.9,14.1,61.4,14.3,61.1 M14.6,59.5c0-0.1,0.1-0.2,0.2-0.2
				c0.1-0.1,0.4,0.1,0.4,0.2c0,0.1-0.1,0.2-0.2,0.4C14.8,59.7,14.6,59.6,14.6,59.5 M14.9,58.7c0,0,0.1-0.1,0.1-0.1
				c0,0,0.2,0.1,0.2,0.2c0,0.1,0,0.1-0.1,0.2C15,58.9,15,58.8,14.9,58.7 M16.4,57.3L16.4,57.3c0.1,0,0.1,0.1,0.1,0.1h-0.1
				C16.4,57.4,16.4,57.4,16.4,57.3 M15.1,58c0.1-0.3,0.1-0.6,0.2-0.9c0,0.3,0.1,0.5,0.1,0.8c0,0.1-0.1,0.1-0.1,0.2
				C15.2,58.1,15.1,58,15.1,58 M14.9,66.6C14.9,66.6,14.9,66.6,14.9,66.6L14.9,66.6L14.9,66.6L14.9,66.6 M7.5,77.1
				c0.1,0,0.1,0.1,0.1,0.2c0.1-0.1,0.2-0.2,0.2-0.3C7.9,76.2,8,75.4,8,74.5c0.1-1,0.1-2.1,0.2-3.2s0.2-1.9,0.2-2.9
				c0.1-1.6,0.1-3.3,0.1-4.9c0-0.5,0-1,0-1.5l-0.1-0.2L8.6,62c0.2-0.5,0.3-1.1,0.4-1.6c0.1-0.2,0.2-0.5,0.3-0.7
				c0.1,0.4,0.2,0.9,0.2,1.4c0,0.6-0.1,1.3-0.1,1.9c0.1,0.3,0.2,0.6,0.4,0.9c0.1-0.3,0.4-0.6,0.4-0.9c0-0.9-0.2-1.8-0.2-2.8
				c0.1-0.4,0.2-0.8,0.3-1.2c0-0.1,0-0.3,0-0.4c0-0.1-0.2-0.2-0.3-0.3c-0.1,0.1-0.3,0.2-0.3,0.3c-0.1,0.4-0.2,0.7-0.4,1.1
				c-0.2-1-0.1-2.1,0.1-3.2c0.2-0.9,0.2-1.7,0.2-2.6c0.1,0.4,0.2,0.8,0.3,1.2s0.2,0.5,0.3,0.8l0,0c0,0.1,0,0.1,0.1,0.2
				c0.1,0,0.2-0.1,0.2-0.1c0-0.1,0-0.3-0.1-0.4l0,0l0,0c0-0.1,0.1-0.2,0.1-0.3c0.1,0.1,0.3,0.1,0.3,0.2c0.1,0.7,0.1,1.4,0.1,2.1
				c0,0.9,0.1,1.8,0.2,2.7c0,0,0,0.1,0,0.1c-0.2,0.4-0.7,1-0.4,1.1c0.7,0.3,0.4,0.7,0.6,1.1c0.1,0.4,0.1,0.8,0.1,1.2
				c-0.1,4.9-0.2,9.7-0.3,14.6c-0.1,2.3-0.3,4.6-0.4,6.9c0,0.1,0.1,0.2,0.1,0.4c0.1-0.1,0.2-0.2,0.2-0.3c0.2-0.2,0.5-0.4,0.6-0.6
				c0.1-0.1,0.1-0.3,0.1-0.4c-0.4-0.8-0.4-0.8,0.1-1.8c0-0.1,0-0.1-0.1-0.2c-0.1-0.3-0.5-0.8-0.2-1c0.5-0.5,0.1-1,0.1-1.4
				c0.1-0.9,0.1-1.9,0.1-2.8c0-0.1,0.1-0.3,0.2-0.3c1.1-0.1,0.4-0.6,0.4-0.8c0-0.3-0.3-0.5-0.4-0.8c0-0.1-0.3-0.7,0.5-0.2
				c0.1,0,0.2-0.1,0.3-0.1c-0.2-0.3,0.4-0.7-0.6-0.9C12,74,12,73.8,12,73.8c0.1-0.2,0.1-0.5,0.2-0.7c0.5-0.2,0.7-0.3,0-0.4
				c-0.1-0.6-0.1-1.2-0.2-1.8c0,0,0.1-0.1,0.1-0.1c1.3,0,0.6-0.5,0.8-0.8c0.2-0.3-0.1-0.3-0.2-0.5l-0.3,0.4L12.2,70
				c0-0.1-0.1-0.1-0.1-0.2c0.1-0.4-0.3-0.9,0.5-1.1c0.1,0,0-0.2,0-0.2c-1-0.1-0.5-0.6-0.5-0.8c-0.1-2.3-0.1-4.7-0.2-7
				c0-1.3-0.1-2.5-0.1-3.8c0-0.2,0.1-0.4,0.2-0.6l0,0v-0.1l0,0l-0.1-1.5c0-0.5-0.1-1.1-0.1-1.6c0-0.7,0.1-1.4,0.4-2
				c0.1-0.3,0.1-0.4-0.2-0.6L12,50.7c-0.1-0.1-0.3-0.2-0.3-0.2c0-0.3-0.3-0.6,0.5-0.8c0.2-0.1,0.3-0.5,0.1-0.7
				c-0.5-0.6,0.3-1,0.3-1.5c0,0,0.1-0.1,0.2-0.1s0.1,0.1,0.1,0.2c-0.2,1.1-0.2,2.3,0.2,3.4c0.2,1,0.2,2,0.1,3c0,0.6,0.1,1.1,0.1,1.7
				c0,0.9-0.1,1.9-0.1,2.8c0,0.2,0,0.3,0,0.5c-0.1,0.6-0.2,1.1-0.2,1.7c0,0.4,0,0.7,0,1.1c0,0.4,0.2,0.7-0.4,1.1
				c-0.2,0.1-0.3,0.5-0.2,0.7c0.7,0.6,0.3,1.3,0.2,1.9c0,0.3,0,0.5,0,0.8c0,0.1,0.2,0.1,0.3,0.2c0.1,0.1,0.2-0.1,0.3-0.2
				c0.1-0.7,0.2-1.3,0.3-2c0-0.2,0-0.5,0.1-0.7c0.2-0.2,0.3-0.6,0-0.9c0,0,0,0,0,0c-0.1-0.1,0.1-0.3,0.2-0.4
				c0.4,0.6,0.8,1.2,0.3,1.9c-0.1,0.1,0.2,0.2,0.3,0.3c0,0.1,0.2,0.4,0,0.5c-0.3,0.2-0.5,0.3,0.1,0.6c0.3,0.1,0.1,0.6,0.1,0.8
				c0,0.3,0,0.8,0,1.2c0,0.1,0.4,0.2,0.7,0.2c0.1,0,0.2-0.1,0.3-0.2c0-0.1,0-0.3,0-0.4c0.1-0.2,0.1-0.4,0.2-0.6
				c0.2,0.1,0.3,0.3,0.5,0.4c0.1,0.1,0.2,0.1,0.3,0.1c0.1-0.1,0.2-0.1,0.3-0.2c0.1-0.2,0.1-0.5,0.1-0.7c0-0.3,0-0.6,0.7-0.3
				c0,0,0.2-0.1,0.3-0.1l0,0c0.3-0.1,0.8-0.3,0.8-0.4c-0.1-0.4-0.3-0.7-0.5-1c0,0-0.2,0-0.2,0c-1.2,0.4-0.8-0.2-0.7-0.5
				c0-0.4,0.1-0.7,0.2-1.1c0-0.1,0.2-0.1,0.3-0.2c0.1,0.1,0.1,0.1,0.1,0.2c0,0.3,0,0.6,0,0.9c0,0.1,0.1,0.1,0.1,0.2
				c0,0.1,0.2-0.1,0.2-0.2c0.1-0.3,0.1-0.6,0.1-0.9c0-0.1,0.1-0.2,0.1-0.3c0.9-0.2,0.5-0.6,0.4-0.9s-0.3-0.6,0.2-0.9
				c0.2-0.1,0-0.4,0-0.6s-0.2-0.5-0.1-0.8c0.3-0.4,0.5-1,0.3-1.5c-0.1-0.3,0.1-0.7,0.2-1.1c0.1-0.3,0.1-0.6,0.1-0.9
				c0-0.3-0.2-0.5,0.3-0.7c0.3-0.1,0.1-0.5,0.2-0.8c0.1-0.2,0.2-0.4,0.3-0.6c0.2,0.2,0.5,0.4,0.6,0.5c0.1,0.4,0.1,0.9,0,1.3
				c-0.1,1.3-0.3,2.5-0.4,3.8c0,0.2-0.2,0.5-0.3,0.7c0,0.1,0.2,0.2,0.3,0.2c0.1,0.1,0.3-0.1,0.3-0.2c0.2-0.5,0.3-0.9,0.5-1.4
				c0-0.1,0.1-0.1,0.1-0.2c0.1,0,0.1,0.1,0.2,0.2c0.1,0.1,0.4,0.2,0.5,0.2c0.3-0.1,0.8-0.2,0.8-0.4c0.1-0.4,0.1-0.7,0-1.1
				c0-0.1-0.1-0.2-0.2-0.2c-0.1,0.1-0.2,0.2-0.3,0.3c-0.1,0.1-0.2,0.3-0.2,0.5c-0.1-0.2-0.2-0.4-0.1-0.6c0.1-0.2-0.1-0.8,0.9-0.4
				c0,0,0.4-0.2,0.4-0.3c-0.2-0.3-0.3-0.6-0.6-0.9c-0.1-0.2-0.4-0.3-0.6-0.5c-0.2-0.2,0.1-0.1,0.1-0.2c0.1,0.1,0.2,0.1,0.3,0.1
				l0.6,0.3c0.1-0.2,0.4-0.4,0.4-0.5c0-0.3,0-0.7-0.1-1c-0.1,0.2-0.2,0.3-0.4,0.5c0,0-0.1,0.1-0.2,0.1v-0.5c0-0.2,0.1-0.3,0.5-0.2
				c0-0.1,0-0.3,0-0.4l0,0c0-0.1,0.2-0.4,0.1-0.4C22,52.6,22,51.8,22.4,51c0.1-0.3,0.2-0.6,0.2-0.9c0-0.1,0.2-0.1,0.2-0.2
				c0.1-0.1,0.3,0.1,0.3,0.2c0.1,0.2,0.1,0.5,0.1,0.7c0,0.1,0.1,0.2,0.1,0.4c0.1-0.1,0.2-0.2,0.3-0.3c0.2-0.5,0.3-1,0.4-1.5
				c0-0.2,0-0.4-0.5-0.2c-0.7,0.2-0.8-0.1-0.8-0.4c0-0.7,0-1.4,0-2.1c0-0.3,0-0.5-0.1-0.8c0-0.1-0.3-0.1-0.5-0.2
				c-0.1,0.1-0.2,0.2-0.2,0.3c0,0.5,0,1,0,1.4c0,0.1,0.1,0.3,0,0.3c-0.3,0.3-0.6,0.5-0.9,0.7c-0.2-0.3-0.3-0.7-0.4-1
				c0-0.3,0-0.6,0.2-0.9c0-0.1,0.1-0.2,0.2-0.3c0.5-0.2,0.5-0.2,0-0.5c0-0.2,0-0.3-0.1-0.5c-0.2-0.3-0.1-0.6,0.1-1
				c0.4-0.7,0.4-1.6-0.1-2.2c-0.6-0.2-0.3-0.5-0.3-0.7c0.2-0.5,0.2-1.1,0-1.7c-0.2-0.4,0.2-0.9,0.2-1.4c0-0.9,0.7-1.7,0.2-2.6
				c-0.1-0.2,0.1-0.5,0.2-0.8c0.3-1.3,0.4-2.6,0.4-3.9c-0.1-0.9,0.2-1.8,0.1-2.7c0-0.6,0-1.3,0-1.9c0-0.1,0.1-0.2,0.1-0.2
				c0.1,0.1,0.2,0.2,0.3,0.2c0.2,0.2,0.4,0.3,0.6,0.3c1.1,0.1,1.1,0.6,0.8,1c-0.4,0.5-0.1,0.9,0.3,1.2c-0.2,0.2-0.5,0.4-0.5,0.7
				c-0.2,1.3-0.2,2.6-0.3,3.9c0,0.5-0.2,1.1-0.2,1.6c0,0.2,0.2,0.3,0.4,0.5c0.1-0.1,0.3-0.3,0.3-0.4c0.1-1.1,0.3-2.2,0.4-3.3
				c0.1-0.5,0.2-1,0.2-1.5c0-0.4,0-0.9-0.1-1.3c0.4-0.2,0.5-0.7,0.3-1.1c0,0,0,0,0,0C24.1,28,24,27.8,24,27.7c0-0.5,0.3-0.9-1-1
				c-0.1,0-0.3-0.2-0.2-0.3c0.5-0.6-0.3-0.9-0.5-1.4c0.4,0,0.8,0,0.6-0.3c-0.1-0.1,0-0.3,0-0.5c0.2,0.2,0.5,0.3,0.5,0.5
				c0,0.5,0,0.9,0,1.4c0,0.2,0.1,0.3,0.2,0.4c1.3,0.5,1.1,1.3,1.1,2.1c0,1.1,0,2.2,0,3.4c0,0.6-0.1,1.2-0.2,1.8c0,0.1,0,0.3,0,0.4
				c0,0.1,0.3,0.2,0.4,0.2c0.2,0.1,0.3-0.1,0.3-0.2c0.1-0.2,0.1-0.3,0.2-0.5c0-0.7,0-1.4,0.1-2.1c0.1-1.2,0.1-2.4,0.2-3.6
				c0.1-1.2,0.2-2.3,0.2-3.4c0-1.7,0-3.3,0-5c-0.1-0.2-0.2-0.5-0.3-0.7c-0.1,0.2-0.2,0.4-0.3,0.7c-0.1,1-0.1,2-0.2,3
				c0,0.1-0.2,0.3-0.3,0.4c-0.1-0.1-0.2-0.3-0.3-0.4l-0.3-0.4c-0.1,0.1-0.1,0.1-0.2,0.2l-0.8,0.3c-0.1-0.2-0.2-0.4-0.1-0.5
				c0.2-0.1,0.3-0.4,0.1-0.6c0,0-0.1-0.1-0.1-0.1c-0.1,0-0.1-0.1-0.1-0.2c0.8-1.4-0.7-2.8,0.3-4.1c-0.8-0.4,0-1-0.6-1.5
				c-0.2-0.1-0.1-0.4-0.2-0.6c-0.1-0.2-0.1-0.4-0.2-0.6c0-0.1-0.2-0.2-0.1-0.3c0.5-0.6-0.3-1.1-0.3-1.6l0,0c0-0.1,0-0.1,0-0.2
				c1.1-0.5,0.6-1,0.2-1.6s-0.9-1.2-0.5-1.9c0-0.1,0.1-0.2,0-0.2c-1-0.5-0.5-1,0-1.5c0.1-0.1,0.1-0.3,0-0.4
				c-0.9-0.8-0.7-1.7-0.8-2.6c-0.2-1.1-0.4-2.3-0.6-3.4c0-0.4-0.5-0.4-1-0.5s-0.9,0.1-0.9,0.5c0,0.3-0.1,0.5-0.1,0.8
				c0,0.6,0.3,1.2-1,1.4c-0.2,0.5-0.3,1-0.3,1.5c0.1,0.9,0.5,1.9-0.1,2.8c-0.1,0.1-0.2,0.2-0.3,0.3c-0.1-0.1-0.2-0.3-0.2-0.4
				c0-0.1,0.2-0.4,0.2-0.6c0-0.3,0-0.6-0.2-0.8c-1.5-1.5-2.8-3-2.2-4.7c0-0.2,0-0.3,0-0.5C14.1,0.2,14,0.1,14,0
				c-0.1,0.1-0.3,0.2-0.4,0.3s0,0.7-0.9,0.5c-0.1,0-0.3,0.2-0.3,0.3c-0.1,0.8-0.5,1.6-1.2,2C11.1,3.2,11,3.3,11,3.4
				c0,0.8-1,1.4-1.6,2.1C9.4,5.6,9.3,5.6,9.2,5.6C9.1,5.6,9,5.5,9,5.4C9,5.4,9,5.3,9.1,5.2C9.5,4.9,9.3,4.8,8.7,5
				C8.6,5,8.2,5.1,8.4,4.8c0.2-0.3,0.2-0.4-0.6-0.5c-0.1,0-0.1-0.1-0.1-0.2c0-0.3-0.1-0.5-0.1-0.8c0-0.1-0.3-0.2-0.4-0.3
				C7,3.1,6.8,3.2,6.8,3.3c0,0.2,0,0.5,0,0.7c0,0.1-0.1,0.2-0.2,0.2c0-0.1-0.1-0.2-0.2-0.3C6.3,3.9,6.3,3.8,6.2,3.7
				C6.1,3.8,6,3.9,6,4C5.8,4.6,6,5.2,5.1,5.7C5,5.8,5.3,6,5.3,6.1c0,0.2-0.1,0.4-0.1,0.6C5,6.6,4.8,6.5,4.6,6.3
				c-0.1,0-0.3,0-0.4,0.1c0,0.1,0.1,0.2,0.1,0.4c0,0.1,0,0.2,0,0.3C4.1,7.1,3.9,7,3.8,6.9C3.7,6.9,3.6,6.8,3.6,6.7L3.2,6.9
				C3.1,7.1,2.9,7.2,2.8,7.3C2.5,7.6,2.2,7.8,2.9,8C3,8,3.2,8.2,3.2,8.3C3,9,3.6,9.8,3.4,10.6c-0.1,0.3-0.5,0.6-0.5,0.9
				C3,11.7,3.7,12,3.7,12.3c0,0.3,0.7,0.9-0.7,0.8c0,0-0.2,0.1-0.2,0.2c0,0.2,0.1,0.4,0.1,0.6c-0.7,0.5-0.6,0.6,0.4,0.8
				c0.3,0.1,0.2,0.5,0.3,0.8l-0.3-0.2c-0.1-0.1-0.1-0.1-0.2-0.2c-0.1,0.1-0.2,0.1-0.2,0.2c0,0.1-0.2,0.3-0.2,0.4
				C3,16.3,3.5,17,4.1,17.4c0,0,0.1,0.1,0.1,0.1c1.5-0.1,0.9,0.6,0.9,0.9c-0.1,0.8,0.3,1.6-0.6,2.3C3.7,20.5,4,20,3.7,19.6
				c0-0.1,0.1-0.2,0-0.3c0-0.1-0.1-0.2-0.2-0.3c-0.1,0.1-0.2,0.2-0.2,0.3c0,0.6,0,1.2,0,1.8v1.3l0,0c0,0,0.1,0.1,0.1,0.1
				c-0.6,0.9,0.4,1.7,0.2,2.6c0,0.1,0.3,0.2,0.4,0.3c0.1-0.1,0.1-0.2,0.2-0.3c0-0.3-0.1-0.5,0-0.7c0.1-0.2-0.1-0.4,0.6-0.3
				c0.4,0.1,0.6-0.4,0.5-0.7c-0.2-0.3-0.3-0.7-0.4-1.1c0,0,0.2-0.1,0.2-0.1c0,0.1,0.1,0.1,0.1,0.2c0.2,0.3,0.4,0.6,0.5,0.9
				c0.1,0.3,0.3,0.5,0.2,0.5c-1,0.3-0.4,0.9-0.6,1.3C5.1,25.5,5,25.7,4.8,26c0,0.1-0.1,0.2-0.1,0.2C5,26.6,5.2,27,5.5,27.4
				c0.2,0.2,0.4,0.4,0.6,0.6c-0.5,0-1,0-1.5,0s-0.8-0.1-1.2-0.1c0,0.3-0.4,0.7,0.6,0.6c0,0,0.1,0.2,0.2,0.3C4.4,29,4.3,29.4,5,29.6
				c-0.4-0.5,0.7-0.7,0.7-1c0.1,0.1,0.4,0.1,0.4,0.2c0.2,0.6,0.3,1.2,0.4,1.8c0.1,0.7,0,1.3,0,2c0,0,0,0.1,0,0.1
				c0.6,1.4,0.9,2.9,0.9,4.4c-0.2-0.4-0.3-0.8-0.5-1.1c-0.1-0.2,0-0.5-0.7-0.5c-0.2,0-0.5-0.4-0.6-0.6C5.5,33.9,5.5,33,5.5,32
				c0-0.1-0.2-0.2-0.3-0.3C5,31.8,4.7,31.9,4.6,32c0,0.3,0,0.5,0.1,0.8c0.1,0.5,0.1,1,0.2,1.4c0,0.8-0.1,1.6-0.1,2.4
				c0,0.6,0.1,1.1,0.2,1.7c0,0.1-0.1,0.2-0.2,0.2c0-0.1-0.1-0.2-0.2-0.3c-0.1-0.5,0-1.1-0.6-1.6c-0.3-0.2,0-0.6,0-0.9
				c0-0.2-0.2-0.3-0.3-0.4c0,0.1-0.1,0.3-0.1,0.4c0,0.4,0,0.8-0.1,1.2c-0.1,0.8,0.1,1.5,0.5,2.2c0.2,0,0.5,0,0.7,0.1
				c0.3,0.1,0.6,0.1,0.6-0.2c0.1-0.3,0.1-0.4,0.6-0.3c0-0.1,0.2-0.3,0.1-0.4c-1-0.7-0.4-1.6-0.5-2.3c0-0.1,0.1-0.2,0.2-0.2
				c0.2,0,0.3,0,0.4,0.1c0.1,0.1,0.2,0.3,0.2,0.4c0.1,1.3,0.1,2.5,0.1,3.8c0,0.2,0,0.3-0.1,0.5c-0.4,0-0.8,0-1.1-0.1
				c-0.7-0.2-0.8-0.2-0.7,0.2c0,0.1,0,0.2,0,0.3c-0.1-0.1-0.2-0.2-0.3-0.3c-0.2-0.1-0.4-0.2-0.6-0.4c-0.1,0.2-0.2,0.3-0.2,0.4
				c0,0.4,0,0.8,0,1.2c0,0.1,0.1,0.1,0.2,0.2S3.8,42,3.8,42s-0.1-0.3,0-0.4c0-0.1,0-0.2,0.1-0.3c0,0.1,0.1,0.2,0.1,0.3
				c0,0,0.2,0.1,0.3,0.1c0.3-0.3,0.3-0.1,0.3,0c0,0.5,0,1.1,0.1,1.6c0.3,0.7-0.1,1.5,0,2.2c0.1,0.4,0,0.8,0,1.2
				c0,0.1,0.2,0.2,0.3,0.3l0,0c-0.1,0.9-0.2,1.8-0.3,2.7c0,0.3,0.2,0.5,0.3,0.8c0.1,0.3,0.3,0.6,0.1,0.7c-0.9,0.4-0.4,0.8-0.4,1.3
				c0,0.6,0,1.2,0,1.8c0,0.1,0,0.2-0.1,0.2c-0.2,0-0.4,0-0.6,0c0,0.1,0.1,0.1,0.2,0.2c0.1,0.1,0.3,0.2,0.4,0.3
				C5,55.3,4.4,55.7,5.2,56l-0.5,0.2c-0.1,0.1-0.4,0.2-0.3,0.2c0.7,0.7,0.2,1.4,0.3,2c0.1,1,0.2,2,0.2,3c0,0.3,0.2,0.4,0.5,0.1
				c0,0,0.4,0.1,0.5,0.2c0.1,0.1,0,0.4,0.1,0.6c0.1,0.2,0,0.3-0.5,0.3c-0.2,0-0.4,0.2-0.6,0.3l0,0c-0.3,0.3-0.4,0.5,0.3,0.5
				c0.4,0,0.8,0,0.8,0.3c0,0.3,0.5,0.5-0.4,0.7c-0.5,0.1-0.5,0.5,0,0.8c0.5,0.3,0.6,0.8,0,1.2c0,0.1,0,0.1,0,0.2
				C5.8,66.8,6.1,67,6,67.1c-0.5,0.6-0.2,1.2-0.1,1.7C6,69.5,6,70.2,6,70.9c0.1,0.7,0.1,1.4-0.1,2.1c-0.3,0.8,0,1.6-0.2,2.3
				c0,0,0,0,0,0.1C5.9,75.6,6,75.8,6.1,76c0.1-0.2,0.3-0.3,0.4-0.4C7,75.2,7,74.9,6.7,74.6c-0.2-0.4-0.2-0.8-0.2-1.2
				c0-1.4,0-2.8,0.1-4.1c0-0.3-0.2-0.6,0.4-0.9c0.3-0.2,0.1-0.6,0.1-0.9c-0.1-0.7-0.2-1.5-0.3-2.2c-0.1-0.8-0.1-1.7,0.1-2.5
				c0.4-1.1-0.6-2.1-0.1-3.2c0-0.1-0.1-0.3,0-0.4c0.1-0.1,0.3-0.2,0.5-0.2c0.2,0,0.3,0.1,0.5,0.3c0.1,0.2,0.1,0.3,0.1,0.5
				c0,1,0,2,0,3.1c0,0.8-0.4,1.6-0.2,2.4s-0.2,1.4,0.1,2.1c0.2,0.7,0.2,1.4,0,2.1c-0.1,1.5-0.1,3.1-0.2,4.6c0,0.7-0.3,1.3,0,2
				C7.7,76.5,6.8,76.8,7.5,77.1"/>
			<path class="st0" d="M20.9,42.2"/>
			<path class="st0" d="M5,29.5L5,29.5"/>
			<path class="st0" d="M16.1,72c0-0.1,0.1-0.3,0.1-0.4c0.1-0.6-1-0.6-1.5-0.9c-0.1,0.1-0.4,0.2-0.4,0.3c0.1,1.1,0,2.2-0.2,3.2
				c0,0.7-0.1,1.5-0.1,2.2c0.8-0.4,1.2-1.3,1-2.2c0.6,0,1-0.1,0.6-0.5c-0.2-0.2-0.1-0.5-0.1-0.7c0-0.2,1.1-0.5-0.2-0.4
				c0.4-0.3-0.4-0.5-0.3-0.7c0-0.3,0.1-0.3,0.2-0.4c0.1,0.1,0.2,0.2,0.4,0.3S15.9,71.9,16.1,72"/>
			<path class="st0" d="M15.6,78.7c0,0-0.1,0.1-0.1,0.1l-0.1-0.1L15.6,78.7C15.5,78.7,15.6,78.7,15.6,78.7 M15.2,77.4
				c0-0.1-0.1-0.2-0.5-0.1c-1.5,0.3-1,0.9-0.9,1.3c0.1,0.4-0.3,1-0.3,1.5c0,0.3-0.1,0.7-0.2,1c0,0.1,0.1,0.2,0.2,0.2
				c0.1,0,0.3-0.1,0.4-0.1c0.3-0.2,0.6-0.5,0.9-0.7c0.3-0.2,1.1,0,0.5-0.5l-0.6,0.4c-0.6-0.3-0.8-0.9-0.4-1.2c0.1,0,0.3,0,0.4,0
				c0.5,0.1,1.1,0.1,1.6,0.2c0,0,0.1-0.2,0.2-0.4l0,0c0.2-0.2,0.8,0.2,0.8-0.2c0-0.1-0.4-0.2-0.6-0.3C15.8,78.3,15.1,78.1,15.2,77.4
				"/>
			<path class="st0" d="M16.5,75.2C16.5,75.2,16.5,75.2,16.5,75.2L16.5,75.2L16.5,75.2 M15.9,75c1.1,0.7,0.2,1.5,0.5,2.2l0,0
				l0.5,0.7c0.2-0.2,0.3-0.5,0.3-0.8c0-0.4-0.1-0.7,0.5-1.1c0.4-0.2-0.2-1.2-0.7-1.4C16.7,74.6,15.8,74.9,15.9,75"/>
			<path class="st0" d="M4.1,33.5c0-0.2,0-0.3,0-0.5h0.1c-0.1-0.5-0.3-1.1-0.4-1.6c0-0.2,0-0.3,0-0.5c0-0.2,0.2-0.3,0.1-0.5
				c-0.1-0.2-0.3-0.5-0.4-0.7c-0.1,0.2-0.4,0.4-0.4,0.6c0,1,0.1,2.1,0.2,3.2c0,0.1,0.2,0.2,0.3,0.3C3.8,33.8,4,33.7,4.1,33.5"/>
			<path class="st0" d="M3.6,64.1c0-0.1,0-0.2,0-0.4c-0.2,0-0.4,0.1-0.6,0.2c-0.1,0.1-0.2,0.2-0.1,0.3c0,0.4,0.2,0.7,0.2,1.1
				c0,0.1-0.3,0.1-0.5,0.2c-0.1-0.1-0.1-0.2-0.2-0.2c-0.1-0.1-0.1-0.1-0.2-0.2c-0.1,0-0.1,0.1-0.2,0.1c-0.1,0.3-0.2,0.6-0.2,0.9
				c0,0.2,0.1,0.3,0.2,0.5c0.1-0.2,0.2-0.3,0.4-0.5C2.5,66,2.7,66,2.8,65.9c0.1,0.1,0.4,0.2,0.4,0.3c0,0.2,0,0.5,0,0.7
				c0.1-0.1,0.2-0.2,0.3-0.3C3.5,65.7,3.6,64.9,3.6,64.1"/>
			<path class="st0" d="M3.2,66.9L3.2,66.9C3.2,66.9,3.2,66.9,3.2,66.9C3.2,67,3.2,67,3.2,66.9L3.2,66.9"/>
			<path class="st0" d="M6,84c0-0.3,0-0.7,0-1H5.8c0.2-0.5,0.3-1,0.5-1.5c0-0.1,0-0.2-0.1-0.2c-0.1,0-0.2,0-0.4,0
				c-0.2,0.2-0.6,0.3-0.6,0.5c0,0.8,0.1,1.5,0.2,2.3c0,0.1,0.1,0.2,0.2,0.3C5.8,84.2,5.9,84.1,6,84"/>
			<path class="st0" d="M4,58.9c0.1-0.1,0.1-0.3,0-0.3c-0.8-0.3-0.4-0.8-0.5-1.1c0-0.1,0.1-0.2,0.1-0.3c-0.1-0.2-0.2-0.3-0.4-0.5
				c-0.2,0.2-0.6,0.5-0.5,0.6c0.8,0.8,0.2,1.7,0.4,2.6c0,0.1,0.3,0.2,0.5,0.3C3.4,59.7,3.2,59.2,4,58.9"/>
			<path class="st0" d="M3.6,60.1L3.6,60.1L3.6,60.1"/>
			<path class="st0" d="M6.8,78.3c0.1-0.1,0.1-0.1,0-0.2c0,0,0,0,0,0c-0.6-0.4-0.4-0.8-0.4-1.2c0-0.1-0.2-0.2-0.3-0.4l-0.4,0.3
				c0.3,0.5,0.4,0.8-0.3,1.2c-0.1,0,0.1,0.5,0,0.7c0.3,0,0.6,0,0.9-0.1C6.4,78.6,6.6,78.4,6.8,78.3"/>
			<path class="st0" d="M4.4,30.9l0.7,0.6l0.4-0.5c0-0.2,0-0.3-0.1-0.3C5.1,30.4,5.6,30,4.8,30c-0.2,0-0.3,0.5-0.4,0.7
				C4.4,30.8,4.4,30.8,4.4,30.9"/>
			<path class="st0" d="M2.2,53.9c0.1-0.3,0.2-0.6,0.3-0.9c-0.1-0.3-0.1-0.5-0.2-0.8c0-0.1-0.2-0.1-0.3-0.2
				c-0.1,0.1-0.3,0.2-0.3,0.3c0,0.5,0.1,1,0.2,1.6c0,0.1,0,0.1,0.1,0.2C2,54,2.1,53.9,2.2,53.9"/>
			<path class="st0" d="M3.4,27.7L3.4,27.7L3.4,27.7L3.4,27.7"/>
			<path class="st0" d="M3.7,26.3c-0.2,0.1-0.6,0.3-0.6,0.4c0,0.3,0.1,0.7,0.3,1c0.2-0.3,0.4-0.7,0.5-1C3.9,26.6,3.8,26.4,3.7,26.3"
				/>
			<path class="st0" d="M14.8,68.3L14.8,68.3z"/>
			<path class="st0" d="M14.6,69.3c0,0.1,0.1,0.3,0.1,0.4c0.2-0.1,0.4-0.3,0.5-0.4c0.1-0.4,0.4-0.8-0.4-1
				C14.7,68.6,14.6,69,14.6,69.3"/>
			<path class="st0" d="M7.6,77.7c-0.2,0.1-0.4,0.3-0.4,0.4C7,78.3,7,78.5,7,78.7c0.1,0.2,0.2,0.4,0.4,0.6c0.1-0.2,0.2-0.3,0.2-0.5
				c0.1-0.2,0.1-0.5,0.2-0.7L7.6,77.7"/>
			<path class="st0" d="M3.7,42.7c0,0-0.1-0.1-0.1-0.1c0,0-0.1,0.1-0.1,0.1c0,0.2,0,0.5,0,0.7H3.4c0,0.3,0.1,0.6,0.1,0.9
				c0,0.1,0.2,0.1,0.3,0.2c0.1,0.1,0.1-0.2,0.1-0.2C3.9,43.8,3.8,43.3,3.7,42.7"/>
			<path class="st0" d="M16,4.2c0.2-0.2,0.3-0.3,0.3-0.4c-0.1-0.1-0.2-0.2-0.3-0.3c-0.2-0.2-0.4-0.3-0.7-0.5
				c-0.1,0.2-0.3,0.3-0.2,0.5C15.4,3.8,15.7,4,16,4.2"/>
			<path class="st0" d="M3.2,52.8l0.1-0.3H3.2c0-0.4,0-0.8,0-1.2c0-0.1-0.1-0.1-0.2-0.2c-0.1-0.1-0.2,0.1-0.2,0.2
				c0,0.4,0.1,0.8,0.1,1.2C2.9,52.7,3.1,52.8,3.2,52.8"/>
			<path class="st0" d="M3,62.9c0.3,0.3,0.6,0.7,0.9,1C4,64,4.1,64.1,4.2,64.2c0-0.1,0.2-0.2,0.1-0.3C3.8,63.5,4.4,63,4,62.4
				s0.1-1,0.2-1.6l0,0l0,0l0,0c-0.2-0.3-0.6-0.1-0.9-0.2c0,0.2-0.1,0.4,0,0.4c0.4,0.2,0.6,0.4-0.2,0.4C3,61.6,3,61.8,3,61.9
				c0,0.1-0.1,0.4-0.1,0.6l0,0l0,0l0,0v0.3l0,0c-0.1,0-0.3,0-0.4,0c-0.5-0.4-0.6-0.1-0.6,0.1c0,0.2,0.1,0.5,0.2,0.7c0,0,0.2,0,0.3,0
				C2.2,63.4,3.1,63.3,3,62.9"/>
			<path class="st0" d="M4.3,45.7L3.9,45c-0.1,0.2-0.2,0.4-0.2,0.6c0.1,0.2,0.2,0.4,0.3,0.6L4.3,45.7"/>
			<path class="st0" d="M23.1,36.2c-0.1,0.3-0.2,0.7-0.3,1c0,0.1,0.2,0.1,0.3,0.2s0.2-0.1,0.3-0.2c0.1-0.2,0.1-0.5,0.2-0.7
				c0-0.1-0.1-0.2-0.2-0.3C23.3,36.3,23.2,36.3,23.1,36.2"/>
			<path class="st0" d="M0.5,12.8l-0.3-0.4c-0.1,0.2-0.2,0.3-0.2,0.5C0,13,0,13,0,13.1c0.1,0.2,0.1,0.4,0.2,0.6
				c0.1-0.2,0.2-0.4,0.3-0.6C0.5,13,0.5,12.9,0.5,12.8"/>
			<path class="st0" d="M3.5,68.2c-0.1-0.4-0.2-0.8-0.3-1.2C3.1,67.4,3,67.8,3,68.2c0,0.1,0.2,0.1,0.3,0.2
				C3.3,68.5,3.5,68.2,3.5,68.2"/>
			<path class="st0" d="M17.4,71.1c-0.1,0.2-0.1,0.5-0.2,0.7c0.1,0,0.2,0,0.4,0c0.1-0.2,0.3-0.4,0.4-0.6l-0.2-0.5
				C17.6,70.8,17.5,70.9,17.4,71.1"/>
			<path class="st0" d="M8.2,0.6C8.1,0.7,7.9,0.9,7.9,1c0,0.1,0.3,0.4,0.4,0.5l0.4-0.6L8.2,0.6"/>
			<path class="st0" d="M24.4,35c0,0.2,0.2,0.3,0.3,0.5h0.2c0.1-0.1,0.2-0.3,0.3-0.5c0-0.1-0.2-0.2-0.3-0.3
				C24.8,34.8,24.4,34.9,24.4,35"/>
			<path class="st0" d="M3.6,17.9c-0.1-0.1-0.1-0.1-0.2-0.1c-0.1,0-0.2,0-0.3,0c0.1,0.3,0.3,0.5,0.4,0.8l0.3-0.2
				C3.7,18.2,3.7,18.1,3.6,17.9"/>
			<path class="st0" d="M2.8,85.9c0-0.3,0-0.7,0-1c0-0.1-0.1-0.1-0.2-0.2s-0.2,0.1-0.2,0.1c0,0.2,0,0.4,0,0.6c0,0.1,0,0.3,0,0.4
				c0,0.1,0.1,0.2,0.1,0.3C2.6,86.1,2.9,86,2.8,85.9"/>
			<path class="st0" d="M3.1,53.5c-0.2,0.1-0.5,0.3-0.5,0.4c0,0.1,0.4,0.4,0.6,0.5l0.3-0.5L3.1,53.5"/>
			<path class="st0" d="M3.1,69.8c0-0.3-0.1-0.5-0.1-0.7l-0.4,0.7h0.2c0,0.1,0,0.1,0,0.2c0,0.1,0,0.2,0,0.3c0.1-0.1,0.2-0.1,0.3-0.2
				C3.1,69.9,3.1,69.8,3.1,69.8"/>
			<path class="st0" d="M12.7,66.9c-0.1,0.3-0.1,0.6-0.1,0.9c0,0,0.1,0,0.2,0.1c0.2-0.2,0.4-0.5,0.5-0.7c0-0.1-0.2-0.2-0.4-0.3
				C12.9,66.9,12.8,66.9,12.7,66.9"/>
			<path class="st0" d="M4,29.3c-0.1-0.2-0.3-0.3-0.4-0.5c-0.1,0.1-0.4,0.3-0.4,0.4c0,0.1,0.2,0.3,0.4,0.5C3.8,29.5,4,29.4,4,29.3"
				/>
			<path class="st0" d="M3.9,5.9c0,0-0.2-0.2-0.3-0.2L2.9,6.2l0.5,0.2C3.6,6.2,3.7,6.1,3.9,5.9"/>
			<path class="st0" d="M3.7,34.2l-0.5,0.3c0.3,0.1,0.6,0.2,0.8,0.3c0.1,0,0.3-0.2,0.3-0.2C4.2,34.5,3.9,34.4,3.7,34.2"/>
			<path class="st0" d="M22.8,52.4l0.5,0.3c0.2-0.1,0.4-0.2,0.4-0.4c0-0.1-0.2-0.4-0.3-0.5L22.8,52.4"/>
			<path class="st0" d="M17,72.7c0.1,0.2,0.3,0.4,0.5,0.6l0.4-0.6l-0.5-0.3C17.2,72.5,16.9,72.6,17,72.7"/>
			<path class="st0" d="M2.1,56.7c-0.1,0.1-0.2,0.2-0.2,0.3c0,0.2,0.1,0.3,0.2,0.5l0.3-0.3L2.1,56.7"/>
			<path class="st0" d="M15.5,70c-0.3,0.1-0.6,0.2-0.8,0.3c0.2-0.1,0.5-0.1,0.7-0.1c0.4,0.1,0.7,0.1,0.9-0.2C16,70,15.8,70,15.5,70"
				/>
			<path class="st0" d="M3,49.4c-0.2-0.2-0.4-0.4-0.6-0.6v0.4c0.1,0.1,0.3,0.2,0.4,0.4C2.9,49.6,3.1,49.5,3,49.4"/>
			<path class="st0" d="M2.1,64c-0.1,0.2-0.3,0.3-0.3,0.4c0,0.2,0.2,0.2,0.3,0.4l0.5-0.4L2.1,64"/>
			<path class="st0" d="M3.9,75.1c-0.1-0.2-0.1-0.3-0.3-0.5L3.3,75l0.4,0.4C3.7,75.3,3.9,75.2,3.9,75.1"/>
			<path class="st0" d="M6.6,82.8l0.3,0.1c0.1-0.1,0.3-0.2,0.3-0.4c0-0.1-0.2-0.3-0.3-0.3c-0.1,0.1-0.3,0.2-0.4,0.3
				C6.5,82.6,6.5,82.7,6.6,82.8"/>
			<path class="st0" d="M3.4,39.2c0.1,0.1,0.2,0.2,0.3,0.3c0.2,0,0.5,0.1,0.7,0.1L3.9,39C3.6,38.9,3.4,39,3.4,39.2"/>
			<path class="st0" d="M3.9,39L3.9,39L3.9,39L3.9,39L3.9,39"/>
			<path class="st0" d="M24.1,40.2c0,0.1,0.2,0.2,0.4,0.3l0.4-0.3l-0.5-0.3C24.3,40,24.1,40.1,24.1,40.2"/>
			<path class="st0" d="M2.3,55.2c0-0.2-0.2-0.3-0.3-0.5l-0.3,0.5L2,55.6C2.1,55.4,2.3,55.3,2.3,55.2"/>
			<path class="st0" d="M4.1,69.6l-0.4,0.3l0.4,0.5c0.1-0.2,0.3-0.3,0.3-0.4C4.4,69.8,4.2,69.7,4.1,69.6"/>
			<path class="st0" d="M3.7,4.8c0-0.1,0-0.3-0.1-0.4C3.5,4.5,3.3,4.6,3.3,4.7c0,0.1,0.1,0.4,0.2,0.7c0.2-0.2,0.2-0.2,0.2-0.3
				C3.7,5,3.7,4.9,3.7,4.8"/>
			<path class="st0" d="M3,81.1l-0.4,0.3L3,81.8c0.1-0.1,0.2-0.2,0.3-0.3C3.2,81.3,3.1,81.2,3,81.1"/>
			<path class="st0" d="M16.7,83.8l0.3-0.3L16.8,83c-0.1,0.1-0.2,0.3-0.2,0.4C16.5,83.5,16.6,83.7,16.7,83.8"/>
			<path class="st0" d="M6.1,79.3c-0.1,0.2-0.3,0.3-0.4,0.5c0.1,0,0.2,0,0.3,0c0.2-0.2,0.8-0.3,0.2-0.6l0,0l-0.1-0.1v0.1
				C6.1,79.2,6.1,79.3,6.1,79.3"/>
			<path class="st0" d="M17.4,67c0.2,0.2,0.4,0.2,0.3-0.1c0-0.1,0-0.1,0-0.2c0-0.1,0.1-0.2,0.1-0.3c-0.2,0.1-0.4,0.1-0.5,0.2
				C17.3,66.7,17.3,66.9,17.4,67"/>
			<path class="st0" d="M17.9,66.4L17.9,66.4"/>
			<path class="st0" d="M9.7,81.9c0-0.1-0.1-0.3-0.2-0.4c-0.1,0-0.4,0.1-0.4,0.1c0.1,0.2,0.2,0.4,0.3,0.6C9.6,82.1,9.7,82,9.7,81.9"
				/>
			<path class="st0" d="M17.9,79c0.1,0.1,0.1,0.2,0.2,0.2c0.1-0.1,0.3-0.2,0.3-0.3s-0.2-0.2-0.3-0.3c-0.1,0-0.2,0-0.3,0.1
				C17.8,78.8,17.8,78.9,17.9,79"/>
			<path class="st0" d="M23.9,20.4l0.2,0.7c0-0.2,0.1-0.4,0.1-0.6L23.9,20.4"/>
			<path class="st0" d="M16.1,69l-0.3,0.2l0.4,0.3c0.1-0.1,0.2-0.2,0.2-0.2C16.3,69.2,16.2,69.1,16.1,69"/>
			<path class="st0" d="M24.1,22.1L24.1,22.1L24.1,22.1L24.1,22.1"/>
			<path class="st0" d="M23.9,21.5c-0.1,0-0.3,0.1-0.3,0.1c-0.2,0.3-0.1,0.5,0.4,0.6c0,0,0,0,0-0.1C24.1,21.9,24,21.7,23.9,21.5"/>
			<path class="st0" d="M10.1,58l0.3-0.4c0,0-0.2-0.1-0.2-0.1c0,0-0.3,0.1-0.3,0.2C9.9,57.8,10,57.9,10.1,58"/>
			<path class="st0" d="M9.2,83.6l0.3-0.5c0-0.1-0.1-0.2-0.1-0.3c-0.1,0.1-0.3,0.3-0.3,0.4C9,83.3,9.1,83.5,9.2,83.6"/>
			<path class="st0" d="M25.9,18.5c0.1-0.1,0.3-0.2,0.3-0.3c0-0.1-0.2-0.2-0.3-0.4l-0.3,0.4L25.9,18.5"/>
			<path class="st0" d="M24.9,54.4c0-0.1,0.2-0.1,0.1-0.2c-0.1-0.1-0.2-0.3-0.4-0.4L24.4,54L24.9,54.4"/>
			<path class="st0" d="M19.1,76.6c0-0.2,0-0.3,0-0.5c0-0.1-0.2-0.1-0.4-0.1s-0.1,0.2-0.1,0.3C18.7,76.4,18.8,76.4,19.1,76.6"/>
			<path class="st0" d="M19.9,61.7c0,0.2,0.1,0.4,0.2,0.5c0.2-0.2,0.3-0.2,0.3-0.3c-0.1-0.2-0.2-0.3-0.2-0.5
				C20,61.6,19.9,61.6,19.9,61.7"/>
			<path class="st0" d="M2.5,48.2c-0.1,0-0.2,0.1-0.3,0.2l0.5,0.3c0.1-0.1,0.2-0.2,0.2-0.3C2.8,48.3,2.7,48.2,2.5,48.2"/>
			<path class="st0" d="M22.6,39.5c0,0.1,0.2,0.2,0.3,0.3c0.1-0.1,0.3-0.1,0.3-0.2c0-0.1-0.1-0.2-0.3-0.4
				C22.7,39.3,22.6,39.4,22.6,39.5"/>
			<path class="st0" d="M20.4,61.1l0.2,0.4c0.1-0.1,0.3-0.2,0.3-0.3c0-0.1-0.2-0.3-0.3-0.4L20.4,61.1"/>
			<path class="st0" d="M22.1,59.6c0,0.1,0.2,0.2,0.3,0.3c0.1-0.2,0.3-0.3,0.3-0.3c0-0.1-0.2-0.2-0.4-0.3
				C22.2,59.4,22.1,59.5,22.1,59.6"/>
			<path class="st0" d="M2.2,61.2c-0.1,0.1-0.3,0.2-0.3,0.2c0,0.1,0.1,0.2,0.2,0.3l0.6-0.2L2.2,61.2"/>
			<path class="st0" d="M5.5,85.4c0.3,0.1,0.4,0.2,0.5,0.2c0.2,0,0.3-0.1,0.5-0.2c-0.1-0.1-0.3-0.2-0.5-0.2
				C5.9,85.2,5.8,85.3,5.5,85.4"/>
			<path class="st0" d="M21.5,71.8c0,0.1,0.1,0.2,0.1,0.3l0.5-0.3l-0.4-0.2C21.6,71.6,21.5,71.7,21.5,71.8"/>
			<path class="st0" d="M9.6,65l-0.3,0.2l0.4,0.3c0-0.1,0.2-0.2,0.1-0.3C9.9,65.2,9.7,65.1,9.6,65"/>
			<path class="st0" d="M19.4,69.4c0,0.1,0.2,0.2,0.4,0.4c0.1-0.2,0.2-0.3,0.2-0.3c0-0.1-0.2-0.2-0.3-0.3
				C19.5,69.1,19.4,69.3,19.4,69.4"/>
			<path class="st0" d="M25.1,50.5c0.1,0,0.2,0,0.4-0.1c-0.4-0.1-0.6-0.2-0.8-0.3c0,0-0.2,0.1-0.3,0.1
				C24.7,50.4,24.9,50.4,25.1,50.5"/>
			<path class="st0" d="M7.4,79.9c-0.1,0.1-0.1,0.3-0.2,0.4c0,0.1,0.1,0.1,0.1,0.2l0.3-0.4L7.4,79.9"/>
			<path class="st0" d="M20.7,82.8c0.1-0.2,0.2-0.3,0.2-0.3c-0.1-0.1-0.2-0.2-0.3-0.3c0,0.1-0.1,0.1-0.1,0.2
				C20.6,82.6,20.6,82.7,20.7,82.8"/>
			<path class="st0" d="M17.8,68.5c0.1,0,0.2-0.1,0.2-0.1c-0.1-0.1-0.2-0.2-0.4-0.3c-0.1,0-0.2,0-0.3,0.1
				C17.5,68.3,17.7,68.4,17.8,68.5"/>
			<path class="st0" d="M3.3,55.5c-0.1,0.1-0.1,0.3-0.2,0.5l0.2,0.2c0.1-0.1,0.1-0.2,0.1-0.3C3.4,55.8,3.3,55.7,3.3,55.5"/>
			<path class="st0" d="M3.2,77.2c0,0-0.2,0.1-0.2,0.1c0.1,0.1,0.2,0.2,0.3,0.3l0.4-0.2C3.6,77.3,3.4,77.3,3.2,77.2"/>
			<path class="st0" d="M16.3,68.3c0.2-0.1,0.3-0.2,0.3-0.2s-0.1-0.1-0.2-0.2c-0.1,0.1-0.3,0.1-0.4,0.2C16,68.1,16.1,68.2,16.3,68.3
				"/>
			<path class="st0" d="M4,51.2c0-0.1-0.2-0.2-0.2-0.3c0,0.1,0,0.2-0.1,0.3l0.1,0.2C3.9,51.3,4,51.3,4,51.2"/>
			<path class="st0" d="M24.5,37.2c0,0.1,0.1,0.3,0.1,0.4c0.2-0.2,0.2-0.2,0.2-0.3c-0.1-0.1-0.1-0.2-0.2-0.3
				C24.6,37.1,24.5,37.2,24.5,37.2"/>
			<path class="st0" d="M10.1,56.8c-0.1,0-0.1,0.1-0.2,0.2c0.1,0,0.3,0.1,0.3,0.1c0.1,0,0.2-0.1,0.2-0.2
				C10.3,56.9,10.2,56.8,10.1,56.8"/>
			<path class="st0" d="M4.7,73.5c-0.1,0-0.2,0-0.3,0.1l0.2,0.2c0.1-0.1,0.2-0.1,0.3-0.2C4.9,73.7,4.8,73.5,4.7,73.5"/>
			<path class="st0" d="M16.9,73.8c0.1,0,0.2-0.1,0.3-0.2l-0.4-0.1l-0.3,0.2C16.7,73.8,16.8,73.8,16.9,73.8"/>
			<path class="st0" d="M12.7,84c0.1,0.1,0.1,0.2,0.2,0.3c0-0.1,0-0.2,0.1-0.3l-0.2-0.1C12.8,83.9,12.7,84,12.7,84"/>
			<path class="st0" d="M17.1,69.4c0.1-0.2,0.1-0.3,0.1-0.4s-0.2-0.1-0.3-0.1s-0.1,0.1-0.1,0.2C16.8,69.2,16.9,69.2,17.1,69.4"/>
			<path class="st0" d="M23.9,48.5c0.1,0,0.2-0.1,0.2-0.1c-0.1-0.1-0.1-0.2-0.2-0.2l-0.3,0.1L23.9,48.5"/>
			<path class="st0" d="M15.2,76.4c0.1,0.1,0.2,0.1,0.3,0.2c0-0.1,0.1-0.1,0.2-0.2l-0.4-0.2C15.3,76.3,15.2,76.3,15.2,76.4"/>
			<path class="st0" d="M0.3,11.6c-0.1,0.1-0.2,0.2-0.2,0.2s0.2,0.1,0.3,0.1l0.2-0.2L0.3,11.6"/>
			<path class="st0" d="M7.3,2c0-0.1,0-0.2-0.1-0.3C7.2,1.7,7,1.7,7,1.7c0,0.2,0,0.4,0,0.5C7.2,2.1,7.3,2.1,7.3,2"/>
			<path class="st0" d="M2.1,68.5c0,0-0.1-0.1-0.1-0.1c-0.2,0-0.3,0.1-0.5,0.1c0.1,0.1,0.3,0.1,0.4,0.1C2,68.6,2.1,68.6,2.1,68.5"/>
			<path class="st0" d="M2.6,47.6c0,0-0.2-0.1-0.2-0.1c-0.1,0-0.2,0.1-0.3,0.2c0,0,0.1,0.1,0.3,0.2C2.5,47.7,2.6,47.7,2.6,47.6"/>
			<path class="st0" d="M16.3,73c0,0-0.1,0-0.2,0.1l0.3,0.2l0.2-0.1C16.5,73.1,16.4,73.1,16.3,73"/>
			<path class="st0" d="M24.5,38.2c0.1,0,0.3-0.1,0.3-0.1c0,0-0.1-0.1-0.2-0.1c-0.1,0-0.2,0-0.3,0.1L24.5,38.2"/>
			<path class="st0" d="M24.5,52l0.2-0.2l-0.3-0.1c-0.1,0.1-0.1,0.1-0.1,0.2S24.4,51.9,24.5,52"/>
			<path class="st0" d="M8.2,3.5c0.1-0.1,0.1-0.2,0.1-0.3c0-0.1-0.1-0.1-0.2-0.1C8.1,3,8,3.2,7.9,3.3C7.9,3.4,8.1,3.4,8.2,3.5"/>
			<path class="st0" d="M20.1,63.6c0.1-0.1,0.2-0.1,0.2-0.2c0-0.1-0.2-0.1-0.3-0.1c-0.1,0-0.2,0.1-0.2,0.1
				C19.9,63.4,19.9,63.4,20.1,63.6"/>
			<path class="st0" d="M27,23.2c0,0.1,0.1,0.1,0.2,0.2l0.2-0.2c-0.1,0-0.2-0.1-0.3-0.1C27.1,23.1,27,23.2,27,23.2"/>
			<path class="st0" d="M2.2,50.2l-0.6-0.1L2,50.4L2.2,50.2"/>
			<path class="st0" d="M5.8,37.1c0,0.1,0.1,0.1,0.3,0.2c0-0.1,0.1-0.2,0.1-0.2c0,0-0.2-0.1-0.2-0.1C5.8,36.9,5.7,37.1,5.8,37.1"/>
			<path class="st0" d="M22.6,42.7c0.1-0.1,0.2-0.1,0.2-0.2c0-0.1-0.1-0.1-0.2-0.2l-0.2,0.2L22.6,42.7"/>
			<path class="st0" d="M2,83.8L1.8,84c0,0.1,0.1,0.1,0.1,0.2C2,84.2,2.1,84.1,2.1,84C2.1,83.9,2,83.8,2,83.8"/>
			<path class="st0" d="M2.9,70.9L2.9,70.9z"/>
			<path class="st0" d="M2.3,70.9c0,0,0.1,0.1,0.1,0.2l0.4-0.2L2.3,70.9"/>
			<path class="st0" d="M3.1,79.6c-0.1,0-0.2,0.1-0.2,0.1l0.3,0.1c0.1,0,0.1-0.1,0.1-0.2C3.2,79.6,3.2,79.6,3.1,79.6"/>
			<path class="st0" d="M4.8,5.4L5,5.3L4.8,5.1c-0.1,0-0.1,0-0.2,0L4.8,5.4"/>
			<path class="st0" d="M3.1,25.3c0,0.1-0.1,0.1-0.1,0.1c0.1,0.1,0.1,0.1,0.2,0.2c0-0.1,0.1-0.2,0.1-0.2C3.3,25.4,3.2,25.4,3.1,25.3
				"/>
			<path class="st0" d="M4.3,65.1c0,0-0.1-0.1-0.1-0.1C4.1,65,4,65,3.9,65.1L4,65.2C4.1,65.2,4.2,65.1,4.3,65.1"/>
			<path class="st0" d="M2,46.8c0,0-0.1,0.1-0.1,0.1s0.1,0,0.1,0.1l0.1-0.1L2,46.8"/>
			<path class="st0" d="M2.4,50.8l0.2,0.1l0.2-0.3L2.4,50.8"/>
			<path class="st0" d="M24.5,39.6c0,0,0.1,0.1,0.1,0.1l0.1-0.1H24.5C24.5,39.6,24.5,39.6,24.5,39.6"/>
			<path class="st0" d="M3.3,24.2c-0.1,0-0.1,0-0.2,0.1c0,0,0.1,0.1,0.1,0.1c0,0,0.2,0,0.2-0.1C3.4,24.3,3.4,24.3,3.3,24.2"/>
			<path class="st0" d="M24.1,43.8h0.2c0,0-0.1-0.1-0.2-0.1c-0.1,0-0.1,0-0.2,0L24.1,43.8"/>
			<path class="st0" d="M3.5,25.9c-0.1,0-0.2,0-0.3,0l0.3,0.4c0.1-0.1,0.1-0.2,0.2-0.3C3.6,25.9,3.6,25.9,3.5,25.9"/>
			<path class="st0" d="M24,47.2c0,0,0.1-0.1,0.1-0.1c-0.1,0-0.2-0.1-0.2-0.1l-0.1,0.1L24,47.2"/>
			<path class="st0" d="M3.5,76c0,0-0.1,0.1,0,0.1s0.1,0,0.2,0c0,0,0.1-0.1,0.1-0.1L3.5,76"/>
			<path class="st0" d="M3.9,48.5c0.1,0,0.1-0.1,0.2-0.2c0,0-0.1-0.1-0.1-0.1c-0.1,0-0.1,0-0.2,0.1C3.8,48.4,3.8,48.4,3.9,48.5"/>
			<path class="st0" d="M3.8,73.4c0,0-0.1,0.1-0.1,0.1c0,0,0.1,0.1,0.1,0.2l0.1-0.1C3.9,73.5,3.8,73.4,3.8,73.4"/>
			<path class="st0" d="M22.8,84c0.1,0,0.1-0.1,0.1-0.1s-0.1-0.1-0.1-0.1S22.7,83.9,22.8,84C22.7,84,22.8,84,22.8,84"/>
			<path class="st0" d="M5.1,62.2c-0.1,0-0.1,0-0.2,0c0,0-0.1,0.1-0.1,0.1s0.2,0.1,0.2,0C5.1,62.2,5.1,62.2,5.1,62.2"/>
			<path class="st0" d="M22.2,60.9c0.1-0.1,0.1-0.2,0.1-0.2s-0.2-0.1-0.2-0.1c-0.1,0-0.1,0.1-0.1,0.1S22.1,60.8,22.2,60.9"/>
			<path class="st0" d="M5.3,68.5c0,0-0.1,0.1-0.1,0.1c0,0.1,0,0.1,0.1,0.2c0.1,0,0.2-0.1,0.2-0.1C5.5,68.7,5.4,68.6,5.3,68.5"/>
			<path class="st0" d="M21.7,64.2c0.1,0,0.1-0.1,0.2-0.2c0,0-0.1-0.1-0.1-0.1s-0.2,0.1-0.2,0.1C21.5,64.2,21.6,64.2,21.7,64.2"/>
			<path class="st0" d="M21.4,69.4l0.1-0.1l-0.1-0.1c0,0-0.1,0.1-0.1,0.2C21.3,69.3,21.4,69.3,21.4,69.4"/>
			<path class="st0" d="M20.6,74.5c0,0,0.1,0.1,0.2,0.1c0.1,0,0.2-0.1,0.3-0.1l-0.3-0.2C20.7,74.3,20.6,74.4,20.6,74.5"/>
			<path class="st0" d="M19.8,73.1c0-0.1,0.1-0.1,0.1-0.2c0,0-0.1-0.1-0.1-0.1l-0.2,0.1L19.8,73.1"/>
			<path class="st0" d="M6,78.9l0.2,0.3l-0.1-0.3L6,78.9"/>
			<path class="st0" d="M18.6,77.9l0.2,0.2c0-0.1-0.1-0.2-0.1-0.2L18.6,77.9"/>
			<path class="st0" d="M8.7,79.3c0,0,0,0.1,0.1,0.1c0.1,0,0.2,0,0.2-0.1c0-0.1,0-0.1-0.1-0.1C8.9,79.2,8.8,79.2,8.7,79.3"/>
			<path class="st0" d="M14.1,76.5L14.1,76.5L14.1,76.5L14.1,76.5L14.1,76.5"/>
			<path class="st0" d="M14.4,76.7l-0.3-0.2c0.1,0.1,0.1,0.2,0.2,0.2L14.4,76.7"/>
			<path class="st0" d="M13.7,81.8C13.7,81.8,13.8,81.8,13.7,81.8L13.7,81.8l-0.1-0.1C13.7,81.7,13.7,81.8,13.7,81.8"/>
			<path class="st0" d="M12.2,50.3L12.2,50.3L12.2,50.3L12.2,50.3L12.2,50.3"/>
			<path class="st0" d="M12,50.1l0.2,0.3c0-0.1,0-0.2,0-0.3L12,50.1"/>
			<path class="st0" d="M12.5,57.6l0.3-0.1l-0.3-0.2C12.5,57.4,12.5,57.5,12.5,57.6"/>
			<path class="st0" d="M12.2,77.3c0,0,0.1,0.1,0.1,0.1l0.1-0.1l-0.1-0.1C12.3,77.2,12.2,77.3,12.2,77.3"/>
			<path class="st0" d="M12,78.1l-0.1,0.1l0.1,0.1c0.1,0,0.2-0.1,0.2-0.1C12.2,78.2,12.1,78.2,12,78.1"/>
			<path class="st0" d="M12.5,71.3C12.5,71.3,12.5,71.3,12.5,71.3l0.2-0.1l-0.2-0.1C12.5,71.3,12.5,71.3,12.5,71.3"/>
			<path class="st0" d="M14.1,67C14.1,67,14.1,67,14.1,67l-0.2,0L14.1,67L14.1,67"/>
			<path class="st0" d="M14.7,82.1c0,0,0.1-0.1,0.1-0.1s-0.1-0.1-0.1-0.1c0,0-0.1,0.1-0.1,0.1S14.6,82,14.7,82.1"/>
			<path class="st0" d="M15.2,79.9L15.2,79.9L15.2,79.9L15.2,79.9"/>
			<path class="st0" d="M14.9,79.7l0.3,0.2L15,79.7L14.9,79.7"/>
			<path class="st0" d="M9.6,66.7L9.6,66.7L9.6,66.7C9.7,66.7,9.7,66.7,9.6,66.7L9.6,66.7"/>
			<path class="st0" d="M9.6,57.6c0,0-0.1-0.1-0.1-0.1c0,0-0.1,0.1-0.1,0.1s0.1,0.1,0.1,0.1C9.5,57.7,9.6,57.6,9.6,57.6"/>
			<path class="st0" d="M8.7,85.5c0,0,0.1-0.1,0.1-0.1c0-0.1-0.1-0.1-0.1-0.2c0,0-0.1,0.1-0.1,0.1C8.6,85.4,8.6,85.4,8.7,85.5"/>
			<path class="st0" d="M8.8,79.9L8.8,79.9l-0.2-0.1c0,0,0,0.1,0.1,0.1L8.8,79.9"/>
			<path class="st0" d="M8.1,2.4c0,0.1,0,0.1,0,0.2c0,0,0.1,0,0.2,0c0-0.1,0.1-0.1,0.1-0.2C8.3,2.4,8.2,2.4,8.1,2.4"/>
			<path class="st0" d="M7.8,85c0,0,0.1,0.1,0.1,0.1L8,85l-0.1-0.1C7.9,84.9,7.8,85,7.8,85"/>
			<path class="st0" d="M16.2,4.6l0.2-0.1c-0.1,0-0.1,0-0.2,0c0,0-0.1,0.1-0.1,0.1L16.2,4.6"/>
			<path class="st0" d="M7.1,81.5c0,0,0-0.1,0-0.1c0,0-0.1,0-0.1,0c0,0-0.1,0-0.1,0.1L7.1,81.5"/>
			<path class="st0" d="M16.9,68.7l0.1-0.1C17,68.6,17,68.6,16.9,68.7L16.9,68.7L16.9,68.7"/>
			<path class="st0" d="M19.9,70.8l0.1-0.1l-0.3-0.1c0,0-0.1,0.1,0,0.1C19.8,70.8,19.9,70.8,19.9,70.8"/>
			<path class="st0" d="M5.3,86.2c0,0.1,0,0.1,0,0.2c0.1,0,0.2-0.1,0.2-0.1c0,0,0-0.1,0-0.1C5.4,86.2,5.3,86.2,5.3,86.2"/>
			<path class="st0" d="M5.3,73c0,0-0.1,0.1,0,0.1c0.1,0,0.1,0,0.2,0.1c0.1,0.1,0.1-0.1,0.1-0.1C5.5,73.1,5.4,73.1,5.3,73"/>
			<path class="st0" d="M21.4,66.8l0.1-0.1c-0.1,0-0.1-0.1-0.2-0.1C21.3,66.6,21.3,66.6,21.4,66.8C21.4,66.7,21.4,66.7,21.4,66.8"/>
			<path class="st0" d="M4.6,77.3l0.1-0.1H4.5C4.5,77.2,4.5,77.3,4.6,77.3C4.5,77.3,4.5,77.3,4.6,77.3"/>
			<path class="st0" d="M4.7,75.1L4.7,75.1L4.7,75.1L4.7,75.1L4.7,75.1"/>
			<path class="st0" d="M22.6,52L22.6,52l0.1,0.1c0,0,0.1,0,0.1,0C22.7,52.1,22.6,52.1,22.6,52"/>
			<path class="st0" d="M4.2,59.3L4,59.2c0,0-0.1,0.1-0.1,0.2c0,0.1,0.1,0,0.2,0.1C4.2,59.4,4.2,59.4,4.2,59.3"/>
			<path class="st0" d="M4.2,56c0,0,0.1-0.1,0.1-0.1c-0.1,0-0.1-0.1-0.2-0.1c0,0-0.1,0.1-0.1,0.1S4.1,55.9,4.2,56"/>
			<path class="st0" d="M4.4,19.6c0,0,0-0.1-0.1-0.1l-0.3,0.1l0.1,0.1C4.3,19.7,4.3,19.7,4.4,19.6"/>
			<path class="st0" d="M23.1,38.1c0,0-0.1,0.1-0.1,0.1s0.1,0.1,0.2,0.1l0.2-0.2C23.3,38.2,23.2,38.2,23.1,38.1"/>
			<path class="st0" d="M3.8,71.9c0,0-0.1,0.1-0.1,0.1s0.1,0.1,0.1,0.1L3.9,72L3.8,71.9"/>
			<path class="st0" d="M3.9,47.6L3.9,47.6l-0.1-0.1c0,0,0,0.1-0.1,0.1L3.9,47.6"/>
			<path class="st0" d="M23.5,57.7c0,0,0-0.1,0-0.1h-0.1c0,0,0,0.1,0,0.1L23.5,57.7"/>
			<path class="st0" d="M3.3,3.6c0,0-0.1,0-0.1,0.1c0,0.1,0,0.1,0,0.2c0,0.1,0.2-0.1,0.2-0.1C3.3,3.7,3.3,3.6,3.3,3.6"/>
			<path class="st0" d="M24.3,55.3L24.3,55.3L24.3,55.3L24.3,55.3L24.3,55.3"/>
			<path class="st0" d="M24.2,55.5l0.1-0.2L24,55.4L24.2,55.5"/>
			<path class="st0" d="M2.9,64.7c-0.1,0-0.2,0-0.2,0.1c0,0.1,0,0.1,0.1,0.2c0.1,0,0.2,0,0.2-0.1C2.9,64.8,2.9,64.8,2.9,64.7"/>
			<path class="st0" d="M24.4,52.9l0.2,0.2l-0.1-0.3L24.4,52.9"/>
			<path class="st0" d="M2.1,51H1.9L2,51.1C2,51.1,2.1,51,2.1,51C2.1,51,2.1,51,2.1,51"/>
			<path class="st0" d="M2,46.2C2,46.2,2,46.2,2,46.2l0,0.2l0.1-0.1L2,46.2"/>
			<path class="st0" d="M25.2,43.2h0.2c0-0.1-0.1-0.1-0.1-0.1c-0.1,0-0.1,0-0.2,0L25.2,43.2"/>
			<path class="st0" d="M1.6,80.8H1.4h0.1C1.5,80.8,1.6,80.8,1.6,80.8C1.6,80.8,1.6,80.8,1.6,80.8"/>
			<path class="st0" d="M1.6,50.1L1.6,50.1L1.6,50.1L1.6,50.1"/>
			<path class="st0" d="M1.4,49.9l0.2,0.2v-0.2L1.4,49.9"/>
			<path class="st0" d="M1.4,7.5L1.2,7.6c0.1,0.1,0.1,0.1,0.2,0.1c0,0,0.1,0,0.2,0L1.4,7.5"/>
			<path class="st0" d="M0.5,10.5l-0.2,0.1c0.1,0,0.1,0.1,0.2,0.1c0.1,0,0.1,0,0.2-0.1C0.6,10.6,0.5,10.5,0.5,10.5"/>
			<path class="st0" d="M8.1,83L8.1,83L8.1,83C8.2,83,8.2,83,8.1,83L8.1,83"/>
			<path class="st0" d="M25.8,48.8C25.8,48.8,25.8,48.8,25.8,48.8L25.8,48.8L25.8,48.8L25.8,48.8"/>
		</g>
		<polygon class="st0" points="25.3,58.6 25.4,58.6 25.3,58.6 		"/>
		<polygon class="st0" points="25.3,51.2 25.4,51.2 25.4,51.2 		"/>
		<g>
			<path class="st0" d="M25.2,39.5L25.2,39.5c0.1,0,0-0.1,0-0.1C25.2,39.4,25.2,39.4,25.2,39.5L25.2,39.5"/>
			<path class="st0" d="M25.2,38.4L25.2,38.4C25.3,38.4,25.3,38.4,25.2,38.4L25.2,38.4L25.2,38.4"/>
			<path class="st0" d="M24.8,53.4l-0.2-0.2l0.1,0.2L24.8,53.4"/>
			<path class="st0" d="M24.6,53.2L24.6,53.2L24.6,53.2C24.6,53.2,24.6,53.2,24.6,53.2L24.6,53.2"/>
			<path class="st0" d="M24.9,52.6L24.9,52.6h-0.1h-0.1H24.9"/>
			<path class="st0" d="M24.5,41L24.5,41L24.5,41C24.4,40.9,24.4,40.9,24.5,41C24.4,41,24.5,41,24.5,41"/>
			<path class="st0" d="M24.5,36.3c0,0,0.1-0.1,0.1-0.1c0,0-0.1,0-0.1,0C24.4,36.2,24.4,36.3,24.5,36.3L24.5,36.3"/>
			<path class="st0" d="M24.2,57.5L24.2,57.5L24.2,57.5C24.1,57.5,24.1,57.5,24.2,57.5L24.2,57.5"/>
			<path class="st0" d="M24.1,56.9l0.1,0.1c0,0,0.1-0.1,0.1-0.1S24.2,56.8,24.1,56.9L24.1,56.9"/>
			<path class="st0" d="M24.2,44.6c0,0,0.1-0.1,0.1-0.1c0,0-0.1,0-0.1-0.1c-0.1-0.1-0.1,0.1-0.1,0.1S24.2,44.6,24.2,44.6"/>
		</g>
		<polygon class="st0" points="0.6,8 0.7,8 0.6,8 		"/>
		<g>
			<path class="st0" d="M24,44.9L24,44.9l0-0.1h-0.1L24,44.9"/>
			<path class="st0" d="M1.5,49.1L1.5,49.1C1.5,49.2,1.5,49.2,1.5,49.1C1.4,49.1,1.5,49.1,1.5,49.1"/>
			<path class="st0" d="M22.8,44.9c0,0,0.1,0.1,0.1,0.1l0.1-0.1L22.8,44.9C22.9,44.8,22.8,44.8,22.8,44.9"/>
			<path class="st0" d="M2,44.7L2,44.7L2,44.7C2,44.7,2.1,44.7,2,44.7L2,44.7"/>
			<path class="st0" d="M22.9,40.4l-0.1,0.1c0,0,0.1,0,0.1,0V40.4C23,40.4,22.9,40.4,22.9,40.4"/>
			<path class="st0" d="M22.8,41.6L22.8,41.6L22.8,41.6L22.8,41.6C22.7,41.6,22.8,41.6,22.8,41.6"/>
			<path class="st0" d="M2.2,60.8L2.2,60.8L2.2,60.8L2.2,60.8L2.2,60.8"/>
			<path class="st0" d="M2.1,66.9H1.9l0,0C1.9,66.9,2,66.9,2.1,66.9C2,66.9,2,66.9,2.1,66.9"/>
			<path class="st0" d="M2,67.7L2,67.7L2,67.7L2,67.7L2,67.7"/>
			<path class="st0" d="M20.8,73.1l0.1-0.1c0,0-0.1,0-0.1,0C20.8,73,20.8,73.1,20.8,73.1C20.8,73.2,20.8,73.1,20.8,73.1"/>
			<path class="st0" d="M2.7,62.3l0.1,0.2v-0.2L2.7,62.3"/>
			<path class="st0" d="M3,19.4L3,19.4L3,19.4C3,19.5,3,19.5,3,19.4C3,19.4,3,19.4,3,19.4"/>
			<path class="st0" d="M18.3,67.3c0,0,0-0.1,0.1-0.1h-0.1C18.2,67.2,18.2,67.3,18.3,67.3L18.3,67.3"/>
			<path class="st0" d="M18.1,79.3L18.1,79.3L18.1,79.3L18.1,79.3"/>
			<path class="st0" d="M18,79.4l0.1-0.1l-0.2,0.1H18"/>
			<path class="st0" d="M17.5,80.6c0,0,0.1-0.1,0.1-0.1c0,0-0.1,0-0.1,0C17.5,80.5,17.4,80.5,17.5,80.6
				C17.4,80.6,17.5,80.6,17.5,80.6"/>
			<path class="st0" d="M17.2,70.4c0,0,0.1-0.1,0.1-0.1c0,0-0.1,0-0.1-0.1c-0.1-0.1-0.1,0.1-0.1,0.1C17.1,70.4,17.2,70.4,17.2,70.4"
				/>
			<path class="st0" d="M17.1,74.1h0.1V74h-0.1C17.1,74,17.1,74,17.1,74.1"/>
			<path class="st0" d="M3.5,76.8H3.2l0,0l0,0H3.5"/>
		</g>
		<polygon class="st0" points="3.6,72.8 3.7,72.8 3.6,72.8 		"/>
		<g>
			<path class="st0" d="M3.9,49.5c0,0-0.1-0.1-0.1-0.1c0,0-0.1,0-0.1,0c0,0,0,0.1,0.1,0.1C3.8,49.5,3.9,49.4,3.9,49.5"/>
			<path class="st0" d="M3.9,49.9L3.9,49.9L3.9,49.9L3.9,49.9C3.9,49.9,3.9,49.9,3.9,49.9"/>
			<path class="st0" d="M3.9,71.3C3.9,71.3,3.9,71.3,3.9,71.3L4,71.3c0,0,0,0,0.1,0L3.9,71.3"/>
			<path class="st0" d="M15.1,80.8h0.1H15.1L15.1,80.8L15.1,80.8"/>
		</g>
		<polygon class="st0" points="4.2,59.8 4.3,59.8 4.2,59.8 		"/>
		<g>
			<path class="st0" d="M13.8,73.3L13.8,73.3l0.1,0C13.9,73.3,13.9,73.3,13.8,73.3C13.8,73.3,13.9,73.3,13.8,73.3"/>
			<path class="st0" d="M4.5,60.8l-0.2,0.1h0.3L4.5,60.8"/>
			<path class="st0" d="M4.3,67.1C4.3,67.1,4.3,67.1,4.3,67.1C4.3,67.2,4.3,67.2,4.3,67.1C4.3,67.2,4.3,67.2,4.3,67.1"/>
			<path class="st0" d="M13.7,70.8L13.7,70.8h-0.1H13.7L13.7,70.8"/>
			<path class="st0" d="M13.3,68.3L13.3,68.3l0.1,0.1c0,0,0,0,0-0.1L13.3,68.3"/>
			<path class="st0" d="M13.1,70.8c0,0,0.1,0.1,0.1,0.1h0.1c0,0,0-0.1-0.1-0.1C13.1,70.8,13.1,70.8,13.1,70.8"/>
			<path class="st0" d="M13.1,59.6c0,0,0.1,0.1,0.1,0.1c0,0,0.1-0.1,0.1-0.1C13.2,59.5,13.2,59.6,13.1,59.6
				C13.1,59.5,13.1,59.5,13.1,59.6"/>
			<path class="st0" d="M4.9,72L4.9,72L4.9,72C4.8,72,4.8,72,4.9,72L4.9,72"/>
			<path class="st0" d="M9.7,64.6C9.7,64.6,9.7,64.6,9.7,64.6L9.7,64.6C9.8,64.6,9.8,64.6,9.7,64.6L9.7,64.6"/>
			<path class="st0" d="M8.6,81.7l0.1,0.1c0,0,0.1,0,0.1,0C8.8,81.7,8.8,81.7,8.6,81.7L8.6,81.7"/>
			<path class="st0" d="M8.5,86.3L8.5,86.3L8.5,86.3C8.4,86.3,8.5,86.3,8.5,86.3"/>
			<path class="st0" d="M8.5,81.4C8.5,81.4,8.5,81.4,8.5,81.4l-0.1-0.1v0.1H8.5"/>
		</g>
		<polygon class="st0" points="5.8,86.2 5.9,86.2 5.9,86.2 		"/>
		<polygon class="st0" points="6.1,80.4 6.2,80.4 6.1,80.4 		"/>
		<polygon class="st0" points="6.3,34.1 6.4,34.1 6.4,34 		"/>
		<polygon class="st0" points="6.6,83.2 6.7,83.1 6.6,83.1 		"/>
		<polygon class="st0" points="5.3,75 5.4,75 5.3,75 		"/>
		<polygon class="st0" points="5.1,64.8 5.1,64.8 5.1,64.8 		"/>
		<polygon class="st0" points="11.7,83 11.8,83 11.8,83 		"/>
		<path class="st0" d="M12.4,57.3L12.4,57.3L12.4,57.3L12.4,57.3"/>
		<polygon class="st0" points="4.8,3.3 4.9,3.3 4.8,3.2 		"/>
		<g>
			<path class="st0" d="M12.6,72.2L12.6,72.2L12.6,72.2L12.6,72.2C12.7,72.2,12.7,72.2,12.6,72.2"/>
			<path class="st0" d="M4.7,39.7L4.7,39.7l-0.3-0.2l0,0L4.7,39.7"/>
			<path class="st0" d="M13.4,82.4L13.4,82.4L13.4,82.4L13.4,82.4"/>
			<path class="st0" d="M4.2,68.5L4.2,68.5L4.2,68.5L4.2,68.5L4.2,68.5"/>
		</g>
		<polygon class="st0" points="13.6,72 13.6,72.1 13.6,72 		"/>
		<path class="st0" d="M13.5,82.3L13.5,82.3L13.5,82.3L13.5,82.3L13.5,82.3"/>
		<polygon class="st0" points="4,65.6 4.1,65.5 4,65.5 		"/>
		<g>
			<path class="st0" d="M4.1,57.4L4.1,57.4H4C4,57.4,4,57.4,4.1,57.4C4.1,57.4,4.1,57.4,4.1,57.4"/>
			<path class="st0" d="M3.7,60.2L3.7,60.2L3.7,60.2L3.7,60.2"/>
		</g>
		<polygon class="st0" points="3.8,4 3.8,4 3.8,4 		"/>
		<path class="st0" d="M16.4,70L16.4,70z"/>
		<polygon class="st0" points="3.5,48.1 3.6,48.1 3.6,48.1 		"/>
		<g>
			<path class="st0" d="M3,50.7L3,50.7L3,50.7L3,50.7"/>
			<path class="st0" d="M18.9,78.1L18.9,78.1L18.9,78.1L18.9,78.1z"/>
		</g>
		<polygon class="st0" points="21.3,47.7 21.4,47.7 21.3,47.6 		"/>
		<polygon class="st0" points="2.2,70 2.3,70 2.2,70 		"/>
		<polygon class="st0" points="22.4,44.4 22.4,44.4 22.4,44.4 		"/>
		<polygon class="st0" points="22.6,62.9 22.7,62.9 22.6,62.9 		"/>
		<path class="st0" d="M24,21.1L24,21.1L24,21.1L24,21.1z"/>
		<polygon class="st0" points="23.9,78.1 23.9,78.1 24,78.1 		"/>
		<g>
			<path class="st0" d="M24.7,49.8L24.7,49.8L24.7,49.8C24.7,49.8,24.6,49.8,24.7,49.8L24.7,49.8"/>
			<path class="st0" d="M25,54.9C25,54.9,25,54.9,25,54.9C25,54.9,25,54.9,25,54.9C25,54.9,24.9,54.9,25,54.9L25,54.9"/>
		</g>
		<polygon class="st0" points="25.2,42.2 25.3,42.2 25.2,42.1 		"/>
		<path class="st0" d="M15.8,64.5c-0.1,0-0.1,0-0.2,0c-0.1,0.1-0.3,0.2-0.3,0.3c0.1,0.2,0.1,0.4,0.3,0.5c0.1-0.2,0.2-0.3,0.3-0.5
			C15.9,64.7,15.9,64.6,15.8,64.5"/>
		<path class="st0" d="M15.6,65.3L15.6,65.3L15.6,65.3L15.6,65.3L15.6,65.3"/>
		<path class="st0" d="M16.4,62.1c0-0.1,0.1-0.1,0-0.2c-0.1-0.1-0.1,0-0.2-0.1c0,0.1-0.1,0.1-0.1,0.2L16.4,62.1"/>
		<path class="st0" d="M16.2,59.6L16.2,59.6L16.2,59.6C16.3,59.6,16.3,59.6,16.2,59.6L16.2,59.6"/>
		<path class="st0" d="M15.6,65.3c0,0,0,0.1,0,0.1h0.3L15.6,65.3"/>
		<path class="st0" d="M15.6,65.5L15.6,65.5"/>
		<path class="st0" d="M15.8,63.7L15.8,63.7L15.8,63.7L15.8,63.7L15.8,63.7"/>
		<path class="st0" d="M10.7,46.2L10.7,46.2L10.7,46.2L10.7,46.2"/>
		<path class="st0" d="M10.7,46v0.3l0.2-0.2L10.7,46"/>
		<path class="st0" d="M8.4,44.6L8.4,44.6C8.4,44.6,8.4,44.6,8.4,44.6C8.5,44.7,8.5,44.7,8.4,44.6C8.5,44.6,8.5,44.6,8.4,44.6"/>
		<path class="st0" d="M7.6,41c0,0.1,0,0.2,0,0.3c0.1-0.1,0.1-0.2,0.2-0.2L7.6,41"/>
	</g>
</g>
</svg>
