<svg version="1.1" id="Layer_1" xmlns="http://www.w3.org/2000/svg" viewBox="0 0 41 47.5">

<g id="Artwork">
	<path class="st0" d="M32.7,28.4c0,0.3,0.2,0.6,0.6,0.6c0,0,0,0,0,0c0.3,0,0.6-0.3,0.6-0.6l0,0c0-0.3-0.3-0.6-0.6-0.6
		C32.9,27.9,32.7,28.1,32.7,28.4L32.7,28.4 M27.4,39.1c0.3,0,0.6-0.3,0.6-0.6S27.8,38,27.4,38s-0.6,0.3-0.6,0.6
		C26.8,38.9,27.1,39.1,27.4,39.1C27.4,39.1,27.4,39.1,27.4,39.1 M31.4,32.3c0.3,0,0.6-0.3,0.6-0.6l0,0c0-0.3-0.2-0.6-0.6-0.6
		c0,0,0,0,0,0c-0.3,0-0.6,0.3-0.6,0.6l0,0C30.8,32.1,31,32.3,31.4,32.3 M29.4,35.7c0.3,0,0.6-0.2,0.6-0.6c0,0,0,0,0,0
		c0-0.3-0.3-0.6-0.6-0.6l0,0c-0.3,0-0.6,0.3-0.6,0.6C28.8,35.5,29,35.7,29.4,35.7L29.4,35.7 M33.2,19.7c0.3,0,0.6-0.2,0.6-0.5
		c0,0,0,0,0,0c0-0.3-0.3-0.6-0.6-0.6c-0.3,0-0.6,0.3-0.6,0.6l0,0C32.7,19.4,32.9,19.7,33.2,19.7C33.3,19.7,33.3,19.7,33.2,19.7
		 M26.9,9c0,0.3,0.3,0.6,0.6,0.6s0.6-0.3,0.6-0.6c0-0.3-0.3-0.6-0.6-0.6C27.2,8.4,26.9,8.6,26.9,9C26.9,8.9,26.9,9,26.9,9
		 M30.8,15.8c0,0.3,0.3,0.6,0.6,0.6c0.3,0,0.6-0.3,0.6-0.6l0,0c0-0.3-0.2-0.6-0.6-0.6c0,0,0,0,0,0C31.1,15.2,30.8,15.5,30.8,15.8
		L30.8,15.8 M28.8,12.4c0,0.3,0.3,0.6,0.6,0.6l0,0c0.3,0,0.6-0.2,0.6-0.6c0,0,0,0,0,0c0-0.3-0.3-0.6-0.6-0.6l0,0
		C29.1,11.8,28.8,12,28.8,12.4 M7.8,27.9c-0.3,0-0.6,0.3-0.6,0.6l0,0c0,0.3,0.2,0.6,0.6,0.6c0,0,0,0,0,0c0.3,0,0.6-0.3,0.6-0.6l0,0
		C8.4,28.1,8.1,27.9,7.8,27.9 M14.2,38.6c0-0.3-0.3-0.6-0.6-0.6l0,0c-0.3,0-0.6,0.3-0.6,0.6s0.3,0.6,0.6,0.6
		C13.9,39.1,14.2,38.9,14.2,38.6L14.2,38.6 M10.2,31.7c0-0.3-0.2-0.6-0.6-0.6c0,0,0,0,0,0c-0.3,0-0.6,0.3-0.6,0.6l0,0
		c0,0.3,0.3,0.6,0.6,0.6C10,32.3,10.2,32.1,10.2,31.7L10.2,31.7 M12.2,35.1c0-0.3-0.3-0.6-0.6-0.6l0,0c-0.3,0-0.6,0.3-0.6,0.6
		c0,0.3,0.3,0.6,0.6,0.6l0,0C11.9,35.7,12.2,35.5,12.2,35.1C12.2,35.2,12.2,35.2,12.2,35.1 M8.4,19.1c0-0.3-0.3-0.6-0.6-0.6
		c-0.3,0-0.6,0.3-0.6,0.6l0,0c0,0.3,0.2,0.6,0.6,0.6c0,0,0,0,0,0C8.1,19.7,8.4,19.4,8.4,19.1L8.4,19.1 M13.6,8.4
		C13.3,8.4,13,8.6,13,9s0.3,0.6,0.6,0.6c0.3,0,0.6-0.3,0.6-0.6S13.9,8.4,13.6,8.4L13.6,8.4 M9.6,15.2c-0.3,0-0.6,0.3-0.6,0.6l0,0
		c0,0.3,0.3,0.6,0.6,0.6c0.3,0,0.6-0.3,0.6-0.6l0,0C10.2,15.5,10,15.2,9.6,15.2C9.6,15.2,9.6,15.2,9.6,15.2 M11.6,11.8
		c-0.3,0-0.6,0.3-0.6,0.6c0,0.3,0.3,0.6,0.6,0.6l0,0c0.3,0,0.6-0.2,0.6-0.6c0,0,0,0,0,0C12.2,12,11.9,11.8,11.6,11.8L11.6,11.8
		 M3.3,15.1l2,3.4l2-3.4L3.3,15.1z M5.3,11.7l2,3.4l1.9-3.4H5.3z M7.3,8.4l1.9,3.4l2-3.4H7.3z M3.3,32.4h3.9l-2-3.4L3.3,32.4z
		 M5.3,35.8h3.9l-1.9-3.4L5.3,35.8z M7.3,39.2h3.9l-2-3.4L7.3,39.2z M37.7,15.1h-3.9l2,3.4L37.7,15.1z M35.8,11.7h-4l2,3.4
		L35.8,11.7z M33.9,8.4h-3.9l2,3.4L33.9,8.4z M37.7,32.4L35.8,29l-2,3.4H37.7z M35.8,35.8l-2-3.4l-2,3.4H35.8z M33.9,39.2l-2-3.4
		l-2,3.4H33.9z M37.5,23.8l2.4-2.3V26L37.5,23.8z M41,18.4l-5.6,5.3l5.6,5.4V18.4z M29.5,23.8l1.7,2.9l1.7-2.9l-1.7-2.9L29.5,23.8z
		 M1.2,26v-4.6l2.4,2.3L1.2,26z M0,29.1l5.6-5.4L0,18.4V29.1z M20.5,3l-1.9,3.6h3.8L20.5,3z M15.9,8.1l4.6-8l4.6,8H15.9z M22.4,41
		h-3.8l1.9,3.6L22.4,41z M25.1,39.5l-4.6,8l-4.6-8H25.1z M22.5,33.9l-1.9-3.4h3.9l-2-3.4h3.9l-2-3.4l2-3.4h-3.9l2-3.4h-3.9l1.9-3.4
		h-3.9l2,3.4h-3.9l2,3.4h-3.9l2,3.4l-2,3.4h3.9l-2,3.4h3.9l-2,3.4H22.5z M24.9,33.3l1.7,3H14.4l1.7-3c0-0.1,0-0.2,0-0.2
		c0-0.1-0.1-0.1-0.2-0.1h-3.5l1.7-3c0-0.1,0-0.2,0-0.2c0-0.1-0.1-0.2-0.3-0.2h-3.4l3.3-5.6c0,0,0-0.1,0-0.1c0,0,0-0.1,0-0.1L10.5,18
		h3.4c0.1,0,0.2-0.1,0.2-0.2c0,0,0-0.1,0-0.1l-1.7-3h3.5c0.1,0,0.2,0,0.2-0.1c0-0.1,0-0.2,0-0.2l-1.7-3h12.2l-1.7,3
		c0,0.1,0,0.2,0,0.2c0,0.1,0.1,0.1,0.2,0.1h3.5l-1.7,3c0,0.1,0,0.2,0,0.2c0,0.1,0.1,0.1,0.2,0.1h3.5l-3.3,5.7c0,0.1,0,0.2,0,0.2
		l3.3,5.6h-3.5c-0.1,0-0.2,0-0.2,0.1c0,0.1,0,0.2,0,0.2l1.7,3h-3.5c-0.1,0-0.2,0-0.2,0.1C24.9,33.1,24.9,33.2,24.9,33.3 M20.5,26.5
		c0.1,0,0.2,0,0.2-0.1l1.5-2.5c0-0.1,0-0.2,0-0.2l-1.5-2.5c0-0.1-0.1-0.1-0.2-0.1c-0.1,0-0.2,0.1-0.2,0.1l-1.5,2.5c0,0,0,0.1,0,0.1
		c0,0,0,0.1,0,0.1l1.5,2.5C20.3,26.4,20.4,26.5,20.5,26.5 M22.5,27.1l-1.9,3.4l-2-3.4l-2-3.4l2-3.4l2-3.4l1.9,3.4l2,3.4L22.5,27.1z
		 M20.5,21.7l-1.2,2l1.2,2l1.2-2L20.5,21.7z M11.6,23.7l-1.6,3l-1.7-2.9l1.7-2.9L11.6,23.7z"/>
</g>
</svg>
