<svg version="1.1" id="Layer_1" xmlns="http://www.w3.org/2000/svg" viewBox="0 0 29.5 31.7">

<g id="Artwork">
	<g>
		<path class="st0" d="M24.3,12c-1.6,0.2-3.2,0.4-4.9,0.7c-0.9,0.2-1.8,0.4-2.7,0.7c-1.7,0.6-3,2-3.5,3.8c-0.5,1.9-0.8,3.7-1,5.7
			c0,0.4-0.1,0.7-0.2,1.1L12,22.1c-0.1-1.7-0.4-3.3-0.9-4.9c-0.5-2-2.1-3.6-4.1-4.1c-2-0.5-4-0.8-6-1c-0.3,0-0.6-0.1-0.9-0.1
			l2.2-0.2c1.8-0.2,3.5-0.5,5.2-1c1.8-0.6,3.2-2.1,3.6-4c0.5-2.1,0.9-4.2,1-6.3V0.2c0,0,0,0,0.1-0.1c0.1,0.6,0.1,1.2,0.2,1.8
			c0.2,1.6,0.4,3.3,0.9,4.9c0.5,2.1,2.1,3.7,4.2,4.2c2,0.5,4,0.8,6,1L24.3,12"/>
		<path class="st0" d="M7.9,23c0.1,0.5,0.1,1,0.2,1.4c0,1.4,1.1,2.6,2.5,2.6c0,0,0,0,0,0c0.5,0.1,1.1,0.1,1.7,0.2l-2.1,0.3
			c-1.1,0.1-1.9,1-2,2.1c-0.1,0.5-0.1,1-0.2,1.5l-0.1,0.5c-0.1-0.8-0.2-1.5-0.4-2.2c-0.1-1-0.9-1.8-1.9-1.9
			c-0.7-0.1-1.4-0.2-2.2-0.4c0.5-0.1,0.8-0.1,1.2-0.2C5,27,5.5,26.9,6,26.8c0.8-0.2,1.4-0.9,1.5-1.7c0.1-0.6,0.2-1.2,0.3-1.8L7.9,23
			L7.9,23"/>
		<path class="st0" d="M23.8,14c0.8-0.2,1.5-0.1,2.1-0.6s0.5-1.3,0.7-2c0.1,0.4,0.1,0.7,0.2,1.1c0.1,0.7,0.7,1.3,1.4,1.4l1.2,0.2
			L28,14.2c-0.6,0.1-1.1,0.6-1.2,1.2c-0.1,0.4-0.1,0.7-0.3,1.1c0-0.2-0.1-0.4-0.1-0.7c-0.2-1.2-0.6-1.6-1.8-1.8L23.8,14"/>
	</g>
</g>
</svg>
