<svg xmlns="http://www.w3.org/2000/svg" viewBox="0 0 46.1 12.2">
<g id="Artwork">
	<g>
		<path class="st0" d="M40.9,2.2c-0.7-0.9-0.5-1.8,0.5-2.1c1.7-0.4,3.5,0.5,4.1,2.2c1.1,3,0.3,6.3-2.1,8.3c-1.5,1.1-3.3,1.6-5.1,1.6
			c-4.2,0.3-8.3-1-11.6-3.7c-1.1-0.8-2-1.7-2.7-2.7c-1.4-2.2,0-3.8,2.2-4.1c2.6-0.3,4.4,1.1,6,2.9c1.6,1.9,3.7,3.2,6.1,3.9
			c1.7,0.5,3.4,0.5,4.7-1c1.4-1.4,1.8-3.6,1-5.4c-0.2-0.4-0.5-0.8-0.9-1C41.9,0.3,41,0.8,40.9,2.2" />
		<path class="st0" d="M5.2,2.2c0.7-0.9,0.5-1.8-0.5-2.1C3-0.3,1.2,0.6,0.6,2.3c-1.1,3-0.3,6.3,2.1,8.3c1.5,1.1,3.3,1.6,5.1,1.6
			c4.2,0.3,8.3-1,11.6-3.7c1-0.8,2-1.7,2.7-2.7c1.5-2.2,0-3.8-2.2-4.1c-2.6-0.3-4.4,1.1-6,2.9c-1.6,1.9-3.8,3.2-6.1,3.9
			C6.2,9,4.5,9.1,3.2,7.5C1.8,6.1,1.4,4,2.2,2.1c0.2-0.4,0.5-0.8,0.9-1C4.2,0.3,5.1,0.8,5.2,2.2"/>
	</g>
</g>
</svg>
