<svg version="1.1" id="Layer_1" xmlns="http://www.w3.org/2000/svg" viewBox="0 0 32.4 54">

<g id="Artwork">
	<g>
		<path class="st0" d="M14.4,23.2c-1.1-1.7-2.3-3.3-3.7-4.8c-2-2.3-4.1-4.7-5.1-7.1c0.6,3.5,3,6.4,5.2,9.2s4.4,5.4,5.1,8.8
			C15.9,27.2,15.3,25.1,14.4,23.2"/>
		<path class="st0" d="M8.8,22.7c-2.7-2.3-5.7-4.9-7.2-7.5c0.8,3.7,4,6.6,7.1,9.4s6.2,5.6,7.1,9.2c0-2.4-0.9-4.7-2.4-6.6
			C12.1,25.6,10.5,24.1,8.8,22.7"/>
		<path class="st0" d="M16.2,22.4c0-4.1-5.4-6.7-5.4-10.7c0-2.8,1.1-3.5,2.8-3.7c-0.9,0.2-1.5,0.9-1.5,2.7c0,3.1,2.3,5,4.1,5
			c1.8,0,4.1-1.9,4.1-5c0-1.8-0.6-2.4-1.5-2.7c1.7,0.2,2.8,0.9,2.8,3.7C21.6,15.8,16.2,18.4,16.2,22.4 M16.2,0
			c0,5.1-6.8,5.1-6.8,10.2s6.8,8.4,6.8,13.5c0-5.1,6.8-8.4,6.8-13.5S16.2,5.1,16.2,0"/>
		<path class="st0" d="M18.9,27.2c-1.5,1.9-2.3,4.2-2.4,6.6c0.9-3.6,4.1-6.4,7.1-9.2s6.3-5.7,7.2-9.4c-1.5,2.6-4.5,5.2-7.2,7.5
			C21.9,24.1,20.3,25.6,18.9,27.2"/>
		<path class="st0" d="M7.8,29.8c3.4,2.3,7,4.6,7.9,8.3v0.1c-0.1-2.6-1.2-5.1-3.2-6.9c-1.7-1.4-3.4-2.7-5.3-3.7
			c-2.8-1.7-5.6-3.4-7.3-6C0.9,25.2,4.4,27.5,7.8,29.8"/>
		<path class="st0" d="M24.6,29.8c3.4-2.3,6.9-4.6,7.8-8.2c-1.7,2.5-4.6,4.2-7.3,6c-1.9,1.1-3.7,2.3-5.3,3.7c-2,1.8-3.1,4.3-3.2,6.9
			v-0.1C17.6,34.4,21.1,32.1,24.6,29.8"/>
		<path class="st0" d="M7.8,35.1c3.4,2.3,7,4.6,7.9,8.3v0.1c-0.1-2.6-1.2-5.1-3.2-6.9c-1.6-1.4-3.4-2.6-5.3-3.7
			c-2.8-1.7-5.6-3.5-7.3-6C0.9,30.5,4.4,32.8,7.8,35.1"/>
		<path class="st0" d="M24.6,35.1c3.4-2.3,6.9-4.6,7.8-8.2c-1.7,2.5-4.6,4.3-7.3,6c-1.9,1.1-3.7,2.3-5.3,3.7c-2,1.8-3.1,4.3-3.2,6.9
			v-0.1C17.6,39.7,21.1,37.4,24.6,35.1"/>
		<path class="st0" d="M7.8,40.4c3.4,2.3,7,4.6,7.9,8.3v0.1c-0.1-2.6-1.2-5.1-3.2-6.9c-1.7-1.4-3.4-2.7-5.3-3.7
			c-2.8-1.7-5.6-3.4-7.3-6C0.9,35.8,4.4,38.1,7.8,40.4"/>
		<path class="st0" d="M24.6,40.4c3.4-2.3,6.9-4.6,7.8-8.2c-1.7,2.5-4.6,4.2-7.3,6c-1.9,1.1-3.7,2.3-5.3,3.7c-2,1.8-3.1,4.2-3.2,6.9
			v-0.1C17.6,44.9,21.1,42.7,24.6,40.4"/>
		<path class="st0" d="M7.8,45.7c3.4,2.3,7,4.6,7.9,8.3V54c-0.1-2.6-1.2-5.1-3.2-6.9c-1.7-1.4-3.4-2.7-5.3-3.7
			c-2.7-1.7-5.6-3.5-7.3-6C0.9,41.1,4.4,43.4,7.8,45.7"/>
		<path class="st0" d="M24.6,45.7c3.4-2.3,6.9-4.6,7.8-8.2c-1.7,2.5-4.6,4.2-7.3,6c-1.9,1.1-3.7,2.3-5.3,3.7c-2,1.8-3.1,4.3-3.2,6.9
			V54C17.6,50.3,21.1,48,24.6,45.7"/>
		<path class="st0" d="M18,23.2c-1,1.9-1.5,4-1.5,6.1c0.7-3.3,3-6.1,5.1-8.8s4.6-5.7,5.2-9.2c-1,2.4-3.1,4.8-5.1,7.1
			C20.3,19.9,19.1,21.5,18,23.2"/>
	</g>
</g>
</svg>
