<svg version="1.1" id="Layer_1" xmlns="http://www.w3.org/2000/svg" viewBox="0 0 47.5 46.1">

<g id="Artwork">
	<path class="st0" d="M11.3,29.5c-0.5,0.7-1,1.4-1.5,2.1l-0.4,0.5c-0.2-0.3-0.5-0.4-0.5-0.8c-0.3-0.1-0.3-0.5-0.5-0.7
		c0.2-0.3,0.5-0.6,0.9-0.7c0.1,0,0.2-0.1,0.3-0.1c0.2-0.3,0.5-0.5,0.9-0.6c0,0,0.1,0,0.1-0.1c0.5-0.5,1-0.9,1.6-1.3
		c0.3-0.3,0.7-0.6,1-0.9l0.1,0.1c-0.1,0.2-0.3,0.4-0.4,0.6C12.3,28.3,11.7,28.9,11.3,29.5 M11.5,35.1c0,0-0.1-0.1-0.1-0.2
		c0,0,0-0.1,0-0.1c0.1-0.1,0.4-0.1,0.4-0.4h0.3C12.1,34.8,12.1,34.8,11.5,35.1 M8,26.7h0.5c0,0.1,0,0.1,0,0.2L8,26.7 M7.7,27.1
		c0-0.1,0-0.2-0.1-0.3C7.7,26.9,7.9,27,7.7,27.1 M7.6,27.7c-0.1-0.1-0.1-0.1,0-0.5L7,27.7c-0.5-0.9-1-1.8-1.4-2.8
		c0.2-0.4,0.6-0.7,1-0.6l-0.5-0.2c-0.3,0.3-0.3,0.3-0.6,0l0.2-0.3C5.9,24,6,24,6.2,23.8C6.3,24,6.4,24.1,6.7,24
		c0.1,0,0.2,0.1,0.3,0.1L7.4,24l0.3-0.2l-0.1-0.2h0.1c0.1,0,0.2,0.2,0.4,0c0.2-0.2,0.5-0.3,0.8-0.4c0.3-0.1,0.6-0.3,0.9-0.5
		c0.2-0.2,0.4-0.3,0.6-0.5c0.2-0.2,0.3-0.1,0.4-0.2c0.3-0.2,0.6-0.4,0.9-0.6c0.3-0.2,0.1-0.1,0.4-0.1c0,0.1,0,0.2-0.1,0.2
		c-0.8,0.6-1.5,1.4-2.1,2.1c-0.1,0.1-0.2,0.2-0.3,0.4c-0.2,0.2-0.3,0.5-0.5,0.7c-0.2,0.2-0.1,0.3-0.3,0.3c-0.2,0-0.2,0.2-0.2,0.3
		S8.3,25.8,8,26c0,0,0,0.1,0,0.1c0,0.2-0.1,0.3-0.3,0.4c-0.2,0.1-0.1,0.2-0.2,0.3l0,0C7.5,27,7.5,27,7.7,27.1l0,0l0.1,0.1
		C7.7,27.3,7.7,27.5,7.6,27.7 M7.4,28L7.4,28c-0.1,0-0.1-0.1-0.1-0.2h0.1L7.4,28z M6.9,32.4L7,32.3c0.1,0,0.1,0.1,0.2,0.2l-0.1,0.1
		L6.9,32.4 M7.2,33.8c0,0-0.1-0.1-0.2-0.1c0.2-0.1,0.3,0,0.3,0.2C7.3,33.8,7.2,33.8,7.2,33.8 M6.4,32.7c-0.2-0.1-0.1-0.3-0.1-0.4
		l0.2-0.2C6.4,32.3,6.4,32.5,6.4,32.7 M5.8,31.7C6,31.8,6.2,32,6.3,32.3C6,32.2,6,31.9,5.8,31.7 M4.8,21.9c-0.1,0.1-0.2,0.2-0.3,0.3
		c-0.4-1-0.7-2.1-0.8-3.1l0.5-0.2c0.2,0.5,0.6,0.9,1,1.2c0.2,0,0.5-0.1,0.7-0.1c0.1,0,0.2-0.2,0.2-0.2l1-0.2c-0.4,0.4-0.7,0.7-1,1
		c-0.1,0.1-0.2,0.3-0.4,0.5c-0.1,0.1-0.2,0.2-0.4,0.3C5.2,21.3,5,21.6,4.8,21.9 M4.3,29c0,0,0-0.1,0-0.1h0.1c0,0.1,0,0.1,0.1,0.3
		C4.4,29.1,4.3,29.1,4.3,29 M4.2,28.7C4.2,28.7,4.1,28.7,4.2,28.7c-0.1-0.1-0.1-0.1,0-0.2L4.2,28.7C4.3,28.7,4.2,28.7,4.2,28.7
		 M3.5,17.5c0.1-0.2,0.2-0.4,0.3-0.6C4,17,4.3,17,4.4,16.8c0.2-0.2,0.4-0.3,0.7-0.3c0.2-0.1,0.5-0.3,0.7-0.4c0,0.1,0,0.2-0.1,0.2
		c-0.2,0.3-0.4,0.5-0.6,0.8c0,0.1-0.1,0.1-0.1,0.2c0,0,0.1,0.1,0.1,0c0-0.1,0.1-0.1,0.1-0.2c0,0,0,0,0.1,0c0.1,0.3-0.1,0.4-0.5,0.3
		c-0.1,0.1-0.2,0.2-0.2,0.4c0,0.1,0.1,0.1,0.2,0.2c0,0-0.1,0.1-0.1,0.1c-0.2,0-0.4,0.1-0.5,0.2c-0.1,0.1-0.3,0.3-0.5,0.4
		C3.6,18.3,3.5,17.9,3.5,17.5 M4.3,13.6l-0.5,0.5C3.7,13.8,3.7,13.7,4.3,13.6 M7.7,18.9C7.7,18.9,7.7,18.9,7.7,18.9H7.6v0L7.7,18.9
		 M5.1,10.1C5.1,10,5.2,9.9,5.3,9.8c0.1-0.1,0.3-0.2,0.1-0.4c0.2-0.1,0.3-0.1,0.5-0.2C5.9,9.1,6,8.9,6.1,8.8l0.7-0.7
		c0.1-0.3,0.4-0.4,0.6-0.6c0.1-0.1,0.3-0.2,0.4-0.3C8.1,7,8.4,6.8,8.6,6.6C8.8,6.4,9.2,6.3,9.4,6C9.4,6,9.5,5.9,9.6,6
		c0.2-0.1,0.5-0.2,0.7-0.3c0.3-0.2,0.7-0.4,1.1-0.5c0.4-0.1,0.8-0.3,1.1-0.4c0.3-0.1,0.5-0.1,0.8-0.2c0.3-0.1,0.7-0.1,1-0.1
		c-0.5,0.6-1.3,0.7-1.7,1.4c-0.1,0-0.2-0.1-0.3,0c-0.2,0.2-0.4,0.3-0.7,0.5l0,0c-0.4,0.1-0.8,0.3-1.1,0.5c-0.5,0.3-1,0.7-1.5,1
		C8.7,8.2,7.9,8.6,7.3,9c-0.3,0.2-0.7,0.4-1,0.6c0,0.1,0,0.2,0,0.3C5.9,9.8,5.8,10,5.5,10.2c-0.2,0.2-0.5,0.3-0.7,0.5
		C4.9,10.5,4.9,10.3,5.1,10.1 M11.8,6.6l-0.2-0.3H12L11.8,6.6 M14.6,6.6c0.3-0.1,0.5-0.4,0.8-0.5c0.4-0.2,0.7-0.5,1.1-0.8
		c0.3-0.2,0.3-0.2,0.6,0c0.1,0.1,0.3,0.1,0.4,0.1L18,6c0.3,0.3,0.5,0.7,0.6,1.2c0.2,0.7,0.5,1.4,0.7,2.2c0.2,0.7,0.3,1.4,0.5,2.2
		c0.1,0.4,0.2,0.7,0.3,1c0,0.1,0.1,0.2,0.1,0.3c0,0.5,0,0.5-0.5,0.6h-0.1c-0.7,0.3-1.4,0.7-2.1,1c-0.4,0.2-0.9,0.4-1.3,0.5
		c0.2-0.1,0.4-0.3,0.6-0.4c0.5-0.4,0.9-0.8,1.4-1.2c0.1-0.1,0.2-0.2,0.2-0.2c0.4,0,0.5-0.4,0.7-0.6c0.2-0.2,0.3-0.6,0.3-0.9
		c0-0.1,0-0.3-0.1-0.3C19,11.3,19,11,18.9,10.8c-0.2-0.1,0-0.1,0-0.2c0-0.3,0-0.3-0.2-0.4c-0.2,0-0.4,0-0.5,0c-0.1,0-0.3,0.1-0.4,0
		c-0.1-0.1-0.1,0-0.1,0c-0.6,0.1-1.2,0.4-1.8,0.8c-0.3,0.3-0.7,0.5-1.1,0.7l-1.8,1L12,13.2l-0.1-0.1c0.2-0.1,0.3-0.2,0.5-0.4
		c0.2-0.3,0.5-0.4,0.7-0.6s0.6-0.6,0.9-0.8l0.5-0.5c0.1-0.1,0.3-0.2,0.4-0.4c0.1-0.2,0.4-0.2,0.5-0.4c0.2-0.1,0.4-0.3,0.6-0.5
		c0.2-0.2,0.3-0.4,0.6-0.5c0.3-0.2,0.6-0.6,0.7-1c0-0.3,0-0.3-0.3-0.5c0-0.1,0.1-0.2,0.1-0.3h-0.2V6.8c-0.2,0-0.4-0.1-0.6-0.1
		c-0.4,0-0.8-0.1-1.2,0.3c-0.2,0.2-0.5,0.3-0.7,0.4c-0.1,0.1-0.3,0.1-0.3,0.3l0,0c-0.5,0-0.7,0.5-1.3,0.4C12.8,8,12.9,7.9,13,7.8
		c0.2-0.1,0.4-0.2,0.6-0.3c0.1-0.1,0.4-0.1,0.3-0.4c0,0,0.1-0.1,0.1-0.1C14.2,7,14.4,6.7,14.6,6.6 M20.1,34.3
		c-1.7,1.7-3.3,3.6-4.8,5.5c0,0-0.1,0-0.1,0c-0.4-0.3-0.5-0.9-1-1.1c0-0.1-0.1-0.3-0.1-0.4c-0.1-0.2,0-0.4,0.2-0.4c0,0,0.1,0,0.1,0
		c0.2,0,0.4-0.1,0.6-0.3c0.1-0.1,0.4-0.1,0.4-0.3h0.2c0-0.4,0.4-0.5,0.7-0.7c0.3-0.2,0.8-0.5,1.1-0.7c0.1-0.1,0.1-0.2,0.2-0.2
		c0.1-0.1,0.2-0.2,0.2-0.2c0.2,0,0.4-0.1,0.5-0.2l0,0l1.7-1.2h0.1C20.1,34.1,20.1,34.2,20.1,34.3 M19.2,45.4L19.2,45.4
		c0-0.1,0-0.1,0-0.1h0.1C19.3,45.3,19.2,45.4,19.2,45.4 M16.9,42.1c-0.3-0.1-0.4-0.2-0.3-0.5l0.3,0.1l2.1-1.1l0.1,0.1L16.9,42.1
		 M14.4,43.3c0.3,0,0.3,0,0.4,0.4L14.4,43.3 M2.7,7.7C2.7,7.7,2.6,7.7,2.7,7.7l0.2-0.4C2.9,7.5,2.8,7.6,2.7,7.7 M2.4,24.8
		c0-0.1-0.1-0.2-0.1-0.3h0.1L2.4,24.8L2.4,24.8 M2.1,22.6c0-0.1,0-0.2,0-0.3h0.1c0,0.1,0,0.2,0.1,0.3H2.1 M2,8.3
		c0.1,0.1,0.3,0,0.4,0.2L2.3,8.6L2,8.3L2,8.3 M1.6,10.6L1.6,10.6l0.1-0.3C1.9,10.5,1.7,10.5,1.6,10.6 M1.5,20h0.1c0,0.1,0,0.3,0,0.4
		C1.5,20.3,1.4,20.2,1.5,20 M1.5,22.3H1.2c0-0.4,0-0.4,0.3-0.6c-0.1,0.1-0.1,0.2-0.2,0.3l0.3,0.1L1.5,22.3 M1.3,19l0.2-0.3h0.1
		L1.3,19L1.3,19 M1.2,11.5L1,11.3c0.3-0.1,0.1-0.4,0.2-0.6C1.6,11.1,1.6,11.2,1.2,11.5 M20.4,44.8c0,0.1-0.1,0.2-0.1,0.3
		C20.1,44.9,20.2,44.8,20.4,44.8 M22,23.1c0,0,0,0.1,0.1,0.2L22,23.1L22,23.1 M22.4,23.1c0,0.1,0,0.2,0,0.3l-0.3-0.2L22.4,23.1
		 M23.8,34c0.3-0.2,0.6-0.5,0.8-0.8c0.2-0.2,0.3-0.4,0.6-0.6c0.4-0.2,0.7-0.5,1-0.8c0.2-0.2,0.4-0.3,0.6-0.5c0.3-0.3,0.6-0.6,1-0.8
		c0.2-0.1,0.4-0.3,0.5-0.5c0.3-0.2,0.6-0.5,0.8-0.7c0.1-0.1,0.3-0.1,0.4-0.2c0.3-0.2,0.6-0.5,0.8-0.7c0.3-0.2,0.5-0.3,0.7-0.5
		l0.2-0.2l1-0.7c0.1-0.1,0.2-0.1,0.3-0.1l-0.1-0.1l-0.2,0c0.1,0,0.1-0.1,0.2-0.1c0.4,0,0.7-0.2,0.9-0.5c0.3,0,0.4-0.3,0.6-0.4
		c0.5-0.2,0.9-0.4,1.3-0.8c0.4-0.3,0.8-0.6,1.2-0.8c0,0,0.1,0,0.1-0.1c0.3-0.4,0.7-0.5,1.1-0.7c0.3-0.3,0.8-0.5,1.1-0.7l1.3-0.9
		c0.1,0.1,0.1,0.3,0,0.5c-0.4,0.8-0.9,1.5-1.5,2.1c-0.2,0.2-0.4,0.2-0.5,0.3c-0.2,0.1-0.4,0.3-0.5,0.4l-1.5,1l-0.5,0.3
		c-0.1,0.1-0.2,0.1-0.2,0.2c-0.1,0.3-0.3,0.4-0.5,0.5c0,0-0.1,0.1-0.1,0.1c-0.4,0-0.8,0.2-1,0.5c0,0-0.1,0-0.2,0.1c0,0-0.1,0-0.2,0
		c-0.1,0.4-0.6,0.3-0.8,0.5c-0.1,0.1-0.1,0.2-0.2,0.3c0,0.1-0.1,0.2-0.2,0.2s-0.3,0-0.4,0.1l-2,1.2c-0.1,0.1-0.2,0.1-0.3,0.2
		l-0.5,0.2V31h-0.1c0-0.1-0.1-0.1-0.1-0.2l-0.4,0.3c0.1,0.1,0.1,0.2,0.1,0.3c-0.1,0-0.2,0-0.3,0c-0.1,0.1-0.2,0.2-0.3,0.3
		c0-0.2,0-0.3,0.1-0.4c0.1-0.1-0.1,0-0.1,0l-0.6,0.6l0.5-0.1c0.1,0.2,0,0.1-0.1,0.3c-0.1,0.2-0.3-0.1-0.4,0.1v-0.2l-0.7,0.6
		c0,0.1,0.1,0.4-0.2,0.4l0,0L25.5,33c0,0.1,0,0.1,0,0.2c0,0.1,0,0.3-0.2,0.4c-0.1,0.1-0.3,0.2-0.5,0.3l-1.5,0.8c-0.1,0-0.2,0-0.3,0
		c0.2-0.2,0.4-0.4,0.7-0.6 M24.1,20.8L24.1,20.8l0.8-0.7c0.1-0.1,0.3-0.2,0.3-0.4c0-0.1,0.1-0.1,0.2-0.2c0.4-0.3,0.8-0.6,1.2-0.9
		c0.2-0.2,0.5-0.5,0.6-0.7c0,0,0.1-0.1,0.1-0.1c0.4-0.2,0.8-0.5,1.2-0.9c0.1-0.1,0.1-0.2,0.2-0.3c0-0.1,0.2,0.1,0.2-0.1
		c0,0,0.1-0.1,0.1-0.1c0.3-0.1,0.5-0.2,0.7-0.5c0,0,0.1,0,0.1-0.1c0.4,0.2,0.9,0.1,1-0.4l0.4-0.1c-0.1,0.2-0.2,0.3-0.2,0.4
		c0.2-0.1,0.5,0,0.5-0.4c0.2,0,0.3-0.2,0.3-0.3c0.1,0,0.1,0,0.2,0v0.3c0.4-0.1,0.6-0.5,1-0.4c-0.1,0.1-0.1,0.2-0.2,0.2
		c-0.8,0.4-1.6,0.9-2.3,1.5c-0.6,0.4-1.2,0.8-1.8,1.2c-0.2,0.1-0.5,0.2-0.6,0.5c0,0-0.1,0-0.1,0.1c0,0.1-0.1,0-0.1,0
		c-0.1,0.3-0.4,0.2-0.6,0.4c-0.2,0.1-0.3,0.3-0.2,0.5c-0.3-0.1-0.5,0-0.6,0.2c-0.2,0.2-0.3,0.3-0.5,0.5L25.8,20
		c-0.6,0.2-1.1,0.6-1.5,1c-0.1,0.1-0.3,0.1-0.4,0.2L24.1,20.8 M24.1,20.7c0,0,0,0.1,0.1,0.1L24.1,20.7L24.1,20.7 M27.1,12.5
		c0,0.1-0.1,0.2-0.1,0.4H27c0-0.1-0.1-0.3-0.1-0.4L27.1,12.5 M28.7,10.5c-0.1,0.1-0.1,0.2-0.3,0H28.7 M29,10.2l-0.3,0.3
		C28.7,10.3,28.8,10.3,29,10.2 M30.4,9.3L30,9.6C30.1,9.3,30.2,9.2,30.4,9.3 M32.2,14.7L32.2,14.7l-0.2,0.2v-0.1L32.2,14.7
		 M33.4,14.6L33.4,14.6l-0.1,0.2l0,0L33.4,14.6 M33.7,13.7L33.7,13.7c0,0.1,0,0.2,0,0.4c0,0.1,0.1,0.2,0.1,0.3
		c-0.1,0.1-0.2,0-0.4-0.1C33.6,14.1,33.7,13.9,33.7,13.7 M35.6,18.9c0.5-0.4,1.1-0.7,1.6-1.1c0.2-0.1,0.4-0.3,0.6-0.3h0.1
		c0.1-0.4,0.5-0.5,0.8-0.7s0.2-0.5,0.5-0.5s0.4-0.2,0.6-0.4s0.4-0.2,0.5-0.4c0.2-0.1,0.5-0.4,0.8-0.6c0.3-0.2,0.7-0.4,1-0.6
		c0.3,0.2,0.2,0.5,0.2,0.7c0,0.5-0.2,0.9-0.2,1.4c0,0.1,0,0.2,0,0.3c-0.1,0.3-0.2,0.5-0.3,0.7c-0.1,0.2-0.1,0.3-0.4,0.3
		c-0.3,0-0.7,0.1-1,0.2c-0.9,0.5-1.8,0.9-2.6,1.3c-0.9,0.4-1.6,0.8-2.4,1.2s-1.3,0.7-2,1.1l-1.9,1L29,23.9c-0.4,0.2-0.7,0.4-1.1,0.6
		c0-0.1,0-0.2,0.1-0.2c0.4-0.2,0.8-0.4,1.1-0.7c0.5-0.6,1.2-0.8,1.7-1.4c0.1-0.1,0.3-0.2,0.5-0.3c0.2,0,0.3-0.2,0.2-0.4
		c0.3-0.1,0.6-0.2,0.7-0.5c0,0,0,0,0.1,0c0.6-0.3,1.1-0.6,1.6-1C34.5,19.7,35,19.3,35.6,18.9 M34.1,13.8c0,0,0.1,0,0.1-0.1l0.1,0.1
		c0,0.1-0.1,0.1-0.1,0.2S34,13.9,34.1,13.8 M34.4,13.7c0.3,0.2,0.2,0.2,0,0.4C34.4,13.9,34.4,13.8,34.4,13.7 M34.8,12l0.2-0.1
		c0,0.2-0.2,0.2-0.3,0.3L34.8,12 M35.8,11.3c0,0.1,0,0.1-0.1,0.2c-0.2,0.1-0.3,0.2-0.5,0.4c-0.1,0-0.2,0-0.3,0
		c0.2-0.2,0.4-0.4,0.6-0.5C35.7,11.3,35.7,11.3,35.8,11.3 M36.8,10.4c0.3-0.2,0.6-0.4,0.9-0.7c0.2-0.2,0.3-0.3,0.5-0.4
		c0.3-0.1,0.5-0.4,0.6-0.7c0.2-0.1,0.4-0.2,0.5-0.3C39.6,8.2,39.8,8,40,7.9c0.3-0.3,0.8-0.4,1.2-0.2h-0.4c0.1,0.2,0.1,0.4,0.1,0.6
		l-0.7,0.2l0.2,0.2l-0.2,0.1c0.1,0.2,0.1,0.4,0.1,0.7c-0.2-0.1-0.2-0.2-0.3-0.4l-0.4,0.3c0-0.1,0-0.2-0.1-0.2
		c-0.1,0.1-0.1,0.2-0.2,0.3c0,0-0.1,0-0.2,0s0-0.2-0.2-0.2c-0.2,0-0.2,0.1-0.1,0.3h-0.3c-0.2,0-0.3,0.1-0.3,0.3c0,0.3,0,0.3-0.4,0.5
		v-0.2c0,0,0-0.1-0.1-0.1c-0.4,0.1-0.4,0.2-0.5,0.8c-0.3,0-0.1-0.3-0.2-0.4c-0.4,0.1-0.5,0.2-0.4,0.6c-0.1-0.1-0.1-0.2-0.2-0.3
		c-0.2,0.2-0.5,0.4-0.8,0.4c0.1-0.1,0.1-0.3,0.1-0.3C36.2,10.8,36.5,10.6,36.8,10.4 M41,8.5L41,8.5l0.1-0.2h0.1L41,8.5 M39.8,9.6
		v0.4C39.5,10,39.6,9.9,39.8,9.6 M42.2,8.9c0.3,0.5,0.4,1,0.4,1.5c-0.6,0-1.2,0.1-1.7,0.3L38,11.9c-0.3,0.1-0.6,0.3-0.9,0.4
		c-0.1,0-0.1,0-0.2,0l0.9-0.6l0.4-0.2c0.2-0.1,0.4-0.2,0.6-0.3l0.8-0.6c0,0,0-0.1,0-0.2c0.5-0.3,0.9-0.5,1.4-0.8
		C41.3,9.4,41.7,9.1,42.2,8.9 M42.9,9.8l-0.2-0.3C42.8,9.5,42.9,9.6,42.9,9.8 M31.5,30.6c0.1-0.2,0.2-0.4,0.4-0.4
		c0.2-0.1,0.4-0.2,0.6-0.4c0.1-0.1,0.1-0.2,0.2-0.3c0.2,0.1,0.4,0,0.5-0.1c0.6-0.5,1.3-0.9,1.9-1.3c0.2-0.1,0.3-0.2,0.5-0.3
		C34.5,29.1,33.1,30,31.5,30.6 M30.6,30c0,0,0-0.1,0-0.1h0.1l0,0L30.6,30 M29.3,30.6l0.1-0.2C29.6,30.5,29.5,30.6,29.3,30.6
		 M43.5,13.3c0,0.2,0,0.2-0.2,0.1L43.5,13.3 M43.6,15.1L43.6,15.1l0,0.2h-0.1L43.6,15.1z M43.6,13.7c0.1-0.2,0.1-0.5,0.2-0.8
		c0-0.3,0.1-0.3,0.4-0.2c0,0.2,0,0.4,0,0.5c-0.1,0.1-0.2,0.2-0.3,0.3c-0.1,0.1-0.1,0.3-0.2,0.4C43.6,13.8,43.6,13.8,43.6,13.7
		 M13.4,42.6c0.2,0.3,0.5,0.5,0.7,0.7c0.2,0.3,0.5,0.4,0.8,0.5c0.1,0,0.2,0,0.4,0.1c0.3,0.2,0.5,0.5,0.7,0.7c0.3,0.3,0.5,0.7,0.7,1
		c0.2,0.1,0.4,0.1,0.5,0.2c0.2,0,0.2,0.2,0.5,0.1c0.2-0.1,0.3,0.1,0.4,0.1c0-0.3,0.3-0.5,0.5-0.5c0,0,0,0,0,0
		c0.5,0.1,0.9-0.1,1.2-0.4c0.1-0.1,0.3-0.2,0.4-0.2l0,0l0.8-0.5h0.1c-0.1,0-0.2,0-0.1-0.1s0.1,0,0.1-0.1v0.2l0.4-0.2l1.4-0.9
		l1.2-0.7c0.2-0.1,0.3-0.3,0.4-0.3c0.2-0.1,0.6-0.2,0.8-0.3c0.7-0.4,1.3-0.8,1.9-1.3c0.2-0.2,0.4-0.2,0.6-0.2c0-0.3,0.3-0.4,0.5-0.5
		s0.7-0.5,1-0.7c0.1-0.1,0.3-0.3,0.4-0.4c0.4-0.2,0.7-0.5,1.1-0.8l2.5-1.8c0.5-0.4,1-0.7,1.6-1.2c-0.1,0.1-0.1,0.2-0.1,0.3l0.1,0.1
		c0.1-0.5,0.5-0.6,0.8-0.9c0.3-0.3,0.3-0.3,0.5-0.5l0.3-0.1l0.6-0.7c0,0,0.1-0.1,0.2-0.1c0.5-0.2,0.9-0.5,1.2-0.9
		c0.3-0.2,0.6-0.5,0.9-0.7s0.3-0.4,0.6-0.4c0,0,0-0.1,0.1-0.1c0-0.1,0.1-0.1,0.1-0.2l1.3-1.2c0.2-0.2,0.4-0.3,0.5-0.5
		c0.1-0.3,0.3-0.6,0.6-0.8c0.2-0.2,0.4-0.5,0.6-0.7l0.2,0.2c0-0.2,0-0.4-0.1-0.6c0.1-0.1,0.1-0.2,0.2-0.3c0.1-0.3,0.3-0.5,0.6-0.5
		c0-0.1,0-0.1,0.1-0.2c0.2-0.1,0.3-0.2,0.1-0.5c-0.1-0.1,0-0.2,0.1-0.2c0.2-0.1,0.3-0.2,0.4-0.3c0.2-0.4,0.4-0.8,0.5-1.2
		c0-0.1,0.1-0.2,0.1-0.2c0-0.2,0.1-0.4,0.2-0.6c0.3-0.7,0.6-1.5,0.7-2.3c0.1-0.6,0.2-1.2,0.4-1.8c0.2-0.4,0.3-0.9,0.3-1.4
		c0.1-0.8,0.1-1.5,0.1-2.3c-0.1-0.4,0-0.8-0.1-1.2l-0.1-1c0-0.3-0.1-0.5-0.1-0.8c0-0.3-0.1-0.2-0.2-0.2l0,0
		c-0.1-0.1-0.1-0.3-0.1-0.5c0-0.4-0.1-0.9-0.2-1.3c0-0.2-0.1-0.4-0.2-0.6c-0.1-0.2-0.2-0.3-0.2-0.5c-0.1-0.2-0.2-0.5-0.3-0.7
		c-0.1-0.2-0.1-0.3-0.2-0.5c0-0.2-0.1-0.4-0.4-0.4c0.1-0.3,0-0.6-0.3-0.8c-0.1,0-0.1,0-0.2-0.1c-0.1-0.2-0.2-0.5-0.4-0.7
		c-0.1-0.3-0.2-0.4-0.2-0.4c-0.2,0-0.3-0.1-0.4-0.2c-0.1-0.1-0.3-0.2-0.5-0.2c0-0.2-0.1-0.3-0.1-0.3l-0.6-0.3l0,0
		c-0.1-0.1-0.1-0.2-0.1-0.3c-0.1-0.4-0.2-0.5-0.6-0.3c-0.1,0-0.2,0-0.3,0s0-0.2,0.1-0.2c-0.1-0.1-0.3-0.2-0.4-0.3s-0.2-0.1-0.3-0.1
		c-0.5,0.1-0.8-0.3-1.2-0.5c-0.1-0.1-0.2-0.1-0.3-0.1c-0.5,0-0.9-0.1-1.3-0.3c-0.1,0-0.2-0.1-0.3-0.1c-0.3,0-0.7,0-1-0.1
		c-0.1,0-0.2,0-0.4,0c-0.8,0-1.6,0-2.4,0.1c-1.6,0.1-3.1,0.5-4.6,1.1c-0.6,0.3-1.2,0.6-1.8,0.9C27.1,5,26.6,5.4,26,5.7
		c0,0-0.1,0.1-0.1,0.1l-1.2,1c-0.2,0.2-0.4,0.4-0.6,0.6c-0.2,0.2-0.5,0.6-0.9,0.8C23.1,8.1,23.1,8,23,7.9c-0.1-0.3-0.2-0.7-0.4-1
		c-0.1-0.4-0.3-0.5-0.4-0.7c-0.1-0.3-0.4-0.7-0.5-1.1c-0.1-0.2-0.2-0.4-0.5-0.6c-0.1-0.1-0.2-0.2-0.2-0.4c0-0.1-0.1-0.2-0.1-0.3
		c-0.1-0.1-0.4-0.2-0.5-0.4c-0.4-0.1-0.5-0.4-0.7-0.7c-0.1-0.2-0.3-0.4-0.5-0.6c-0.2-0.2-0.5-0.4-0.7-0.6c-0.3-0.2-0.7-0.4-1-0.6
		c-0.4-0.2-0.9-0.4-1.4-0.5c-0.1,0-0.2,0.1-0.3,0.1C15.7,0.4,15.5,0,15,0.2c0,0-0.1,0-0.1,0c-0.1,0-0.3,0-0.4,0
		c-0.3,0.1-0.6,0.1-0.8,0c-0.1,0-0.2,0-0.3,0c-0.5,0.1-1.1,0.1-1.6,0.3C10.9,0.6,10.1,0.8,9.2,1c-0.7,0.3-1.4,0.6-2,1
		c-1,0.6-1.9,1.3-2.7,2.1C4.1,4.5,3.7,5,3.3,5.4C2.8,6,2.4,6.6,2,7.3C1.8,7.7,1.6,8.1,1.4,8.6C1.1,9.4,0.8,10.2,0.6,11
		c-0.2,0.5-0.3,0.9-0.2,1.4c0,0,0,0.1,0,0.1c-0.2,0.5-0.3,1-0.3,1.6c0,0.2,0,0.3,0.3,0.3C0,14.5,0,14.6,0,14.9c0,0.1,0,0.1,0,0.2
		c0,0.7,0,1.4,0.1,2.2c0,0.4,0.1,0.7,0.2,1.1c0,0.3,0.1,0.5,0.2,0.7c0,0.3,0.2,0.2,0.4,0.1c0,0.1,0.1,0.2,0.1,0.4H0.9l-0.1-0.2
		c-0.4,0.3-0.1,0.6-0.1,0.9c0,0.1,0.2,0.3,0.3,0.5c0.2-0.1,0.2-0.3,0.4-0.2l-0.2,0.4H0.9c0.1,0.5,0.2,1,0.4,1.5l0,0l0,0l0,0
		c0.2,0.2,0.3,0.4,0.2,0.7c0,0.2,0.1,0.5,0.2,0.7c0,0.1,0.1,0.2,0.2,0.3c0.1,0.3,0.2,0.7,0.3,1c0.1,0.2,0.2,0.5,0.3,0.8
		c0.1,0.3,0.1,0.6,0.5,0.7c-0.1,0.1-0.1,0.3,0,0.5c0.3,0.4,0.5,0.9,0.7,1.3c0.2,0.7,0.8,1.2,1,1.9c0.1,0.2,0.3,0.4,0.4,0.6
		c0.2,0.4,0.4,0.8,0.6,1.2c0.2,0.5,0.7,0.9,0.9,1.5c0.3,0.5,0.6,1,0.9,1.4C7.7,35.2,8,35.6,8.3,36c0.4,0.5,0.7,1,1.2,1.4
		c0.4,0.4,0.7,0.9,1.1,1.4c0.2,0.3,0.5,0.7,0.7,1c0.3,0.4,0.6,0.6,0.8,1c0.2,0.2,0.4,0.5,0.5,0.7c0.3,0.4,0.5,0.8,0.8,1.2"/>
</g>
</svg>
