<svg version="1.1" id="Layer_1" xmlns="http://www.w3.org/2000/svg" viewBox="0 0 31 52.6">

<g id="Artwork">
	<g>
		<path class="st0" d="M25.2,36.1l0.1-0.1l0.1-0.1c1-0.6,1.9-1.3,2.7-2c0-0.1,0-0.2,0-0.3c0.6-1.4,0.1-1.9-0.9-2.9
			c-0.2-0.3-0.5-0.5-0.7-0.8c-1-1-1.7-2.3-2-3.7c0-0.1,0-0.2-0.1-0.3h-0.1c-0.1,0-0.1,0.1-0.2,0.2c-0.9,1-2.1,1.8-3.5,2.2l-0.6,0.2
			c-1.2,0.4-2,0.7-2.5,1.6c0.9,1,2,1.9,3.1,2.7c0.3,0.2,0.7,0.4,1.1,0.7l1.3-4c0.1-0.3,0.3-0.4,0.6-0.4c0.3,0.1,0.4,0.3,0.4,0.6
			c0,0,0,0.1,0,0.1l-1.3,4.2C23.7,34.6,24.5,35.3,25.2,36.1"/>
		<path class="st0" d="M23.4,16.8l0.4-0.2c0.4-0.2,0.9-0.5,1.2-0.7c0.9-0.8,1.6-1.7,2.1-2.8c0.7-1.2,1.4-2.3,2.3-3.3
			c-1.2,0.1-2.4,0.3-3.6,0.7c-0.2,1.2-0.5,2.3-0.9,3.4C24.5,14.9,24,15.9,23.4,16.8"/>
		<path class="st0" d="M19.6,22.5l0.6-0.3c1-0.3,1.8-0.9,2.4-1.7c0.2-0.4,0.6-0.7,1.1-0.6h0.1h0.1c0.2,0.1,0.4,0.2,0.6,0.4
			c2.9-2.2,4.8-5.5,5.1-9.2c-0.5,0.7-1,1.5-1.5,2.3c-0.6,1.2-1.4,2.2-2.3,3.1c-0.4,0.3-0.9,0.6-1.4,0.9c-0.9,0.4-1.7,1-2.5,1.6
			c-1.2,1.5-2.6,2.8-4.2,3.8c0.1,0.1,0.2,0.2,0.4,0.3C18.5,22.9,19,22.6,19.6,22.5"/>
		<path class="st0" d="M11.3,25.7C10.6,26,10,26.5,9.4,27c0.3,0.1,0.6,0.3,1,0.4l0.6,0.2c1.1,0.2,2.1,0.8,2.8,1.7
			c0.1-0.2,0.2-0.4,0.3-0.6c0.2-0.4,0.5-0.8,0.9-1v-2.6c0-0.3,0.2-0.5,0.5-0.5c0.3,0,0.5,0.2,0.5,0.5v2.6c0.4,0.2,0.7,0.6,0.8,1
			c0.1,0.2,0.2,0.4,0.3,0.6c0.7-0.9,1.7-1.5,2.8-1.7l0.6-0.2c0.4-0.1,0.7-0.3,1-0.4c-0.5-0.5-1.2-1-1.8-1.3
			c-0.3-0.2-0.5-0.3-0.8-0.5c-1.4-0.8-2.5-2-3.2-3.4c0-0.1-0.1-0.2-0.2-0.3c-0.1,0.1-0.1,0.2-0.2,0.3c-0.7,1.4-1.9,2.5-3.2,3.3
			C11.8,25.3,11.6,25.5,11.3,25.7"/>
		<path class="st0" d="M23.7,21.2c0-0.1,0-0.1-0.1-0.2c0-0.1,0-0.1,0-0.2c0,0-0.1,0.1-0.1,0.1c-0.8,1-1.8,1.7-2.9,2.1l-0.7,0.3
			c-0.4,0.1-0.8,0.3-1.1,0.5c0.2,0.2,0.4,0.3,0.6,0.4c0.2,0.2,0.5,0.3,0.8,0.5c0.8,0.4,1.6,1,2.2,1.7c0.4-0.2,0.8-0.6,1.1-0.9
			c0.2-0.4,0.7-0.6,1.2-0.6h0.1c0,0,0.1,0,0.1,0c0.5,0.2,0.8,0.6,0.8,1.1c0.3,1.2,0.9,2.3,1.7,3.2c0.2,0.3,0.5,0.5,0.7,0.7
			s0.5,0.5,0.7,0.8c0-3.9-1.5-5.3-2.6-6.2c-0.2-0.2-0.4-0.4-0.6-0.5C24.7,23.4,24.1,22.4,23.7,21.2C23.7,21.3,23.7,21.3,23.7,21.2"
			/>
		<path class="st0" d="M26.8,24c0.6,0.5,1.2,1.1,1.6,1.7c-0.1-1.2-0.3-2.3-0.6-3.4c-0.5,0.5-1.1,0.9-1.7,1.1l0.1,0.1
			C26.4,23.6,26.6,23.8,26.8,24"/>
		<path class="st0" d="M12.9,21.3c-1.1-3.1-2.5-6-4.3-8.8c-0.6-1-1.1-1.8-1.5-2.6c-0.6-1.3-1.1-2.6-1.3-4C5.7,8.5,6.1,11,7,13.4
			C8.2,16.6,10.3,19.3,12.9,21.3"/>
		<path class="st0" d="M7.1,29.2c0.3-0.1,0.5,0.1,0.6,0.3l1.3,4l1-0.7c1.2-0.8,2.2-1.7,3.1-2.7c-0.6-1-1.3-1.2-2.5-1.6l-0.6-0.2
			c-1.3-0.4-2.5-1.2-3.4-2.2c0-0.1-0.1-0.1-0.2-0.2l0,0l0,0c0,0.1-0.1,0.2-0.1,0.3c-0.3,1.4-1,2.7-2,3.7c-0.3,0.3-0.5,0.6-0.7,0.8
			c-0.9,0.9-1.3,1.4-0.9,2.7c0.9,0.9,1.9,1.8,3,2.6l0.1,0.1c0.7-0.8,1.4-1.5,2.3-2l-1.5-4.2C6.7,29.6,6.8,29.3,7.1,29.2
			C7.1,29.2,7.1,29.2,7.1,29.2"/>
		<path class="st0" d="M16.8,38.5c0.8,1.4,1.9,2.7,3.2,3.5c0-2.8,2.2-4.2,4.1-5.4l0.1-0.1c-0.8-0.9-1.8-1.7-2.9-2.3
			c-0.4-0.2-0.7-0.5-1.1-0.7c-1.3-0.9-2.5-1.9-3.5-3.1l0,0c-0.4-0.4-0.6-0.9-0.9-1.4c-0.1-0.4-0.3-0.5-0.4-0.5l0,0
			c-0.1,0-0.3,0.1-0.4,0.5c-0.2,0.5-0.5,1-0.9,1.5l0,0c-1,1.2-2.2,2.3-3.5,3.1c-0.4,0.2-0.7,0.5-1.1,0.7c-1.1,0.6-2.1,1.3-2.9,2.3
			l0.1,0.1c2,1.2,4.1,2.6,4.2,5.4c1.3-0.9,2.4-2.1,3.2-3.6c0.2-0.4,0.5-0.8,0.9-1v-4.1c0-0.3,0.2-0.5,0.5-0.5c0.3,0,0.5,0.2,0.5,0.5
			v4.2C16.4,37.8,16.7,38.1,16.8,38.5"/>
		<path class="st0" d="M24,13.4c0.9-2.4,1.3-4.9,1.2-7.5c-0.2,1.4-0.7,2.8-1.3,4c-0.4,0.8-0.9,1.6-1.5,2.6c-1.8,2.7-3.2,5.7-4.3,8.8
			C20.7,19.2,22.7,16.5,24,13.4"/>
		<path class="st0" d="M24.2,46.3c-0.8-0.8-1.7-1.5-2.7-2c-0.4-0.2-0.7-0.5-1.1-0.7c-1.6-1-3.7-2.7-4.4-4.6
			c-0.2-0.4-0.3-0.5-0.4-0.5l0,0c-0.1,0-0.3,0.1-0.4,0.5c-0.8,1.9-2.8,3.5-4.4,4.6c-0.4,0.2-0.7,0.5-1.1,0.7c-2.1,1.3-3.9,2.4-3.6,5
			c1.9,1.6,4.1,2.7,6.6,3.2c-0.9-0.8-1.4-1.9-1.4-3.1V48c0.1-1.1,0.7-2.1,1.8-2.6l0.3-0.2c0.6-0.3,1-0.8,1.4-1.4
			c0.1-0.3,0.4-0.6,0.8-0.6l0,0c0.4,0,0.7,0.3,0.8,0.6c0.3,0.6,0.8,1.1,1.4,1.4l0.3,0.2c1,0.4,1.7,1.4,1.8,2.6v1.4
			c0,1.2-0.5,2.4-1.4,3.2c2.5-0.5,4.9-1.6,6.9-3.3C25.2,48.1,24.9,47.1,24.2,46.3L24.2,46.3"/>
		<path class="st0" d="M26,36.8l-0.1,0.1l-0.5,0.3l0,0l0,0l-0.6,0.4c-2.1,1.3-4,2.4-3.6,5.2c0,0,0,0,0,0.1l0.9,0.5
			c0.9,0.5,1.7,1.1,2.5,1.8l2.3-3.9c0.1-0.3,0.4-0.4,0.7-0.3c0.3,0.1,0.4,0.4,0.3,0.7c0,0,0,0.1-0.1,0.1l-2.5,4.2
			c0.5,0.7,0.8,1.5,0.9,2.4c2.7-2.8,4.2-6.5,4.5-10.3l0.4-5.6C30,34,27.7,35.7,26,36.8"/>
		<path class="st0" d="M18.6,48c0-0.9-0.5-1.2-1.3-1.7L17,46.1c-0.6-0.4-1.2-0.9-1.6-1.5c-0.4,0.6-1,1.2-1.6,1.5l-0.3,0.2
			c-0.8,0.5-1.3,0.9-1.3,1.7v1.4c0,1.6,1.2,2.9,2.7,3.2V48c0-0.3,0.2-0.5,0.5-0.5c0.3,0,0.5,0.2,0.5,0.5v4.5
			c1.6-0.2,2.7-1.6,2.7-3.2L18.6,48z"/>
		<path class="st0" d="M2.9,41.4c0.2-0.2,0.5-0.1,0.7,0.1l2.7,3.9c0.8-0.8,1.7-1.5,2.7-2l0.9-0.5c0,0,0,0,0-0.1
			c0.3-2.7-1.5-3.9-3.6-5.2l-0.6-0.4l0,0l0,0l-0.5-0.3c-1.1-0.8-2.1-1.6-3-2.6c-0.1,0-0.2-0.1-0.3-0.3l0,0c-0.7-0.7-1.3-1.5-1.8-2.4
			l0.4,5.8c0.2,4,1.7,7.9,4.5,10.8c0.1-0.8,0.3-1.5,0.8-2.2l-2.9-4C2.6,41.8,2.7,41.5,2.9,41.4C2.9,41.4,2.9,41.4,2.9,41.4"/>
		<path class="st0" d="M7.1,19.9L7.1,19.9h0.1c0.4-0.1,0.9,0.2,1.1,0.6c0.6,0.8,1.5,1.4,2.4,1.7l0.6,0.3c0.6,0.2,1.1,0.4,1.6,0.8
			c0.1-0.1,0.2-0.2,0.4-0.3c-1.6-1-3-2.3-4.2-3.8c-0.8-0.6-1.6-1.1-2.5-1.6c-0.5-0.2-1-0.5-1.4-0.9c-1-0.9-1.8-1.9-2.3-3.1
			c-0.4-0.8-0.9-1.6-1.5-2.3c0.3,3.6,2.2,7,5.1,9.2C6.6,20.1,6.8,20,7.1,19.9"/>
		<path class="st0" d="M5.9,15.8c0.4,0.3,0.8,0.5,1.2,0.7l0.5,0.2c-0.6-1-1.1-2-1.5-3.1c-0.4-1.1-0.7-2.2-0.9-3.4
			C4,10,2.8,9.7,1.5,9.7c0.8,1.1,1.6,2.2,2.3,3.4C4.3,14.1,5,15.1,5.9,15.8"/>
		<path class="st0" d="M4.1,24l0.4-0.3c-0.6-0.2-1-0.6-1.4-1c-0.3,1-0.4,2-0.5,3C3,25,3.5,24.5,4.1,24"/>
		<path class="st0" d="M3.6,29.4c0.8-0.9,1.4-2,1.7-3.2c0-0.5,0.3-0.9,0.8-1.1h0.1h0.1c0.5-0.1,1,0.1,1.2,0.6
			c0.3,0.4,0.7,0.7,1.1,0.9c0.6-0.7,1.4-1.3,2.2-1.7c0.3-0.2,0.5-0.3,0.8-0.5c0.3-0.2,0.4-0.3,0.6-0.4c-0.4-0.2-0.7-0.4-1.1-0.5
			l-0.7-0.3C9.2,22.7,8.2,22,7.5,21l-0.1-0.1c0,0.1,0,0.1-0.1,0.2c0,0.1,0,0.1,0,0.2c0,0.1,0,0,0,0.1c-0.4,1.1-1,2.1-1.9,2.9
			c-0.2,0.2-0.4,0.3-0.6,0.5c-1.6,1.2-2.6,3.1-2.6,5.1v0.5c0,0.2,0,0.4,0,0.6c0.2-0.3,0.5-0.5,0.7-0.8C3.1,29.9,3.4,29.7,3.6,29.4"
			/>
		<path class="st0" d="M19.5,10.2c0,5.6-1.7,10.2-3.9,10.2s-3.9-4.6-3.9-10.2S15.7,0,15.7,0S19.5,4.6,19.5,10.2"/>
		<path class="st0" d="M24.6,5.3c-1.5,0-3,0.5-4.2,1.5c0.4,2.4,0.4,4.8,0,7.2c0,0,2.1-4.1,2.8-4.9C23.9,8,24.4,6.7,24.6,5.3"/>
		<path class="st0" d="M6.7,5.9c1.5,0,3,0.5,4.2,1.5c0,0-0.8,4.3,0,7.2c0,0-2.1-4-2.7-4.9C7.4,8.5,6.9,7.2,6.7,5.9"/>
	</g>
</g>
</svg>
