<svg version="1.1" id="Layer_1" xmlns="http://www.w3.org/2000/svg" viewBox="0 0 46.8 18" >

<g id="Artwork">
	<g>
		<path class="st0" d="M38.3,1c0.2,0.1,0.4,0.2,0.6,0.4c0.8,0.9,1.1,2,1,3.2c0.1,1.1-0.3,2.1-1.1,2.9c-0.7,0.6-1.6,0.9-2.6,0.8
			l-1.9-0.1v0.3c-0.1,1.1-0.1,2.1-0.2,3.2h-0.5c-1,0-1.5,0-1.7,0h-0.2c0-0.2,0-0.3,0-0.6l0.1-1.3V9.5c0-0.4,0.1-1,0.1-1.8
			C31.9,6.2,32,3.9,32,1c1.4-0.2,2.9-0.3,4.4-0.3C37,0.6,37.7,0.7,38.3,1 M29.4,1.1v1.1c0,1.9-0.1,3.7-0.1,5.6
			c0,1.3-0.1,2.5-0.1,3.8h-0.6h-1.9c0-0.1,0-0.2,0-0.2c0-1.1,0.1-2.3,0.1-3.4c0.1-2.2,0.1-4.4,0.1-6.6c0.6-0.1,1.3-0.2,2.1-0.2H29.4
			z M24.2,1.2C24.2,1.2,24.2,1.3,24.2,1.2v1.1c0,1.8,0,3.7,0,5.5v0.2c0,0.3,0,0.6,0,0.8c0,0.3,0,0.5,0,0.7c0,0.6,0,1.2-0.1,1.9h-0.6
			h-1.9V11c0-0.5,0-0.9,0-1.4c0-1.4,0.1-2.8,0.1-4.2s0-2.7,0-4c0.6-0.1,1.3-0.1,2.1-0.1L24.2,1.2z M16.4,1.5
			c0.6-0.1,1.3-0.1,2.1-0.1h0.5v1c0,2.4,0,4.8,0,7.1v1.6h-0.6h-1.7h-0.2V11c0-0.4,0-0.9,0-1.3c0-0.2,0-0.4,0-0.6c0-2.3,0-4.6,0-6.9
			L16.4,1.5 M10.1,4.1H9.2c-0.9,0-1.5,0-1.9,0c0-0.8,0.1-1.6,0.1-2.3c0.4,0,0.9-0.1,1.5-0.1c0.6,0,1.7,0,2.8-0.1h2.2L13.7,2
			c-0.2,0.6-0.5,1.4-0.9,2.5c-0.6,1.6-1.1,2.9-1.6,3.9l-0.2,0.4h1.8h1h0.4c0,0.1,0,0.2,0,0.3s0,0.4-0.1,0.6c0,0.1,0,0.1,0,0.2
			c-0.1,0.6-0.1,1-0.1,1.3h-0.3L9.5,11H8H7.4l0,0c0.9-1.9,1.9-3.9,2.8-5.8l0.2-0.4l0.2-0.4L10.1,4.1z M30.1,15.2l16.7,2.8L44,7.3
			h-2.2c0.3-0.7,0.5-1.4,0.4-2.2c0.1-1.2-0.3-2.5-1.1-3.4C40.6,1.3,40,1,39.3,1V0.9l0,0c-0.8-0.7-1.8-1-2.8-0.9
			c-1.6,0.1-3.2,0.2-4.8,0.4h-0.3v0.9h-0.3L30,1.4V1.1c0-0.1,0-0.3,0-0.4V0.4l-1.1,0.1c-0.9,0-1.7,0.1-2.4,0.2h-0.3v0.3
			c0,0.2,0,0.4,0,0.6h-0.4l-1.1,0.1V1.3c0-0.2,0-0.3,0-0.4V0.6h-1.1c-0.9,0-1.7,0.1-2.4,0.2h-0.3v0.8h-0.4l-1.1,0.1V1.4
			c0-0.1,0-0.3,0-0.4V0.7h-1c-0.9,0-1.7,0.1-2.4,0.2h-0.3v0.9h-1.4l0.2-0.5l0-0.3h-0.4c-0.6,0-1.4,0-2.6,0S9.6,1.1,8.8,1.1
			S7.5,1.1,7,1.2H6.7v0.3c0,1-0.1,1.9-0.1,2.9v0.3h0.3c0.3,0,1,0,2.2,0.1c0,0.1,0,0.2,0,0.2h0.4c-0.9,2-1.8,3.9-2.7,5.7v0.1v0.7l0,0
			l0.4,2H0l10.1,2.8l-0.4-1.4l7.9,1.7l-0.3-1.1l13.4,2.5L30.1,15.2z"/>
		<path class="st0" d="M35.6,6.2L35.6,6.2c0.6,0,1-0.2,1.4-0.5c0.2-0.3,0.4-0.7,0.4-1.1c0-0.1,0-0.2,0-0.4c0-0.3-0.2-0.6-0.4-0.8
			c-0.3-0.1-0.6-0.2-0.9-0.2c-0.4,0-0.8,0.1-1.2,0.1l-0.2,0.1v0.2c-0.1,0.9-0.1,1.6-0.1,2.2V6l0.1,0.1C34.7,6.1,34.8,6.2,35.6,6.2"
			/>
	</g>
</g>
</svg>
