<svg width="63" height="39" viewBox="0 0 63 39" fill="none" xmlns="http://www.w3.org/2000/svg">
<path d="M12.2511 16.5731C12.2395 16.3867 12.3531 16.224 12.1975 16.0602C12.1941 16.0521 12.1628 16.0462 12.1534 16.0693C12.1216 16.1305 12.1997 16.2697 12.1864 16.3518C12.1414 16.6769 12.2498 16.5928 12.2511 16.5731Z" fill="white"/>
<path d="M31.0052 1.07291C30.9602 1.21627 30.7279 1.62054 30.5795 1.58758C30.2353 1.52265 30.1787 1.66134 30.1105 1.79536C30.0741 1.86815 30.2237 1.88143 30.1281 1.95053C29.8868 2.12905 29.9588 2.29947 29.9708 2.41874C29.9828 2.71974 29.6595 2.63636 29.7753 2.86482C29.9069 3.15353 29.11 4.92505 28.8309 5.55949C28.7426 5.75942 28.8583 5.80615 28.8 5.84992C28.623 5.95344 28.776 6.15657 28.6328 6.40838C28.593 6.47305 28.6204 6.53797 28.6003 6.60388C28.5848 6.65822 28.629 6.64913 28.6569 6.64692C28.8772 6.66857 28.6084 6.96389 28.602 7.42572C28.6063 7.48129 28.5746 7.54253 28.5441 7.58409C28.4995 7.66032 28.5223 7.7368 28.5055 7.81081C28.4828 7.91606 28.6693 7.78943 28.6153 7.88877C28.3152 8.54166 28.5283 8.25075 28.3341 9.40408C28.3041 9.56023 28.1746 9.48104 28.2445 9.62368C28.3521 9.85558 28.1716 9.76925 28.2115 9.88631C28.2466 10.0149 28.3538 10.1322 28.2406 10.2279C28.1532 10.2935 28.1827 10.3862 28.1695 10.4684C28.1635 10.4996 28.2432 10.552 28.2488 10.5879C28.2522 10.7777 28.4803 10.4996 28.4884 10.4962C28.5223 10.4627 28.4605 10.3167 28.455 10.2808C28.4528 10.253 28.5694 10.1654 28.5514 10.2591C28.542 10.2822 28.545 10.3575 28.575 10.3831C28.671 10.4286 28.6547 9.89026 28.7718 9.91732C28.8459 9.9338 28.8048 10.0181 28.7786 10.1153C28.7418 10.2552 28.9831 10.2584 28.8417 10.4234C28.7049 10.5769 28.8404 10.6248 28.8142 10.7219C28.4837 11.9616 28.7375 11.8352 28.4601 11.8376C28.3568 11.843 28.3954 11.9798 28.3157 11.9274C28.2741 11.8971 28.3011 11.8475 28.3118 11.8047C28.3178 11.7734 28.2539 11.7813 28.2411 11.7963C28.1583 11.8504 28.1883 12.0577 28.1133 12.1755C28.064 12.2633 28.1005 12.3722 28.0464 12.4716C28.016 12.5131 28.148 12.7347 27.926 12.7999C27.9225 12.7918 27.911 12.7871 27.881 12.7615C27.7794 12.6801 27.935 12.6622 27.9144 12.6135C27.8321 12.4187 28.0207 12.3199 27.8115 12.0066C27.7862 11.9694 27.7613 12.0469 27.7159 12.0757C27.5993 12.1632 27.7361 12.1915 27.67 12.3533C27.637 12.4342 27.6074 12.5232 27.5663 12.6076C27.6062 12.7246 27.5517 13.2546 27.6242 13.3578C27.6598 13.4193 27.5522 13.5509 27.5877 13.6124C27.6589 13.7353 27.5942 13.8775 27.6735 13.997C27.7309 14.0875 27.8728 14.0371 27.8107 13.7764C27.7485 13.5157 28.0353 13.4902 28.049 13.5226C28.0559 13.5388 27.9521 13.7931 27.9474 13.8047C27.8767 13.978 28.1095 14.0518 27.8896 14.1448C27.8733 14.1517 27.7554 14.2589 27.8664 14.3172C27.8896 14.3265 27.9093 14.3277 27.9277 14.3486C27.9427 14.3614 27.9564 14.3939 27.9564 14.3939C27.806 14.5149 27.9504 14.6068 27.9706 14.7227C27.974 14.7308 27.9972 14.7401 27.9972 14.7401C28.1661 14.6401 27.9539 14.2515 28.1301 14.1005C28.1301 14.1005 28.1163 14.0681 28.1013 14.0553C28.0216 14.0029 28.1506 13.9675 28.1691 13.9884C28.3667 14.297 28.1914 14.3137 28.302 14.6209C28.3384 14.7298 28.3075 14.8385 28.344 14.9475C28.3804 15.0564 28.3959 15.1838 28.3719 15.3087C28.3599 15.3712 28.4687 15.4017 28.5099 15.3173C28.5733 15.1949 28.5373 14.4736 28.5202 14.433C28.4169 14.2567 28.4962 14.0127 28.479 13.9722C28.3633 13.7437 28.5459 13.3126 28.4357 13.1201C28.3933 13.0424 28.4983 12.9502 28.4837 12.8702C28.8293 12.7338 28.5725 12.9666 28.7178 13.2878C28.6754 13.3918 28.7928 13.5335 28.6599 13.6279C28.7041 13.8005 28.6171 13.9808 28.7007 14.1559C28.7705 14.2985 28.6629 14.4301 28.7144 14.5518C28.7843 14.6944 28.6779 14.8063 28.813 14.9214C28.813 14.9214 28.8413 14.6703 28.8781 14.5304C28.8983 14.4645 28.9313 14.3836 28.8563 14.3197C28.8378 14.2988 28.8263 14.2941 28.8439 14.2675C28.9857 14.0354 28.6964 13.9186 28.87 13.8069C28.9073 13.7816 28.8155 13.61 28.9051 13.3904C28.9193 13.3557 28.9459 13.3731 28.9527 13.3894C29.1341 13.7049 28.9836 14.5528 29.0089 14.5899C29.1054 14.75 29.0531 14.9443 29.1414 15.1078C29.2078 15.2423 29.1465 15.3926 29.1294 15.5337C29.0646 15.4941 29.0912 15.5116 29.0278 15.4523C28.9399 15.5851 28.9823 15.6628 28.9017 15.7447C28.8597 15.7816 29.0364 15.927 29.0638 15.8101C29.0899 15.713 29.0685 15.6169 29.1101 15.6471C29.1783 15.6948 29.2374 15.8802 29.1491 16.0802C29.1255 16.138 29.1212 16.0824 29.0334 16.0334C29.0132 16.0993 29.0651 16.1539 29.0428 16.1921C28.9018 16.4716 29.1633 16.5907 29.0822 16.7397C28.9871 16.9234 29.3999 19.5131 29.4004 19.6277C29.4137 20.0908 28.9674 18.9212 28.9819 18.8194C29.0205 18.5927 28.7972 18.6775 28.816 18.4495C28.8593 18.0295 28.738 18.1286 28.807 17.8603C28.8285 17.7747 28.7534 17.7108 28.7946 17.6265C28.8405 17.5305 28.4713 17.1796 28.825 17.0397C28.8332 17.0363 28.8452 16.9738 28.801 16.9829C28.4465 17.0753 28.5622 16.9403 28.5626 16.6915C28.5639 16.3083 28.3924 16.266 28.5558 15.9483C28.6098 15.849 28.3856 15.8864 28.4692 15.698C28.4928 15.6402 28.5189 15.5431 28.4563 15.5313C28.2964 15.4936 28.4006 16.2626 28.4143 16.2951C28.4529 16.4318 28.3839 16.7001 28.443 16.8855C28.443 16.8855 28.5472 17.4727 28.5571 17.5642C28.6694 19.0567 28.8688 18.5516 28.6145 18.9268C28.4353 19.1843 29.024 18.9642 28.8581 19.3213C28.825 19.4022 28.7217 19.4076 28.7213 19.293C28.7277 19.0129 28.6218 19.2394 28.6356 19.2718C28.6904 19.4017 28.6673 19.9375 28.9044 19.8852C28.9207 19.8783 28.9262 19.9142 28.9052 19.9326C28.8924 19.9476 28.8645 19.9498 28.8435 19.9683C28.6767 20.0962 28.9455 20.1643 28.8915 20.2636C29.0531 20.3962 29.0437 20.601 29.1483 20.7577C29.1805 20.811 29.1127 20.8779 29.1843 20.9338C29.2478 20.993 29.1247 20.9972 29.1174 21.0481C29.1067 21.0909 29.0673 21.0884 29.0536 21.056C29.0145 20.9864 28.9575 21.0105 28.9065 21.0033C28.8786 21.0055 28.8418 20.9637 28.8263 21.0181C28.753 21.2308 28.7732 20.9832 29 21.4516C29.0171 21.4922 29.0476 21.4507 29.057 21.4275C29.0874 21.2043 29.033 21.189 29.1037 21.1974C29.2915 21.2328 29.2503 21.4989 29.3485 21.5722C29.4583 21.6501 29.4308 21.7669 29.4638 21.8677C29.5209 22.0254 29.2902 21.9794 29.3417 22.1011C29.4 22.2391 29.5444 21.9676 29.6259 22.1149C29.7485 22.3596 29.7374 22.4695 29.8531 22.5162C29.8647 22.5209 29.8771 22.573 29.8711 22.6043C29.851 22.6702 29.8763 22.7073 29.9294 22.7422C30.0623 22.8295 29.8368 22.8866 30.097 23.0253C30.1815 23.0661 30.2008 23.1345 30.1794 23.2201C30.1485 23.3287 30.1408 23.4468 30.0833 23.538C30.034 23.6258 30.1052 23.7488 29.9865 23.8085C29.9616 24.0677 29.8921 24.4031 29.8051 24.7651L29.8223 24.8057C29.4197 26.4201 28.5482 28.6057 28.1019 27.9813C27.9823 27.8119 27.7962 27.6897 27.7268 27.4799C27.7165 27.4556 27.6912 27.4184 27.6646 27.401C27.4486 27.2532 27.6526 27.1 27.4576 26.9337C27.3791 26.8617 27.3787 26.7471 27.3165 26.6681C27.2912 26.631 27.2218 26.6029 27.2278 26.5717C27.2522 26.3797 27.1232 26.2333 27.079 26.0607C27.0631 26.0005 27.109 25.9046 27.0559 25.8696C26.9148 25.7858 26.9427 25.6018 26.8098 25.5145C26.6953 25.4481 26.5328 24.7229 26.36 24.3368C26.2027 24.2598 26.3905 24.1135 26.2439 23.812C26.1041 23.5268 26.0552 23.184 26.0685 23.1018C26.096 22.985 25.8717 22.6589 25.9043 22.4634C25.909 22.4519 25.8872 22.4229 25.864 22.4135C25.7311 22.3262 25.8704 22.1334 25.7937 21.9746C25.6389 21.6765 25.693 21.5772 25.6222 21.2053C25.6076 21.1254 25.4649 21.1284 25.4992 21.0278C25.5275 20.9584 25.5 20.8935 25.4923 20.8298C25.4803 20.7105 25.4764 20.7696 25.3221 20.7678C25.3281 20.5549 25.5236 20.654 25.3628 20.3872C25.2458 20.1784 25.1399 20.9501 25.0542 19.2933C24.9079 16.1988 24.9452 15.81 24.796 15.5478C24.369 14.8101 24.5688 14.2378 24.4042 14.3935C24.3236 14.4754 24.3283 14.4638 24.2567 14.408C24.1851 14.3522 24.1135 14.2963 24.1002 14.1967C24.0822 14.1087 24.0012 14.076 23.9575 14.018C23.8597 13.8775 23.7427 14.2139 23.4173 13.921C23.3573 13.8699 23.2904 13.8025 23.2231 13.8023C22.962 13.7978 22.1818 13.3146 21.6043 13.6064C21.5636 13.6237 21.5447 13.6699 21.5074 13.6952C21.483 13.7055 21.4496 13.6718 21.4157 13.7053C21.3432 13.7837 21.0256 13.918 21.0543 14.145C21.0586 14.2005 21.0106 14.2687 20.9904 14.3346C20.7992 14.8362 20.5231 14.819 20.5334 15.0251C20.5399 15.1084 20.4824 15.1997 20.4263 15.2712C20.2273 15.5274 20.2282 15.7566 20.1159 15.718C20.0927 15.7087 20.0366 15.5985 20.0168 15.5973C19.9577 15.5936 19.9946 15.6354 19.9851 15.6585C19.9358 15.7463 19.8797 15.8179 19.7853 15.8673C19.4908 16.0109 19.7661 16.1624 19.6722 16.3264C19.5736 16.502 19.7918 16.4958 19.7635 16.5652C19.6053 16.9859 19.6113 16.9547 19.5487 16.9429C19.3888 16.9053 19.496 17.0226 19.3704 17.2478C19.2225 17.5112 19.1972 18.0192 19.2006 18.0274C19.2765 18.3205 19.2658 18.1815 19.1496 18.3837C19.1003 18.4715 19.2148 18.5379 19.1779 18.6778C19.0553 19.16 19.108 19.2621 18.9807 19.2107C18.9726 19.2141 18.9563 19.221 18.9563 19.221C18.9704 19.3681 18.7994 19.4404 18.8101 19.5793C18.8088 19.599 18.4491 21.9509 18.3789 24.6013C18.3129 27.3073 18.6199 29.5784 18.8093 30.6174C18.7609 30.5709 18.7099 30.5637 18.6915 30.5428C18.6846 30.5266 18.6259 30.2741 18.4895 30.3604C18.4359 30.3926 18.4492 30.3104 18.4531 30.2514C18.4595 30.1531 18.3918 30.2199 18.3039 30.171C18.2808 30.1617 18.3202 30.1641 18.2773 29.9718C18.2323 29.7517 18.0527 29.8946 18.0733 29.7615C18.0805 29.7106 18.096 29.6563 18.0544 29.626C17.9678 29.5574 17.9952 29.4406 17.9168 29.3686C17.8349 29.2884 17.8683 29.1404 17.8177 29.0661C17.5417 28.6854 17.6848 28.7971 17.5639 28.6473C17.4649 28.5265 17.5824 28.4865 17.5575 28.3822C17.5541 28.3741 16.6126 25.6921 16.625 25.5625C16.6825 24.5626 16.7442 25.4356 16.8197 23.9786C16.8244 23.967 16.8179 23.1568 16.8449 22.9254C16.8818 22.6037 16.8162 22.5166 16.8059 22.4923C16.7823 22.3684 16.8539 22.2425 16.7909 22.1161C16.6293 21.8018 16.8488 21.2308 16.6932 21.067C16.6229 20.9915 16.5804 20.5503 16.5718 20.4392C16.5457 19.9911 16.4338 19.8854 16.4724 19.6586C16.4977 19.514 16.3729 19.605 16.3528 19.3075C16.3403 19.0736 16.2263 18.9401 16.2207 18.7224C16.216 18.3705 16.0475 17.8583 16.0016 17.7725C15.966 17.711 16.0038 17.6185 15.9729 17.5455C15.9296 17.4203 15.69 17.512 15.702 17.2678C15.7058 17.2088 15.5952 16.9017 15.5999 16.5266C15.6042 16.4005 15.4499 16.3988 15.3868 16.0906C15.2745 15.5068 15.2059 15.5262 15.1725 15.3108C15.0554 14.5568 15.1236 14.968 15.0143 14.6412C15.0109 14.6331 14.9959 14.6203 14.9959 14.6203C15.1086 14.41 14.7811 14.0894 14.9864 14.0982C14.9255 13.9996 15.0374 13.9236 15.0126 13.8194C14.8724 13.783 15.0001 13.7672 14.923 13.312C14.9195 13.3039 14.7832 12.6633 14.7978 12.5615C14.8051 12.5106 14.76 12.4722 14.7429 12.4317C14.7065 12.3227 15.0267 12.5126 14.6893 12.1004C14.5971 11.9959 14.5165 11.896 14.4745 11.7512C14.4518 11.6747 14.3686 11.6142 14.3262 11.5365C14.2357 11.3452 14.1127 11.5311 13.9828 11.3373C13.9253 11.2468 13.5524 11.3184 13.4581 11.186C13.4396 11.1651 13.3839 11.1696 13.3444 11.1671C13.2493 11.1691 13.2994 11.3105 13.2313 11.2628C13.2047 11.2453 13.1117 11.0933 12.9809 11.2155C12.9132 11.2824 12.8424 11.2741 12.7696 11.2379C12.5359 11.1167 12.4013 11.2979 12.4416 11.3478C12.5372 11.4604 12.4703 11.5748 12.4592 11.6847C12.4532 11.7159 12.3314 11.7005 12.3233 11.7039C12.2363 11.7024 12.3383 11.8984 12.3018 11.9712C12.1196 12.3351 12.3927 12.2771 12.346 12.3256C12.2363 12.4293 12.328 12.7827 12.2187 13.0011C12.2045 13.0358 12.1973 13.0867 12.2075 13.111C12.2693 13.2571 12.1488 13.5854 12.1518 13.6606C12.1574 14.4234 12.2367 14.1795 12.208 14.6794C12.1857 15.081 12.2457 15.1322 12.2239 15.4666C12.2136 15.624 12.1141 15.3886 12.0622 15.5158C11.9606 15.7978 12.3465 15.7113 12.3032 15.9496C12.2522 16.3059 12.4138 16.2567 12.3791 16.4244C12.3478 16.6003 12.4922 16.5105 12.5274 16.6391C12.752 17.4433 12.3684 17.3759 12.5746 17.4322C12.5681 17.7123 12.6727 17.5055 12.6843 17.6919C12.6873 17.7671 12.8009 18.513 12.8044 18.5211C12.9505 18.708 13.0414 19.1957 12.9758 19.2903C12.9548 19.3088 12.6239 19.5252 12.942 19.6872C12.9891 19.5717 12.9235 19.3029 13.1272 19.5803C13.1928 19.6673 13.3784 20.5836 13.3814 20.6589C13.3823 20.7063 13.6661 21.3324 13.685 21.6497C13.6884 21.6578 13.9345 22.3763 13.9906 22.4865C14.0674 22.6454 13.9726 22.7619 14.0879 22.8758C14.1998 22.9816 14.1287 23.0403 14.2663 23.2978C14.3512 23.4532 14.4035 23.6224 14.4198 23.7973C14.4343 23.8772 14.5059 23.933 14.4927 24.0151C14.4434 24.2847 14.5265 24.1634 14.4781 24.2987C14.4438 24.3993 14.4292 24.5011 14.4935 24.6078C14.5763 24.7354 14.4494 28.0697 12.699 26.8583C12.4795 26.7024 12.5044 26.6249 12.3642 26.5885C12.2553 26.558 12.2986 26.3197 12.1537 26.2949C11.8523 26.2405 11.7005 25.4725 11.5333 25.3041C11.568 25.1364 11.3558 25.293 11.3314 25.1216C11.2967 24.7441 10.7042 23.5694 10.6943 22.9327C10.6943 22.751 10.5413 22.5478 10.5306 22.4089C10.5271 22.4008 10.0362 20.0353 9.81459 19.6699C9.66754 19.4355 9.83559 19.288 9.18181 18.4452C8.52459 17.5943 8.58333 17.8469 8.50059 17.7192C8.43971 17.6206 8.28409 17.4569 8.17391 17.446C7.9617 17.4209 7.78593 17.3231 7.5913 17.2714C7.39667 17.2198 7.41382 17.2603 6.69145 17.1639C6.60914 17.1509 6.51697 17.2281 6.45738 17.1098C6.45395 17.1017 6.43423 17.1004 6.42608 17.1039C6.16757 17.2418 6.26274 17.0581 6.00853 17.4334C5.85977 17.6493 6.06254 17.5158 5.69258 17.8443C5.60855 17.9181 5.73502 17.922 5.7303 17.9336C5.40107 18.7901 5.39978 18.628 5.40621 18.7114C5.47912 21.4735 5.70509 24.9839 6.31945 27.6415C6.61312 28.9043 7.31364 30.4255 7.40367 30.5023C7.45812 30.5175 7.42382 30.6181 7.51857 30.6833C8.32282 31.2233 8.55646 30.9811 8.76224 31.1046C8.91829 31.2012 8.88957 31.156 10.2143 31.0648C10.5684 31.0395 10.7527 30.885 10.8363 30.6967C10.8599 30.6389 11.0382 30.1522 11.0202 30.0642C10.8453 29.2869 9.43267 24.9676 9.42581 24.9514C9.42238 24.9432 8.86976 22.7952 8.81917 22.7209C8.81574 22.7128 8.70727 22.2517 8.77929 22.2404C8.86289 22.2337 10.0011 24.9952 10.33 25.2962C10.423 25.8116 12.3543 28.3143 13.4634 28.3717C13.6014 28.3803 13.7228 28.4629 13.8621 28.4519C13.9208 28.5227 13.992 28.4639 14.0546 28.4757C14.2226 28.5099 14.2411 28.3491 14.3229 28.4293C14.3379 28.4421 14.3692 28.448 14.3774 28.4445C14.5163 28.3189 14.6779 28.4514 14.7666 28.3661C14.8554 28.2808 14.9934 28.2894 15.0706 28.1994C15.1821 28.1905 15.2567 28.1399 15.2759 28.0265C15.4054 27.924 15.5396 27.8099 15.6691 27.7073C15.8114 27.5898 16.1814 28.7151 16.4382 29.0274C16.4819 29.0855 16.4652 29.1595 16.5171 29.2141C16.5942 29.3058 16.6727 29.3779 16.6997 29.5099C16.7211 29.6061 16.8356 29.6725 16.8476 29.7917C16.8532 29.8276 16.8866 29.8613 16.9166 29.8869C17.0851 30.0357 17.0877 30.3598 17.2326 30.3847C17.2952 30.3965 17.3265 30.5841 17.3342 30.6478C17.3509 30.7555 17.5288 30.6994 17.606 30.9729C17.6184 31.025 17.6553 31.0668 17.8902 31.3501C18.033 31.5289 17.9352 31.5702 18.0373 31.5845C18.159 31.6 18.0531 31.6447 18.2375 31.8538C18.2559 31.8747 18.2838 31.8725 18.252 31.752C18.2718 31.7532 18.2881 31.7463 18.2996 31.751C18.466 31.872 18.4428 31.8626 18.3995 31.9192C18.2182 32.1489 18.7502 32.0675 18.6529 32.2234C18.6083 32.2996 18.6207 32.3518 18.6808 32.4029C18.7927 32.5087 18.64 32.6019 18.7802 32.6383C18.8741 32.656 18.7888 32.7494 18.8904 32.8308C18.9204 32.8564 18.9534 32.9572 18.9971 32.8335C19.0173 32.7676 19.1365 33.0042 19.2698 33.0244C19.2814 33.029 19.302 33.0777 19.3007 33.0974C19.2942 33.1958 19.4147 33.2309 19.4083 33.3293C19.4044 33.3883 19.6702 33.3812 19.6484 33.5339C19.6471 33.5536 19.7028 33.5492 19.7457 33.5597C19.7997 33.6421 19.813 33.7417 19.8846 33.7976C19.9712 33.8662 20.0008 33.9589 20.0419 34.0563C20.0968 34.1861 20.2378 34.27 20.2717 34.4183C20.2786 34.4345 20.3051 34.4519 20.3201 34.4647C20.6871 34.6061 21.202 35.0294 21.3726 35.0242C21.7383 35.0036 22.1126 35.2758 22.7873 35.1915C23.4343 35.1094 23.8617 34.3262 23.8805 34.0982C23.9911 32.5881 24.0936 32.7169 23.7103 31.6738C23.7352 31.5963 23.5735 30.7368 23.4359 30.4794C23.3969 30.4098 22.8177 26.9721 22.7937 26.7336C22.7272 26.0539 22.6831 26.6082 22.6526 25.9228C22.6402 25.5072 22.422 25.6951 22.452 25.3572C22.4919 24.9291 22.178 24.8226 22.2046 24.6583C22.2398 24.4234 22.1913 24.1952 22.2265 23.9604C22.2423 23.8389 22.1943 23.7253 22.1905 23.6026C22.1283 21.8881 22.4215 21.0372 22.3448 20.8784C22.3105 20.7972 22.3863 20.7269 22.3992 20.7119C22.4176 20.7328 22.5197 20.9288 22.5274 20.8108C22.5488 20.5434 22.5771 20.4741 22.4961 20.4414C22.2496 20.3351 22.497 20.3071 22.4133 19.9503C22.3623 19.7614 22.7104 20.1308 22.5492 19.7494C22.4944 19.6195 22.6084 18.6627 22.7057 18.8703C22.7949 19.0813 23.1186 21.46 23.2849 21.7627C23.2665 21.9235 23.3642 22.064 23.39 22.2157C23.5563 23.0636 23.5284 22.8841 23.6575 23.2121C23.7158 23.3501 23.6824 23.4981 23.7488 23.6327C23.8084 23.7509 23.883 23.882 23.8903 24.0128C23.9362 24.4621 24.3554 25.1362 24.3271 25.3873C24.3233 25.4463 24.3576 25.5274 24.3979 25.5774C24.7726 25.9642 25.4135 29.0027 28.2996 29.9255C28.4779 29.9841 29.5694 30.2497 29.6633 30.0857C29.7666 29.8985 29.8309 30.187 30.188 30.0552C31.072 29.739 31.0934 29.29 31.2833 29.3532C31.4454 29.4186 31.4085 29.3768 31.4497 29.2924C31.5719 29.0591 31.6087 29.1009 31.6186 29.0106C31.6233 28.9991 31.628 28.9875 31.6246 28.9794L31.6074 28.9388C31.6837 28.6196 31.9341 28.1217 31.9388 28.1101C32.1159 27.8249 32.7101 28.9128 33.0016 29.0574C33.1092 29.1076 33.7107 29.5994 33.7583 29.7802C33.8003 29.925 33.9838 29.9049 34.1154 30.0119C34.3717 30.2096 34.5183 29.9659 34.6105 30.0704C34.6658 30.1331 34.9291 30.1653 35.2099 30.171C35.2133 30.1791 35.2086 30.1907 35.2086 30.1907C35.2099 30.3527 35.0795 30.2261 35.083 30.4159C35.0872 30.4715 35.1078 30.5202 35.104 30.5792C35.0628 30.8453 35.2746 30.7558 35.2686 30.787C35.2377 30.8957 35.4744 31.0922 35.2819 31.2501C35.2107 31.3088 35.287 31.3531 35.2797 31.404C35.2682 31.5811 35.5361 31.42 35.4928 31.6583C35.4782 31.7601 35.5151 32.1654 35.7273 32.1905C35.8885 32.2084 35.8302 32.4339 35.958 32.5999C36.4218 33.1978 36.3648 32.6767 36.6478 33.0736C36.7639 33.2349 37.1365 33.2305 37.3101 33.1189C37.4464 33.0326 37.3534 33.244 37.4739 33.2792C39.0378 33.7086 41.3086 32.4715 42.7881 31.0429C42.9205 31.0156 43.0071 30.9024 43.1006 30.8056C43.2665 30.6302 43.4658 30.4886 43.5799 30.2587C43.621 30.1743 43.7363 30.1065 43.8054 30.0199C43.8311 29.9899 45.0074 28.4119 45.0122 28.4004C45.1828 28.2135 45.2038 28.0133 45.296 27.9361C45.4173 27.837 45.4854 27.703 45.5292 27.5793C45.5386 27.5562 46.9576 25.5983 48.5326 22.6467C48.8897 21.9697 51.2947 17.5291 51.6059 18.0384C51.7346 18.2518 51.777 18.1478 51.801 18.2046C51.8319 18.2777 51.7624 18.4314 51.8657 18.4259C51.9412 18.4228 52.0025 18.4542 52.0102 18.5179C52.0359 18.6697 52.1397 18.7788 52.1084 18.9547C52.0784 19.1108 52.2524 19.1138 52.1783 19.4608C52.1376 19.6597 52.2945 19.6221 52.348 19.7716C52.3583 19.7959 52.3506 19.7323 52.4081 20.1862C52.4432 20.4966 52.5298 20.9286 52.2615 21.1568C52.2195 21.1937 52.2838 21.1187 52.0128 21.7497C51.9657 21.8653 51.9498 21.9868 51.8975 22.3628C51.8829 22.4646 52.012 22.4292 52.0531 22.3448C52.1342 22.1958 52.1732 21.7202 52.3691 21.3887C52.4758 21.2097 52.3897 22.7095 52.3849 22.7211C52.2628 22.9545 52.1539 24.0143 52.1492 24.0259C52.1024 24.2561 52.0129 24.4757 51.9858 24.7071C51.9087 24.7971 51.9708 24.876 51.9284 24.98C51.8118 25.2493 51.7775 25.5316 51.7479 25.8023C51.6785 26.3195 51.6373 26.0404 51.5897 26.5866C51.5795 26.7439 51.4821 26.8998 51.4603 27.0526C51.2489 27.2567 51.3857 27.6484 51.1405 28.0677C50.8871 28.4904 49.3824 32.2444 48.6875 33.3033C48.5726 33.4858 48.387 33.6599 48.3925 33.8775C48.3934 33.925 48.3548 33.97 48.3162 34.015C48.0907 34.2537 47.8768 35.0424 47.3834 35.0787C46.8621 35.1173 46.1663 35.5835 45.8401 35.9701C45.7325 36.1017 45.669 36.2241 45.6592 36.3144C45.6467 37.1709 45.9537 37.0794 46.4917 37.3303C46.7301 37.44 48.3004 37.771 48.658 37.3904C48.7304 37.3119 51.1753 36.623 51.1834 36.6196C51.7879 36.4597 52.6929 34.6712 53.5211 32.7239C54.3978 30.6413 55.1827 28.387 55.3992 27.7408C56.3595 24.9246 57.123 20.2118 56.509 19.486C56.4906 19.4651 56.4979 19.4142 56.5236 19.3842C56.7122 19.1036 56.0662 17.5976 55.8454 17.4614C55.8222 17.4521 55.8132 17.408 55.8192 17.3768C55.8089 16.989 54.9228 16.187 54.8949 16.1893C54.5503 16.1915 54.6051 15.2309 52.1448 15.429C52.0055 15.4401 51.8636 15.4905 51.7234 15.4541C51.5845 15.398 51.4306 15.5109 51.2912 15.5219C50.8488 15.5654 50.5616 16.0216 50.4326 15.8753C50.4176 15.8625 50.3665 15.8553 50.3408 15.8853C50.1809 16.0294 49.9657 16.1108 49.8508 16.2933C49.7711 16.4226 49.6823 16.508 49.5593 16.5121C49.4281 16.5198 49.3368 16.6444 49.2159 16.6764C49.1636 16.6889 49.1516 16.7514 49.1327 16.7976C49.0667 16.9594 48.8811 16.7701 48.8648 16.9587C48.8618 17.0652 48.8322 17.1542 48.725 17.2186C48.5934 17.2934 48.5784 17.4623 48.4434 17.5289C48.4027 17.5462 48.4211 17.7488 48.3679 17.7139C48.2385 17.6347 48.0571 17.8644 48.0027 18.0308C47.8775 18.3707 47.5333 18.4875 47.4544 18.6643C47.3202 18.9601 47.147 19.0046 47.0994 19.3691C47.0921 19.42 46.9039 20.1786 46.8851 19.6796C46.8821 19.6044 46.8062 19.6747 46.8015 19.6863C46.7119 20.0876 46.6729 20.1997 46.8401 20.1865C46.9237 20.1798 46.8992 20.3719 46.8212 20.4144C46.7385 20.4685 46.6934 20.2484 46.618 20.4333C46.5944 20.4911 46.5052 20.4619 46.4598 20.4906C46.3899 20.5297 46.4114 20.6259 46.3333 20.6684C46.1854 20.7501 46.0332 20.7761 45.9955 21.0503C45.9724 21.2227 45.8052 21.0542 45.7452 21.1848C45.563 21.5488 45.5895 21.5662 45.6243 21.5802C45.6727 21.6267 45.6247 21.5131 45.7636 21.3875C46.011 21.1777 45.8009 21.5439 45.8609 21.7767C45.8871 21.8613 45.8352 21.9885 45.8206 22.0903C45.7289 22.1004 45.6899 22.0308 45.6706 22.1441C45.6427 22.3281 45.8884 22.2051 45.8236 22.3473C45.7765 22.4628 45.6933 22.5841 45.6937 22.6987C45.6916 22.8526 45.5574 22.9667 45.5008 23.1054C45.4867 23.1401 45.3949 23.1501 45.3941 23.1027C45.3928 22.7589 45.5587 22.7653 45.4176 22.6814C45.3413 22.6372 45.3722 22.7102 45.2565 22.8452C45.136 22.9918 45.1201 22.7498 45.1133 22.7336C45.0824 22.6605 44.9156 22.6067 44.8192 22.81C44.7639 22.929 44.6854 23.0387 44.6464 23.1508C44.3892 23.8143 44.1376 23.9685 44.1118 24.3619C44.1054 24.4603 44.0364 24.7286 43.9172 24.6738C43.8825 24.6597 43.8276 24.7116 43.8263 24.7313C43.852 24.883 43.6248 25.0269 43.6784 25.1764C43.7093 25.2494 43.5344 25.199 43.3633 25.453C43.3329 25.4946 43.3175 25.5489 43.2952 25.587C43.2154 25.7164 43.2154 25.7164 43.329 25.7353C43.4624 25.7555 43.4036 26.0481 43.2476 26.1332C43.1777 26.1723 43.2141 25.7361 43.0838 25.9729C43.0521 26.0341 43.1031 26.223 42.8648 26.295C42.7717 26.3248 42.6984 26.5375 42.6958 26.5768C42.6723 26.8163 42.5304 27.0485 42.4871 27.2868C42.4691 27.3805 42.3456 27.4518 42.3392 27.5501C42.1604 27.5587 42.3709 27.3072 42.3486 27.1636C42.2243 27.1874 42.271 27.3207 42.1673 27.3932C41.8595 27.619 41.7429 28.07 41.7008 28.1069C41.4449 28.3872 41.189 29.031 41.0381 29.0374C41.0299 29.0408 40.9948 29.0939 40.9806 29.1286C40.9571 29.1864 41.0111 29.2688 40.8902 29.3007C40.834 29.3723 40.816 29.466 40.7333 29.5201C40.4023 29.7365 40.5982 29.7684 39.9513 30.3957C39.6302 30.7036 39.7357 30.726 39.6204 30.7939C39.0215 31.1713 38.9053 27.5571 39.2135 25.9921C39.2435 25.836 39.1886 25.7061 39.2268 25.5465C39.2495 25.4413 39.2525 25.3348 39.231 25.2387C39.2096 25.1425 39.9705 20.2872 40.295 19.8057C40.2869 19.8092 40.2882 19.7895 40.2847 19.7814C40.2286 19.6712 40.3177 19.5188 40.3057 19.3995C40.2693 18.9271 40.3735 19.1509 40.4189 18.9404C40.5951 18.0625 41.0178 17.4726 41.0281 17.1334C41.0371 16.9957 41.3749 16.0687 41.389 16.034C41.6986 15.358 42.0321 15.1022 42.1371 14.6466C42.1967 14.4014 42.4977 14.1594 42.6023 14.1344C42.6104 14.1309 43.2397 13.5302 43.256 13.5233C43.59 13.3822 43.5252 13.1608 43.9004 13.1171C44.0723 13.0922 44.1902 13.1668 44.218 13.3463C44.2652 13.5942 44.7826 13.0694 44.6549 15.0842C44.6536 15.1038 44.6313 15.1419 44.6232 15.1454C44.4478 15.1621 44.6026 15.4602 44.3994 15.6608C44.3655 15.6943 44.3711 15.7302 44.3848 15.7626C44.4281 15.8878 44.3342 16.0518 44.3938 16.1701C44.2764 16.3919 44.3145 16.5958 44.2609 16.8097C44.2014 17.0549 44.1083 17.0846 44.1932 17.4218C44.2601 17.6709 44.1302 17.6588 44.0449 17.934C43.9677 18.2058 43.9128 17.7124 43.8781 17.6984C43.8237 17.6832 43.7118 17.9409 43.7645 18.0429C43.8172 18.145 43.5909 18.1546 43.5763 18.4381C43.5755 18.5724 42.571 21.2159 42.5745 21.224C42.5522 21.2621 42.4218 21.499 41.7797 22.8416C41.6609 23.0831 41.9066 22.9601 41.6266 23.1837C41.3677 23.3887 41.513 23.5282 41.1478 24.2086C40.6745 25.0877 40.6732 25.1074 40.5437 25.2099C40.5017 25.2468 40.398 25.5011 40.2689 25.7182C40.1176 25.9735 40.3581 26.111 40.0465 26.5774C39.4831 27.3798 39.5526 27.2261 39.863 27.1428C39.899 27.1371 39.9543 27.1998 39.8776 27.2227C39.7438 27.2697 39.5629 27.4322 39.6396 27.5911C39.6739 27.6722 39.5646 27.7089 39.5479 27.7829C39.517 27.8916 39.5059 28.0015 39.4008 28.0937C39.3717 28.1156 39.4244 28.2177 39.4639 28.2201C39.6448 28.2393 40.0259 27.9826 40.1241 27.8741C40.2175 27.7773 40.3324 27.7765 40.4143 27.675C40.7405 27.2884 40.8027 27.3674 40.8297 27.3177C40.9086 27.1409 41.3707 26.7351 42.4476 25.467C42.4523 25.4554 42.8767 24.7787 42.9188 24.7418C43.0821 24.6058 43.161 24.429 43.263 24.2616C43.4259 24.011 43.4298 24.1337 43.5699 23.8067C43.6535 23.6183 43.8379 23.4639 43.9078 23.243C43.9708 23.006 44.0904 22.9937 44.1037 22.9116C44.1521 22.5946 44.6142 22.0071 44.6284 21.9724C44.6331 21.9609 45.0039 20.5894 45.3807 20.0954C45.5587 19.8576 45.3709 19.8222 45.5265 19.6225C45.7254 19.3663 45.5651 19.3958 45.6894 19.0085C45.725 18.8882 45.8047 18.7589 45.7893 18.6315C45.785 18.5759 45.8343 18.4881 45.866 18.4269C45.9072 18.3426 46.0101 18.4043 46.0182 18.4009C46.0855 18.4011 46.128 18.2971 46.0898 18.2749C45.9903 18.2213 45.9676 18.3266 45.9946 18.0952C46.0006 18.064 46.164 17.7462 46.0671 17.6533C46.0186 17.6068 46.0135 17.5038 46.1335 17.6061C46.197 17.6653 46.1923 17.6769 46.233 17.6597C46.3552 17.608 46.0559 17.7632 46.3629 17.1265C46.3912 17.0572 46.452 16.9741 46.4478 16.9185C46.4276 16.8027 46.4512 16.7449 46.5837 16.7176C46.6278 16.7085 46.6797 16.5814 46.6454 16.5002C46.5232 16.1884 46.4846 16.4151 46.5991 15.9363C46.6038 15.9248 46.6021 15.8299 46.6694 15.8301C46.789 15.8178 46.7517 15.8431 46.7341 16.0514C46.7213 16.2482 46.9395 15.8786 46.9266 15.7118C46.9202 15.6285 46.9022 15.5404 46.9643 15.4376C47.0171 15.358 46.8962 15.2082 46.9802 15.1344C47.1401 14.9903 46.9738 15.0511 47.1371 14.5516C47.1774 14.4198 47.0681 14.4565 47.1757 14.1432C47.1945 14.0969 47.2263 14.0357 47.2125 14.0032C47.1478 13.7819 47.3158 13.4526 47.2108 13.3631C47.1208 13.2864 47.2215 13.1386 47.1607 13.04C47.1114 12.9461 47.3398 12.7825 47.2082 12.6756C47.1216 12.6069 47.0968 12.5027 47.0963 12.3881C47.0899 11.9413 46.5695 11.6638 46.6222 11.5842C46.7229 11.4364 46.6179 11.3469 46.6256 11.2288C46.6273 11.142 46.5686 11.0712 46.506 11.0594C46.3727 11.0392 46.3199 10.9372 46.2205 10.8835C45.8587 10.6634 45.7738 11.0532 45.5127 10.867C45.2782 10.6983 45.1869 10.823 45.0707 10.8434C44.7174 10.9162 44.7432 10.8862 44.7252 10.7981C44.7119 10.6985 44.6334 10.8082 44.1061 10.878C43.8785 10.9073 43.659 10.9331 43.4283 11.0688C43.4039 11.0792 43.376 11.0814 43.3563 11.0801C43.1612 11.0956 43.0271 11.3915 42.8119 11.4728C42.7793 11.4866 42.7454 11.5201 42.7313 11.5547C42.691 11.6865 42.5594 11.7613 42.4775 11.8628C42.3746 11.9829 42.1504 12.0202 42.1101 12.152C42.0664 12.2757 41.9823 12.3495 41.8936 12.4348C41.8516 12.4717 41.7967 12.5236 41.7907 12.5548C41.7783 12.6844 41.6398 12.7429 41.5974 12.847C41.1691 13.7644 41.3217 13.3078 40.8939 13.9764C40.7121 14.2732 40.4 14.2616 40.4647 14.483C40.493 14.5953 40.4587 14.6959 40.3897 14.7825C40.2903 14.9106 40.0476 15.4723 40.0476 15.4723C39.7823 15.7757 39.7981 16.0177 39.6438 16.016C39.7167 15.8704 39.7514 15.7027 39.6416 15.8064C39.5786 15.8618 39.5966 15.9498 39.522 16.0005C39.3681 16.1133 39.2464 16.8247 38.9639 17.0876C38.888 17.1579 38.936 17.2716 38.873 17.3269C38.7118 17.4907 38.7641 17.8416 38.6629 17.8748C38.392 17.9606 38.6951 18.1099 38.4906 18.3302C38.4229 18.3971 38.4074 18.6332 38.4023 18.7118C38.3851 19.0347 38.2488 18.9393 38.1326 19.1414C37.98 19.4164 38.1091 19.381 37.9479 19.5447C37.6581 19.3133 38.0855 19.257 37.9247 18.9902C37.8857 18.9206 37.8188 19.2167 37.7588 19.3473C37.3674 20.1248 37.5106 20.2365 37.4416 20.323C37.403 20.368 37.3931 20.4583 37.4069 20.4907C37.4459 20.5603 37.37 20.6307 37.358 20.6931C37.298 21.3689 37.5222 21.5132 37.3786 21.8322C37.1655 22.3048 37.373 22.5232 37.1046 22.5697C37.0523 22.5822 36.997 22.7012 37.0176 22.7499C37.1621 23.0236 37.187 22.7644 37.0939 23.1576C37.0712 23.2629 37.0879 23.3706 36.9666 23.4697C36.9375 23.4916 36.934 23.6652 36.8954 23.7102C36.8054 23.8152 36.967 23.766 36.9447 23.8041C36.8522 23.9485 36.868 24.1905 36.8286 24.3697C36.8119 24.4438 36.7591 24.5234 36.7634 24.579C36.778 24.6589 36.7728 24.7376 36.7596 24.8198C36.6601 25.6748 36.4856 25.3755 36.5131 25.9856C36.6241 26.0439 36.5349 26.1964 36.5761 26.2938C36.6228 26.427 36.4908 26.5689 36.4736 26.7101C36.3506 26.7143 36.4222 26.5884 36.4685 26.0619C36.4072 26.0304 36.3403 25.2361 36.4436 24.6855C36.5242 24.2401 36.3484 24.324 36.4556 24.0778C36.4792 24.02 36.4796 23.9529 36.5148 23.8998C36.5816 23.7854 36.5915 23.6952 36.4968 23.63C36.4552 23.5998 36.453 23.572 36.5439 22.9693C36.5598 22.8478 36.5006 23.0258 36.5765 22.4103C36.5778 22.3906 36.5795 22.3038 36.54 22.3014C36.3638 22.2706 35.6492 27.3263 35.6445 27.5196C35.7204 27.631 35.5365 27.7183 35.5605 27.7751C35.5935 27.8759 35.5717 28.0286 35.5382 28.1767C35.4688 28.1486 35.4006 28.1009 35.1374 28.0687C35.1327 27.8985 35.0791 27.9307 35.0272 28.0579C34.8429 28.0306 34.6971 27.9583 34.6216 27.7797C34.4995 27.4679 34.6225 28.0089 33.7887 26.104C33.5301 25.5151 33.5344 25.3889 33.4165 25.3144C33.3368 25.262 33.4431 25.1501 33.3634 25.0977C33.0581 24.9207 33.4787 24.4847 33.5023 24.0634C33.5284 23.6028 33.9044 22.6979 34.0068 22.0998C34.0381 21.924 34.0467 21.3082 34.222 20.9281C34.3515 20.6438 34.2044 20.9546 34.5765 18.8366C34.6237 18.5393 34.5225 18.3908 34.5932 18.2174C34.637 18.0937 34.8685 17.4602 34.8007 17.3454C34.7467 17.263 34.8007 17.1637 34.7746 17.0791C34.7073 16.8971 34.8659 16.9544 34.9156 16.6177C34.9182 16.5784 34.9555 16.0079 35.0425 15.8276C35.2388 15.429 35.0716 15.0788 35.1947 14.7112C35.3473 14.2545 35.2761 13.9498 35.2577 13.9289C35.1046 13.7258 35.4635 13.1437 35.2967 12.7264C35.2727 12.6696 35.3413 12.6502 35.3473 12.619C35.388 12.2383 35.2808 12.3027 35.283 12.3305C35.2808 12.4844 35.1569 12.6229 35.2337 12.7818C35.1827 12.9564 35.2487 13.158 35.1269 13.3242C35.0965 13.3658 35.0961 13.4329 35.1085 13.4851C35.1608 13.6542 35.0575 13.8414 35.1492 14.013C35.1595 14.0374 35.1522 14.0883 35.1312 14.1067C35.0433 14.2395 35.0442 14.6504 34.9357 14.7345C34.9525 14.8422 34.8637 14.9276 34.8886 15.0318C34.7844 15.1715 34.907 15.2345 34.8131 15.9437C34.7643 16.3278 34.6018 16.1478 34.6477 16.4153C34.7523 16.9355 34.4933 17.1405 34.4466 17.0072C34.4102 16.8983 34.6699 14.5599 34.6747 14.5484C34.7677 14.3369 34.6335 14.451 34.7175 14.1955C34.8191 13.9134 34.6425 13.7681 34.8689 13.5768C35.0871 13.3889 34.7921 13.2362 34.886 13.0722C34.9576 12.9463 34.9734 12.8248 34.8988 12.6937C34.8851 12.6612 34.9447 12.5978 34.8693 12.601C34.7625 12.5983 34.7925 12.6239 34.847 12.2756C34.853 12.2444 34.6939 12.2542 34.6828 12.3642C34.6622 12.6789 34.5477 12.4308 34.5572 12.4077C34.6138 12.269 34.588 12.1173 34.6678 11.9879C34.8002 11.7789 34.5606 12.0523 34.6613 11.1776C34.6613 11.1776 34.6613 11.1776 34.6579 11.1695C34.6579 11.1695 34.6695 11.1742 34.6776 11.1708C34.7346 11.1467 34.7179 11.4024 34.7762 11.5404C34.9194 11.8337 34.8637 11.6564 34.9108 11.5409C35.0274 11.2716 35.0073 10.7923 34.9576 10.7655C34.8384 10.7107 34.9018 10.4065 34.8607 10.3091C34.8345 10.2245 34.9023 10.1576 34.8911 10.0858C34.8508 9.85414 34.9241 9.64143 34.9696 9.43093C34.9936 9.306 34.922 9.25018 34.9353 9.16805C34.9936 8.76082 34.8696 8.17234 35.0158 8.17751C35.162 8.18268 35.0639 8.29113 35.1059 8.6177C35.1415 8.86091 35.1993 8.88427 35.1547 9.14224C35.1415 9.22437 35.2186 9.3161 35.2349 9.30921C35.3082 9.27823 35.2799 9.34758 35.3369 8.77829C35.373 8.40918 35.4124 8.41164 35.3609 8.28991C35.3472 8.25745 35.3417 8.22155 35.3477 8.19031C35.3927 8.04695 35.3112 7.89964 35.3678 7.76095C35.4835 7.44422 35.2413 7.39355 35.4107 7.04461C35.4835 6.89903 35.3957 6.66836 35.3669 6.80484C35.3622 6.8164 35.3691 7.01436 35.2786 6.82303C35.171 6.59113 35.2469 6.15735 35.2816 6.17137C35.4299 6.20432 35.3022 6.58352 35.3974 6.76328C35.4998 6.71042 35.4852 5.90357 35.4818 5.89546C35.4895 5.77742 35.1822 5.75429 35.2743 5.67708C35.4634 5.5111 35.144 5.3687 35.279 5.12033C35.2885 5.09721 35.2876 5.04976 35.2773 5.02541C35.2233 4.94303 35.2529 4.85401 35.243 4.76253C35.1929 4.25766 35.1478 4.40103 35.1658 4.30734C35.3185 4.39587 35.261 4.66884 35.4509 4.73204C35.4822 4.73795 35.5285 4.75664 35.5307 4.78443C35.5808 4.92583 35.703 5.05592 35.6601 5.22708C35.6447 5.28142 35.6979 5.31634 35.7639 5.33627C35.8728 5.36676 35.7317 5.2829 35.7948 5.04584C35.8316 4.90592 35.7485 5.02715 35.7394 4.25621C35.736 3.88464 35.126 4.19028 35.201 3.70903C35.4363 3.56174 34.9952 3.40384 35.0621 3.10777C35.0942 2.9794 34.8855 2.96243 34.8649 2.91374C34.8477 2.87316 34.8923 2.79693 34.8439 2.75045C34.717 2.63191 34.6681 2.47084 34.5948 2.32009C34.5331 2.17401 34.3629 2.11204 34.3148 1.99842C34.284 1.92538 34.0418 1.87472 33.9633 1.80266C33.818 1.66322 33.7074 1.90126 33.6238 1.72617C33.5676 1.616 33.5762 1.54542 33.466 1.53459C33.2409 1.5245 32.8328 1.10397 32.0577 1.08721C31.6307 1.07638 31.5192 0.721764 31.1956 1.43244C31.112 1.6208 30.9907 1.53817 30.8861 1.56325C30.8338 1.57579 30.772 1.61145 30.754 1.52341C30.7292 1.41914 30.8749 1.49144 31.0108 1.29054C31.0764 1.19587 31.2007 1.17202 31.2479 1.05644C31.4438 0.906687 31.0691 0.88331 31.0052 1.07291ZM13.9991 16.7823C14.1256 16.7863 14.165 17.1522 14.1359 17.1741C14.0763 17.2375 14.1338 17.328 14.0707 17.3833C13.8011 17.4495 13.9121 16.7808 13.9991 16.7823ZM14.0917 17.5466C14.0917 17.5466 14.1115 17.5479 14.123 17.5525C14.1668 17.6106 14.1556 17.5388 14.1483 17.7714C14.141 17.8223 14.0227 17.8149 14.0917 17.5466ZM36.4317 32.744C36.4265 32.8227 36.3631 32.7635 36.3249 32.7413C36.2259 32.6206 36.2281 32.6484 36.3922 32.5599C36.4831 32.5023 36.4514 32.5635 36.4317 32.744ZM46.1996 21.2606C46.1443 21.1979 46.1769 21.1841 46.2463 21.0304C46.4427 20.9953 46.5035 21.0939 46.4495 21.1932C46.0174 22.1697 46.0868 22.016 46.0075 22.0782C45.8631 21.8045 46.3205 21.4103 46.1996 21.2606ZM44.9337 24.1485C44.8552 24.0765 44.8608 23.9306 44.9414 23.8488C45.0511 23.745 45.0764 23.6004 45.1977 23.5013C45.2899 23.4241 45.1081 23.3574 45.298 23.2389C45.4412 23.1688 45.4074 23.384 45.3315 23.4543C45.2346 23.5431 45.235 23.6577 45.1729 23.7605C45.1107 23.8633 45.0451 23.958 45.034 24.0679C45.0301 24.1269 44.9521 24.1694 44.9337 24.1485ZM43.1803 26.3147C43.2857 26.1554 43.1811 26.7256 43.0521 26.761C42.9835 26.7805 43.0281 26.5225 43.1803 26.3147ZM42.3276 28.2724C42.3036 28.2156 42.3152 28.2202 42.4695 28.0402C42.8733 27.6783 42.3915 28.4462 42.3276 28.2724ZM40.4079 27.2281C40.2998 27.2451 40.2282 27.371 40.1202 27.388C39.9843 27.4072 40.0859 27.3068 40.0975 27.3115C40.1974 27.298 40.2677 27.1917 40.3607 27.162C40.3886 27.1598 40.4289 27.2097 40.4079 27.2281ZM43.867 22.8968C43.8833 22.8899 43.9052 22.9189 43.9039 22.9386C43.8859 23.0323 43.7671 23.092 43.7641 23.1985C43.6042 23.1609 43.7894 23.0539 43.8392 22.899L43.8439 22.8874C43.8473 22.8956 43.8507 22.9037 43.867 22.8968ZM42.5445 23.5609C42.4347 23.6647 42.4373 23.6254 42.433 23.5698C42.4326 23.4552 42.5955 23.3863 42.5869 23.2752C42.7353 23.3081 42.6649 23.4144 42.5445 23.5609ZM42.7833 23.0583C42.7738 23.0814 42.6842 23.1193 42.6718 23.0672C42.6504 22.971 42.701 22.8635 42.6516 22.7696C42.6311 22.7209 42.6988 22.654 42.7061 22.6031C42.7288 22.4979 42.8077 22.5028 42.8613 22.4706C43.0173 22.5672 42.8287 22.8478 42.7833 23.0583ZM43.1631 21.3674C43.1909 21.3652 43.1867 21.4914 43.1725 21.526C42.9736 21.964 43.0722 21.9702 42.866 22.459C42.7232 22.2802 42.9132 22.1617 43.0212 21.5996C43.0298 21.529 43.0778 21.4609 43.1061 21.3915C43.1073 21.3718 43.1434 21.3662 43.1631 21.3674ZM43.2217 11.4431C43.2148 11.4269 43.2093 11.391 43.2256 11.3841C43.8858 11.2198 43.4866 11.5703 43.4498 11.5285C43.3863 11.4692 43.2912 11.4711 43.2217 11.4431ZM42.3309 12.2883C42.156 12.2379 42.9293 11.6145 42.9602 11.6875C43.0185 11.8255 42.5499 12.1479 42.5251 12.2253C42.4933 12.2866 42.3887 12.3116 42.3309 12.2883ZM37.7914 20.4239C37.6272 20.3307 37.7172 20.2257 38.016 19.5924C38.1669 19.7678 37.9174 19.9497 38.1356 19.9436C38.4259 19.9262 37.9363 20.0852 38.0645 20.3658C38.0645 20.3658 38.0306 20.3993 38.0143 20.4062C37.9457 20.4256 37.9697 20.4824 37.9393 20.524C37.8141 20.6821 37.818 20.4413 37.7914 20.4239ZM37.8274 22.9624C37.8197 22.8987 37.8737 22.7994 37.8905 22.7254C37.9393 22.523 37.9393 22.523 38.1314 22.4322C38.2047 22.4013 38.1597 22.5446 38.1468 22.5596C37.9741 22.9005 38.233 23.0588 37.9518 23.302C37.8725 23.3642 37.8647 23.4823 37.788 23.5052C37.7593 23.4599 37.8476 23.0783 37.8274 22.9624ZM36.3557 27.5442C36.3519 27.4215 36.357 27.1611 36.4826 27.1176C36.4758 27.2831 36.562 27.6005 36.4111 27.6069C36.3926 27.586 36.3579 27.572 36.3557 27.5442ZM33.7753 21.8247C33.8491 21.9083 33.7706 22.0179 33.8118 22.1153C33.8358 22.1721 33.7522 22.3605 33.7102 22.2157C33.6038 21.9641 33.7509 22.0167 33.7149 21.8406C33.7059 21.7966 33.7384 21.7828 33.7753 21.8247ZM29.6216 21.1507C29.6079 21.1182 29.7116 21.0457 29.7343 21.1221C29.7605 21.2067 29.7193 21.2911 29.7571 21.3804C29.7686 21.385 29.7794 21.524 29.6216 21.1507ZM30.5858 21.3649C30.5755 21.1588 30.5965 20.9587 30.5746 20.7479C30.5712 20.7398 30.6368 20.6451 30.7135 20.804C30.7315 20.892 30.7611 20.803 30.6959 21.3757C30.7015 21.4116 30.5922 21.4483 30.5858 21.3649ZM34.2503 19.0414C34.3172 19.1088 34.2413 19.5426 34.2023 19.6547C34.1148 19.9021 34.1757 20.1825 34.0724 20.3696C33.9879 20.5105 34.198 20.6895 34.0411 20.9089C33.7192 21.351 34.135 18.9276 34.2503 19.0414ZM29.6086 8.08112C29.615 7.98276 29.8144 8.02285 29.5524 8.8796C29.4174 9.3097 29.5782 9.39479 29.4774 9.36085C29.2562 9.29173 29.4311 9.52389 29.2785 9.61708C29.1932 9.16533 29.5764 8.75468 29.6086 8.08112ZM29.2116 8.82278C29.2 8.81811 29.1687 8.8122 29.1666 8.78441C29.1773 8.5599 29.1649 8.32603 29.3355 8.13915C29.3561 8.18784 29.3651 8.23186 29.3415 8.28965C29.1559 8.8272 29.4097 8.33736 29.2116 8.82278ZM30.8493 8.42718C30.9341 8.5826 30.8561 8.62514 30.7794 8.82973C30.7511 8.89908 30.7202 8.82604 30.7134 8.80981C30.7061 8.67898 30.7464 8.54718 30.7112 8.41856C30.7078 8.41045 30.7747 8.2961 30.8493 8.42718ZM29.2704 9.62052C29.3308 9.78627 29.2541 9.99087 29.2193 9.97685C29.1846 9.96283 29.1653 9.71273 29.2704 9.62052ZM30.0489 9.46366C30.0665 9.43711 30.1102 9.49514 30.1055 9.5067C29.973 10.2609 29.8894 9.72236 30.0489 9.46366ZM29.2897 10.5975C29.2991 10.5744 29.2648 10.4933 29.2112 10.5255C29.1366 10.5761 29.1362 10.6433 29.0877 10.5968C29.0659 10.5678 29.0702 10.4416 29.1563 10.3956C29.3844 10.2992 29.2579 9.93185 29.5147 10.0624C29.5216 10.0787 29.5284 10.0949 29.5284 10.0949C29.501 10.2117 29.5838 10.3393 29.5087 10.4571C29.5237 10.6516 29.3707 10.812 29.366 11.0053C29.3758 11.0967 29.1606 10.8147 29.2897 10.5975ZM29.8804 10.2235C29.8817 10.2039 29.9074 10.1739 29.949 10.2041C29.9799 10.2771 29.9271 10.3568 29.9614 10.438C30.0005 10.5076 29.8641 10.9573 29.8041 10.9062C29.7857 10.8853 29.7818 10.9443 29.8804 10.2235ZM30.815 10.1633C30.7867 10.4144 30.7974 10.3716 30.7683 10.3935C30.7391 10.4154 30.7078 10.4095 30.7125 10.3979C30.7468 10.1156 30.7378 10.0716 30.815 10.1633ZM29.1439 11.7973C29.2241 11.7826 29.2592 11.9112 29.2438 11.9656C29.2237 12.0315 29.1885 12.0846 29.1881 12.1517C29.1958 12.2154 29.1941 12.3022 29.1636 12.3438C29.0912 12.4222 29.0732 12.5159 29.0196 12.5481C28.897 12.4851 29.1002 12.1028 29.0985 11.8261C29.095 11.818 29.1276 11.8042 29.1439 11.7973ZM28.5373 12.1111C28.6338 12.0895 28.527 12.2685 28.5283 12.4305C28.5292 12.478 28.6183 12.5073 28.5309 12.5729C28.4854 12.6017 28.4361 12.6895 28.464 12.869C28.4233 12.8862 28.3813 12.9231 28.3478 12.8894C28.3178 12.8638 28.2857 12.8105 28.2917 12.7792C28.3581 12.3686 28.3234 12.1728 28.5373 12.1111ZM27.8132 13.1919C27.7506 13.18 27.7699 13.0667 27.7871 12.9255C27.8029 12.8041 27.905 12.8183 27.9178 12.8033C27.9384 12.852 27.9856 12.9182 27.9633 12.9563C27.839 13.1619 27.899 13.213 27.8132 13.1919ZM29.5255 12.9273C29.417 12.8297 29.5512 12.3521 29.5015 12.1436C29.48 12.0474 29.5653 11.954 29.552 11.8544C29.5289 11.6633 29.7214 11.3237 29.7227 11.4858C29.7501 12.2776 29.5881 12.2122 29.7021 12.5275C29.6485 12.5597 29.6331 12.614 29.6374 12.6696C29.6417 12.7252 29.5739 12.9738 29.5255 12.9273ZM29.9057 12.078C29.9186 12.063 29.9649 12.0817 29.9567 12.0851C29.9319 12.1626 29.9036 12.2319 29.8787 12.3094C29.8539 12.3868 29.9323 12.4589 29.8796 12.5386C29.7823 12.6945 29.8281 12.7803 29.7068 12.5159C29.841 12.4018 29.7248 12.2405 29.9057 12.078ZM30.2869 12.5482C30.3139 12.4985 30.3593 11.5611 30.5149 11.1797C30.5479 11.0988 30.4776 11.0233 30.514 10.9505C30.5505 10.8777 30.6525 10.3468 30.7417 10.5578C30.7657 10.6146 30.6551 10.8526 30.6281 10.9023C30.5659 11.0051 30.6259 11.0562 30.6028 11.2286C30.4125 12.3229 30.5196 12.0768 30.4733 12.2398C30.247 13.158 30.4129 13.3462 30.205 13.5584C30.2761 13.6813 30.3122 13.8574 30.2616 13.9649C30.0974 13.8717 30.2063 13.7204 30.2268 13.0422C30.2221 12.872 30.1977 12.7006 30.2869 12.5482ZM29.4556 13.6933C29.4247 13.6203 29.4406 13.1354 29.5456 13.2249C29.5581 13.4587 29.5401 13.9159 29.4556 13.6933ZM29.4247 14.3472C29.384 14.1827 29.4209 14.0428 29.4312 13.8854C29.4359 13.8738 29.4685 13.8601 29.4895 13.8416C29.5079 13.8625 29.5529 13.9009 29.5401 13.9159C29.5045 14.0361 29.5641 14.1544 29.5203 14.2781C29.4638 14.4168 29.5868 14.7761 29.4462 14.8068C29.3416 14.8319 29.4779 14.5639 29.4247 14.3472ZM30.0399 14.1446C30.0631 14.154 30.1 14.1958 30.0952 14.2073C30.0048 14.3795 30.0828 14.5187 30.0361 14.5671C29.9696 14.4326 29.9066 14.1244 30.0399 14.1446ZM30.2689 14.0957C30.3113 14.5369 30.1463 14.2145 30.169 14.1092C30.1763 14.0583 30.2667 14.0679 30.2689 14.0957ZM29.9551 15.0796C29.9718 15.0056 29.9032 14.6615 30.0314 14.5787C30.1223 14.7028 30.0528 14.8565 30.1193 14.9911C30.1467 15.056 30.145 15.1428 30.1283 15.2168C30.0725 15.5847 29.8547 15.5237 29.9551 15.0796ZM29.751 17.4135C29.8158 17.4531 29.9482 17.7893 29.9259 17.8274C29.9024 17.8852 29.9564 17.9676 29.8749 18.002C29.8423 18.0158 29.7274 17.4713 29.751 17.4135ZM30.5412 20.5325C30.4241 20.3237 30.458 20.2903 30.4811 20.1179C30.6518 20.2944 30.5446 20.3589 30.5922 20.5396C30.5875 20.5512 30.5514 20.5568 30.5412 20.5325ZM34.2494 18.6305C34.2593 18.5403 34.3236 18.4653 34.3056 18.3772C34.3022 18.3691 34.315 18.3541 34.3116 18.346C34.5568 18.4719 34.1727 19.1986 34.2494 18.6305ZM34.1555 16.2503C34.2653 16.51 33.9832 17.9778 33.9785 17.9894C33.8709 18.3027 34.0149 18.2801 33.9408 18.4453C33.9313 18.4684 33.879 18.481 33.8769 18.4532C33.8224 17.5293 33.984 17.2984 33.9635 17.2497C33.8764 17.0665 34.1435 16.858 34.0368 16.6735C34.1624 16.2665 34.0642 16.1933 34.1555 16.2503ZM34.4719 13.7732C34.5075 13.8347 34.4993 14.2016 34.4204 14.3784C34.3356 14.5865 34.3377 13.7056 34.4719 13.7732ZM33.6792 11.4206C33.9162 11.3682 33.674 12.0444 33.8648 12.1551C33.8982 12.1888 33.8717 12.5348 33.7919 12.6641C33.7662 12.6941 33.7341 12.6408 33.7306 12.6327C33.7229 12.569 33.7628 12.5043 33.7238 12.4347C33.6676 12.3245 33.6114 12.2144 33.6436 12.086C33.5253 11.8969 33.6102 11.6888 33.5789 11.5012C33.5746 11.4456 33.6384 11.4378 33.6792 11.4206ZM34.1576 10.4627C34.176 10.4836 34.1735 10.523 34.1675 10.5542C34.1692 10.6491 34.0251 10.6718 34.0616 10.7807C34.065 10.7888 34.0521 10.8038 34.0556 10.8119C33.9321 10.7015 33.9951 10.6462 33.996 10.5119C33.9883 10.4482 34.1276 10.4372 34.1576 10.4627ZM34.1469 9.77861C34.1666 9.77984 34.1769 9.80419 34.2035 9.82165C34.1615 10.0403 34.3475 10.1625 34.1464 10.2092C34.0221 10.2331 34.0406 10.0722 34.0187 9.86148C34.0131 9.82558 34.0959 9.77148 34.1469 9.77861ZM34.1794 7.76582C34.2347 8.01026 34.1349 8.20551 34.2112 8.61323C34.2146 8.62135 34.1974 8.7625 34.0864 8.70422C33.9719 8.63782 34.1979 8.51364 34.0731 8.24116C33.9655 8.00926 34.1306 7.9682 34.1284 7.75868C34.1228 7.72278 34.1679 7.76114 34.1794 7.76582ZM32.0496 5.81563C32.1122 5.82744 32.2288 5.92163 32.3493 5.77507C32.4136 5.70007 32.4594 5.60417 32.5722 5.57564C32.7745 5.50926 32.6807 5.67328 32.7 5.74164C32.733 5.84247 32.7591 5.92706 32.7085 6.03452C32.685 6.09231 32.7548 6.23494 32.7454 6.25806C32.6871 6.48356 32.8744 6.40438 32.8492 6.54898C32.8273 6.70169 32.7921 6.93654 32.862 7.07917C33.0476 7.45026 32.7386 7.51394 32.8076 7.79084C32.8856 8.11176 32.4625 11.4948 32.4625 11.4948C32.3793 11.616 32.4098 11.7562 32.3579 11.8833C32.3249 11.9642 32.3918 12.0316 32.3588 12.1125C32.2559 12.4142 32.2692 12.8773 32.1491 13.3202C32.0956 13.5341 32.2409 13.4918 32.1397 13.7067C32.069 13.8801 31.45 18.3215 31.2536 18.7201C31.2254 18.7895 31.2296 18.8451 31.2489 18.9134C31.2524 18.9215 31.2301 18.9597 31.2301 18.9597C31.1212 18.9292 31.1345 19.0288 31.1075 19.0784C31.029 19.1881 31.2052 19.2188 31.1619 19.2754C31.0625 19.4035 31.0719 19.5621 31.0269 19.7055C31.0256 19.7252 30.9158 19.8289 30.8528 19.7025C30.7967 19.5924 30.9326 19.7549 30.6415 18.998C30.6878 18.835 30.5806 18.7176 30.5339 18.5844C30.5043 18.4916 30.5454 18.4073 30.5471 18.3205C30.5437 18.3124 30.6612 18.2723 30.5883 18.2361C30.3431 18.1102 30.5038 17.6501 30.3821 17.4529C30.3786 17.4448 30.3885 17.1728 30.3936 17.0941C30.3962 16.873 30.307 16.8438 30.4031 16.7075C30.4335 16.666 30.4279 16.6301 30.3032 16.3576C30.2655 16.2683 30.3066 16.184 30.2967 16.0925C30.3709 16.109 30.4185 16.108 30.3936 16.0037C30.3653 15.8914 30.512 15.6477 30.3062 15.7059C30.2702 15.7116 30.2612 15.6676 30.2787 15.641C30.3375 15.5301 30.599 15.4674 30.4939 15.1962C30.4905 15.1881 30.764 11.7918 31.0139 9.90709C31.0456 9.66413 30.8523 9.77453 30.8943 9.55592C31.0863 8.55654 31.0696 8.63055 31.0906 8.61211C31.1957 8.5199 31.1682 8.27325 31.2081 8.20858C31.4006 7.86898 31.2287 7.53035 31.4807 6.94558C31.5798 6.70286 31.7019 6.28777 31.7066 6.27621C31.7285 6.1235 31.8533 6.03252 31.8867 5.88448C31.8906 5.82546 31.9754 5.79915 32.0496 5.81563ZM29.3368 8.11947C29.2352 7.85634 29.4907 7.09795 29.5224 7.03672C29.6986 7.2492 29.4105 7.47617 29.405 7.98545C29.4092 8.04103 29.3857 8.09882 29.3368 8.11947ZM29.9383 7.15749C29.8997 7.20249 29.883 7.27651 29.8512 7.33774C29.8397 7.33307 29.8015 7.31093 29.7994 7.28314C30.1273 5.53766 30.2246 6.8356 29.9383 7.15749ZM29.696 5.47125C29.6051 5.52879 29.6622 5.50469 29.4714 5.57575C29.531 5.69404 29.5606 5.78675 29.6004 5.72208C29.9172 5.1769 29.0877 7.50738 29.1344 8.00413C29.1409 8.08749 29.101 8.15217 29.008 8.18192C28.9394 8.20134 28.7349 9.33032 28.5956 9.34138C28.5085 9.3399 28.68 8.83702 29.0101 7.11933C29.0847 6.70521 28.8416 6.60709 29.0315 6.48856C29.4114 6.25152 29.3603 5.15401 29.696 5.47125Z" fill="white"/>
<path d="M28.1488 18.0034C28.1325 18.0103 28.1484 18.0705 28.1587 18.0949C28.193 18.176 28.2684 18.1728 28.2543 18.2075C28.1196 18.5705 28.0622 18.48 28.2088 18.7815C28.2718 18.9079 28.1407 18.9155 28.3023 19.048C28.3773 19.112 28.367 19.2694 28.4519 19.243C28.4926 19.2258 28.5488 19.1543 28.5458 19.079C28.5428 19.0038 28.448 18.9386 28.5205 18.8602C28.5754 18.8083 28.5989 18.7505 28.6191 18.6846C28.7014 18.5159 28.5282 18.5604 28.5243 18.4377C28.5209 18.4296 28.5222 18.4099 28.5303 18.4065C28.6169 18.2933 28.5145 18.1645 28.5616 18.0489C28.4485 17.7811 28.5436 17.7791 28.5033 17.7292C28.3721 17.5551 28.3576 17.2934 28.3777 17.2275C28.3061 17.1717 28.2855 17.123 28.1479 17.7742C28.1299 17.8679 28.1938 17.86 28.2461 18.0292C28.2633 18.0698 28.2041 18.0661 28.1891 18.0533C28.1951 18.0221 28.1779 17.9815 28.1488 18.0034Z" fill="white"/>
<path d="M27.6185 10.1366C27.5962 10.1747 27.6309 10.1887 27.6493 10.2096C27.7094 10.2608 27.8178 10.1767 27.8543 10.2856C27.8645 10.31 27.8958 10.3159 27.9018 10.2846C27.922 10.2187 27.994 10.2074 28.0039 10.1172C28.0347 9.82675 28.1685 9.41633 28.1226 8.96704C28.1886 8.80523 28.1063 8.61047 28.2118 8.45112C28.2915 8.32177 28.1509 8.35251 28.2405 8.13291C28.2594 8.08668 28.2748 8.03233 28.2203 8.01708C28.1659 8.00184 28.1655 8.06897 28.1513 8.10364C27.9477 8.55316 27.9464 8.57284 27.9739 8.63776C28.0356 8.78383 27.8993 8.68841 27.8851 8.72309C27.7364 9.12072 28.0172 9.12639 27.8864 9.43033C27.7745 9.68805 28 9.99446 27.7175 10.0756C27.6236 10.0579 27.6583 10.0719 27.6185 10.1366Z" fill="white"/>
<path d="M27.8196 16.9956C27.896 17.0399 28.0104 17.1063 28.019 17.0357C28.0576 16.809 28.2586 16.944 28.3101 16.7023C28.3435 16.5542 28.1223 16.6668 28.1026 16.6656C28.0224 16.6804 27.9543 16.6327 27.9508 16.6245C28.0704 16.4305 28.2213 16.6059 27.8947 16.3326C27.8016 16.1807 27.9577 16.0956 27.7596 16.0358C27.7283 16.0299 27.7086 16.0287 27.7142 16.0646C27.7206 16.148 27.691 16.237 27.7369 16.3228C27.8698 16.5918 27.7699 16.9688 27.8196 16.9956Z" fill="white"/>
<path d="M35.7512 10.0079C35.7983 10.074 35.8189 9.94097 35.8802 9.42726C35.9205 9.11373 35.731 8.98339 35.7593 9.09577C35.8223 9.4039 35.6568 9.87555 35.7512 10.0079Z" fill="white"/>
<path d="M28.1707 17.1521C28.1758 17.0735 28.1883 17.1256 28.1501 17.1035C28.112 17.0813 28.0858 17.1785 28.0335 17.191C28.0009 17.2048 27.9525 17.1583 27.907 17.1871C27.8312 17.2574 27.9684 17.582 28.1707 17.1521Z" fill="white"/>
<path d="M28.2831 7.89457C28.3474 7.81957 28.3341 7.9017 28.3675 7.57193C28.3945 7.34053 28.0649 7.9007 28.2831 7.89457Z" fill="white"/>
<path d="M27.6576 10.6838C27.6062 10.7438 27.851 10.7551 27.8707 10.7563C27.8999 10.7344 27.926 10.6373 27.9089 10.5967C27.9054 10.5886 27.8741 10.5827 27.8626 10.578C27.8343 10.6474 27.788 10.6287 27.7288 10.625C27.7057 10.6157 27.6752 10.6572 27.6576 10.6838Z" fill="white"/>
<path d="M27.6963 14.7518C27.7182 14.7809 27.7439 14.7509 27.7405 14.7428C27.7028 14.6535 27.737 14.5529 27.7246 14.5008C27.6174 14.2017 27.5939 14.623 27.6963 14.7518Z" fill="white"/>
<path d="M35.7473 3.908C35.7734 3.81086 35.6894 3.7029 35.5694 3.78232C35.4622 3.84675 35.6251 3.95963 35.7473 3.908Z" fill="white"/>
<path d="M29.9383 23.3026C29.9897 23.2426 29.8045 23.1679 29.7912 23.0683C29.7878 23.0602 29.7252 23.0483 29.7342 23.0924C29.7887 23.2893 29.9173 23.3211 29.9383 23.3026Z" fill="white"/>
<path d="M45.6184 22.385C45.6339 22.3306 45.6802 22.3493 45.4538 22.1772C45.4238 22.1516 45.3363 22.2173 45.3458 22.3759C45.3543 22.487 45.5121 22.3151 45.6184 22.385Z" fill="white"/>
<path d="M35.501 27.2925C35.4564 27.187 35.3227 27.4157 35.3664 27.4737C35.4663 27.4602 35.5683 27.4744 35.501 27.2925Z" fill="white"/>
</svg>
